<svg width="350" height="116" viewBox="0 0 350 116" fill="none" xmlns="http://www.w3.org/2000/svg">
<path d="M53.664 76.88C42.2293 78.4587 33.568 77.7973 27.68 74.896C21.792 72.0373 18.848 67.4293 18.848 61.072C18.848 57.3173 19.7867 54.0533 21.664 51.28C23.5413 48.464 26.1653 46.0533 29.536 44.048C29.2373 42.4693 28.8107 40.6773 28.256 38.672C27.7013 36.624 27.1253 34.5973 26.528 32.592C25.9307 30.544 25.3973 28.7947 24.928 27.344C24.5867 26.1067 24.736 24.912 25.376 23.76C26.0587 22.5653 27.0187 21.7973 28.256 21.456C29.5787 21.1147 30.816 21.2853 31.968 21.968C33.1627 22.608 33.9307 23.5467 34.272 24.784C34.912 27.0453 35.552 29.5413 36.192 32.272C36.8747 34.96 37.472 37.5627 37.984 40.08C39.8613 39.3547 41.8667 38.6933 44 38.096C46.1333 37.4987 48.352 36.944 50.656 36.432C51.936 36.1333 53.1307 36.3253 54.24 37.008C55.3493 37.6907 56.0533 38.672 56.352 39.952C56.6507 41.232 56.4373 42.4267 55.712 43.536C55.0293 44.6027 54.048 45.264 52.768 45.52C47.52 46.5867 43.2533 47.76 39.968 49.04C36.7253 50.2773 34.2507 51.5573 32.544 52.88C30.8373 54.2027 29.664 55.5467 29.024 56.912C28.4267 58.2347 28.128 59.5573 28.128 60.88C28.128 62.2027 28.512 63.4187 29.28 64.528C30.048 65.6373 31.3493 66.5333 33.184 67.216C35.0187 67.8987 37.4933 68.2827 40.608 68.368C43.7653 68.4533 47.712 68.1333 52.448 67.408C53.7707 67.1947 54.944 67.5147 55.968 68.368C56.992 69.1787 57.5893 70.224 57.76 71.504C57.9733 72.8267 57.6747 74 56.864 75.024C56.0533 76.048 54.9867 76.6667 53.664 76.88ZM93.856 76.048C92.8747 76.9013 91.7227 77.3067 90.4 77.264C89.0773 77.2213 87.9467 76.7307 87.008 75.792C86.0693 74.8107 85.6427 73.6587 85.728 72.336C85.8133 71.0133 86.3467 69.9253 87.328 69.072C89.4187 67.1947 91.04 65.232 92.192 63.184C93.3867 61.0933 94.24 58.6187 94.752 55.76C95.264 52.8587 95.52 49.296 95.52 45.072C93.6427 45.2427 91.808 45.4347 90.016 45.648C88.2667 45.8187 86.688 46.0107 85.28 46.224C83.9573 46.3947 82.7627 46.1387 81.696 45.456C80.6293 44.7733 79.968 43.792 79.712 42.512C79.456 41.1893 79.6907 39.9947 80.416 38.928C81.1413 37.8187 82.1653 37.1787 83.488 37.008C85.024 36.7947 86.8373 36.6027 88.928 36.432C91.0613 36.2613 93.28 36.0907 95.584 35.92V27.92C95.584 26.5547 96.0107 25.424 96.864 24.528C97.76 23.5893 98.8693 23.12 100.192 23.12C101.515 23.12 102.624 23.5893 103.52 24.528C104.416 25.424 104.864 26.5547 104.864 27.92V35.408C107.509 35.28 109.749 35.216 111.584 35.216C112.949 35.216 114.059 35.7067 114.912 36.688C115.808 37.6693 116.213 38.8213 116.128 40.144C116.085 41.4667 115.573 42.5547 114.592 43.408C113.611 44.2187 112.459 44.6027 111.136 44.56C110.197 44.4747 109.195 44.432 108.128 44.432C107.104 44.432 106.016 44.4533 104.864 44.496C104.864 48.848 104.565 52.9227 103.968 56.72C103.413 60.5173 102.347 64.0373 100.768 67.28C99.232 70.48 96.928 73.4027 93.856 76.048ZM71.84 74.832C70.56 75.088 69.3867 74.8533 68.32 74.128C67.2533 73.4027 66.592 72.4 66.336 71.12C65.9093 69.1573 65.5467 66.7893 65.248 64.016C64.992 61.2427 64.8 58.256 64.672 55.056C64.5867 51.856 64.5867 48.6133 64.672 45.328C64.7573 42.0427 64.928 38.864 65.184 35.792C65.4827 32.72 65.9093 29.9467 66.464 27.472C66.72 26.192 67.3813 25.1893 68.448 24.464C69.5147 23.7387 70.7093 23.5253 72.032 23.824C73.312 24.08 74.2933 24.7627 74.976 25.872C75.6587 26.9813 75.8507 28.176 75.552 29.456C74.912 32.528 74.4427 35.856 74.144 39.44C73.8453 42.9813 73.696 46.5653 73.696 50.192C73.7387 53.8187 73.9093 57.2747 74.208 60.56C74.5067 63.8027 74.912 66.6827 75.424 69.2C75.7227 70.48 75.5093 71.6747 74.784 72.784C74.1013 73.8933 73.12 74.576 71.84 74.832ZM129.12 77.072C128.053 77.9253 126.837 78.288 125.472 78.16C124.149 78.032 123.061 77.4347 122.208 76.368C121.355 75.3013 120.992 74.0853 121.12 72.72C121.248 71.3547 121.845 70.2667 122.912 69.456C125.6 67.28 127.883 64.7413 129.76 61.84C131.637 58.9387 132.981 55.76 133.792 52.304C134.603 48.848 134.688 45.2427 134.048 41.488C133.877 40.1227 134.155 38.9067 134.88 37.84C135.605 36.7733 136.629 36.112 137.952 35.856C139.317 35.6 140.555 35.856 141.664 36.624C142.773 37.3493 143.413 38.3947 143.584 39.76C143.627 39.9733 143.648 40.1867 143.648 40.4C143.691 40.6133 143.733 40.8267 143.776 41.04C146.421 40.8693 148.512 40.6773 150.048 40.464C151.584 40.208 152.736 39.9307 153.504 39.632C154.315 39.2907 154.827 38.9493 155.04 38.608C155.296 38.224 155.424 37.84 155.424 37.456C155.424 36.7733 155.189 36.24 154.72 35.856C154.251 35.472 153.291 35.28 151.84 35.28H118.368C117.003 35.28 115.829 34.8107 114.848 33.872C113.867 32.9333 113.376 31.7813 113.376 30.416C113.376 29.0507 113.867 27.8987 114.848 26.96C115.829 26.0213 117.003 25.552 118.368 25.552H151.84C156.619 25.552 160.139 26.5333 162.4 28.496C164.661 30.4587 165.792 33.3387 165.792 37.136C165.792 39.7387 165.088 41.9573 163.68 43.792C162.315 45.6267 160.032 47.0773 156.832 48.144C153.632 49.2107 149.301 49.936 143.84 50.32C143.328 55.7813 141.792 60.752 139.232 65.232C136.715 69.712 133.344 73.6587 129.12 77.072ZM194.4 77.776C193.077 77.776 191.925 77.2853 190.944 76.304C189.963 75.3653 189.472 74.2133 189.472 72.848V49.232C186.997 51.408 184.437 53.4987 181.792 55.504C179.147 57.4667 176.501 59.3227 173.856 61.072C172.704 61.7973 171.467 61.9893 170.144 61.648C168.821 61.3067 167.797 60.56 167.072 59.408C166.389 58.2133 166.197 56.976 166.496 55.696C166.837 54.3733 167.584 53.3493 168.736 52.624C170.571 51.472 172.597 50.0427 174.816 48.336C177.077 46.6293 179.381 44.7947 181.728 42.832C184.075 40.8267 186.357 38.7787 188.576 36.688C190.837 34.5547 192.864 32.5067 194.656 30.544C196.491 28.5813 197.963 26.7893 199.072 25.168C199.883 24.0587 200.949 23.376 202.272 23.12C203.637 22.864 204.875 23.12 205.984 23.888C207.093 24.656 207.776 25.7227 208.032 27.088C208.331 28.4107 208.075 29.6267 207.264 30.736C206.112 32.2293 204.875 33.744 203.552 35.28C202.272 36.816 200.885 38.352 199.392 39.888V72.848C199.392 74.2133 198.901 75.3653 197.92 76.304C196.939 77.2853 195.765 77.776 194.4 77.776ZM222.688 73.488C221.493 74.0853 220.235 74.1707 218.912 73.744C217.632 73.2747 216.693 72.4213 216.096 71.184C215.499 69.9467 215.413 68.688 215.84 67.408C216.309 66.128 217.163 65.1893 218.4 64.592C224.331 61.7333 229.579 58.3413 234.144 54.416C238.709 50.4907 242.464 46.3093 245.408 41.872C246.389 40.4213 246.645 39.3547 246.176 38.672C245.749 37.9893 244.725 37.648 243.104 37.648H226.144C224.821 37.648 223.669 37.1573 222.688 36.176C221.707 35.1947 221.216 34.0427 221.216 32.72C221.216 31.3547 221.707 30.1813 222.688 29.2C223.669 28.2187 224.821 27.728 226.144 27.728H243.616C247.84 27.728 251.083 28.5173 253.344 30.096C255.648 31.632 256.885 33.7653 257.056 36.496C257.269 39.2267 256.352 42.3627 254.304 45.904C253.963 46.544 253.557 47.2053 253.088 47.888C252.661 48.528 252.213 49.1893 251.744 49.872C253.664 51.4507 255.584 53.1573 257.504 54.992C259.424 56.8267 261.237 58.5973 262.944 60.304C264.693 62.0107 266.187 63.504 267.424 64.784C268.363 65.7227 268.811 66.896 268.768 68.304C268.768 69.6693 268.277 70.8427 267.296 71.824C266.357 72.7627 265.184 73.232 263.776 73.232C262.368 73.1893 261.173 72.6987 260.192 71.76C259.04 70.5227 257.632 69.072 255.968 67.408C254.347 65.7013 252.619 63.952 250.784 62.16C248.992 60.3253 247.221 58.64 245.472 57.104C242.229 60.3467 238.603 63.4187 234.592 66.32C230.624 69.1787 226.656 71.568 222.688 73.488Z" fill="#003C57"/>
<path d="M264.346 59.2579C266.521 50.7325 272.26 43.5558 280.099 39.5596C283.334 37.9102 286.837 36.8498 290.445 36.4282L303.382 34.916C308.427 34.3263 313.533 34.5089 318.524 35.4575L323.182 36.343C328.602 37.3731 333.703 39.6644 338.073 43.0315L339.189 43.8917C340.873 45.1891 342.381 46.7009 343.673 48.3888C347.715 53.6683 349.428 60.3682 348.417 66.94L348.282 67.8207C348.077 69.154 347.974 70.5011 347.974 71.8502V81.8439C347.974 85.7489 347.507 89.6399 346.584 93.4342L345.55 97.6852C345.142 99.365 344.497 100.979 343.636 102.478C341.528 106.148 338.212 108.974 334.255 110.476L328.743 112.566C323.517 114.549 317.89 115.243 312.338 114.589L309.276 114.229C305.482 113.783 301.649 113.797 297.858 114.271L294.235 114.723C289.684 115.292 285.068 115.051 280.601 114.012C272.637 112.158 266.225 106.269 263.702 98.4904L263.073 96.5486C262.152 93.7109 261.517 90.7885 261.176 87.8248L260.991 86.2116C260.335 80.5072 260.667 74.7324 261.972 69.1406L263.546 62.394L264.346 59.2579Z" fill="#D5EDFA"/>
<path d="M323.694 48.3092C323.112 47.5732 322.408 46.9428 321.612 46.4456L309.6 38.938C307.569 37.6689 308.15 34.568 310.502 34.12C310.827 34.0581 311.161 34.058 311.486 34.1198L323.182 36.343C328.602 37.3731 333.703 39.6644 338.073 43.0315L339.189 43.8917C340.873 45.1891 342.381 46.7009 343.673 48.3888C347.715 53.6683 349.428 60.3682 348.417 66.94L348.282 67.8207C348.077 69.154 347.974 70.5011 347.974 71.8502V84.3316C347.974 86.1394 347.842 87.9448 347.58 89.7335L346.972 93.8747C346.412 97.6967 344.845 101.301 342.431 104.317C339.981 107.381 336.747 109.725 333.074 111.103L326.529 113.557L326.886 113.148C330.429 109.084 333 104.267 334.405 99.0612C334.893 97.251 335.141 95.3842 335.141 93.5092V77.591C335.141 69.4228 332.855 61.4029 328.555 54.4578L323.694 48.3092Z" fill="#C4E5F6"/>
<path d="M262.171 52.7387C265.227 44.0539 272.588 37.5893 281.595 35.6804L283.893 35.1934L298.909 32.9306C303.01 32.3126 307.172 32.2073 311.299 32.6171L323.033 33.7821C326.904 34.1665 330.666 35.2863 334.118 37.0815L335.369 37.7323C340.638 40.4727 344.833 44.9039 347.281 50.3146C348.522 53.0567 349.286 55.9901 349.541 58.9889L349.797 61.992C349.82 62.2596 349.823 62.5286 349.806 62.7966L349.609 65.8882C349.416 68.9245 345.905 70.5077 343.502 68.6417C339.383 65.6774 334.437 64.0826 329.362 64.0826H322.643C319.543 64.0826 316.604 62.7009 314.626 60.3134C310.946 55.8724 304.357 55.2684 299.932 58.9662L296.814 61.571C292.595 65.0959 286.47 65.1377 282.203 61.6706C279.69 59.6282 276.094 59.611 273.561 61.6294L267.092 66.7842C264.554 68.9216 260.675 67.1173 260.675 63.7991V58.1093C260.675 57.3689 260.801 56.6338 261.047 55.9354L262.171 52.7387Z" fill="#77CDF2"/>
<path d="M262.364 52.0938C265.301 43.8067 272.336 37.6428 280.937 35.8198L283.893 35.1934L298.909 32.9306C303.01 32.3126 307.172 32.2073 311.299 32.6171L323.196 33.7983C326.959 34.172 330.617 35.2606 333.972 37.0057C340.13 40.2088 344.973 45.4668 347.66 51.8673L348.818 54.6266L344.934 49.7298C342.835 47.0777 340.056 45.0438 336.893 43.8442L334.737 43.0264C332.873 42.3193 330.937 41.8202 328.963 41.5382L322.984 40.6841C319.503 40.1869 315.98 40.0582 312.473 40.3001L303.058 40.9493H295.198C290.594 40.9493 286.051 42.0093 281.922 44.047L275.197 47.3659L262.364 52.0938Z" fill="#86D5F8"/>
<path d="M265.289 59.579C266.137 59.8741 267.05 59.9332 267.929 59.75L274.045 58.4758C277.14 57.8312 280.337 57.8709 283.415 58.5921C287.422 59.5313 291.613 59.3106 295.5 57.9557L298.397 56.9458C304.508 54.8153 311.22 55.2462 317.009 58.1405C318.623 58.9473 320.322 59.5694 322.075 59.9949L336.829 63.576C341.747 64.0725 346.375 61.1681 348.066 56.5235L348.818 54.4578L349.766 61.8851C349.809 62.2236 349.82 62.5654 349.799 62.9059L349.609 65.8882C349.417 68.9245 345.905 70.5076 343.502 68.6416C339.383 65.6774 334.437 64.0825 329.362 64.0825H322.643C319.543 64.0825 316.604 62.7008 314.626 60.3134C310.946 55.8724 304.357 55.2683 299.932 58.9662L296.814 61.5709C292.595 65.0959 286.47 65.1376 282.203 61.6706C279.69 59.6282 276.094 59.611 273.561 61.6293L267.092 66.7842C264.475 69.0082 260.46 67.0961 260.537 63.663L260.655 58.4016C260.669 57.8017 260.767 57.2067 260.948 56.6345L261.689 54.2889L262.086 56.0102C262.469 57.6713 263.679 59.019 265.289 59.579Z" fill="#62C8F4"/>
<ellipse cx="281.951" cy="80.6304" rx="3.37711" ry="3.37711" fill="#003C57"/>
<ellipse cx="312.345" cy="80.6304" rx="3.37711" ry="3.37711" fill="#003C57"/>
<path d="M295.122 86.7092V86.7092C295.984 88.0024 297.827 88.1529 298.888 87.0166L299.174 86.7092" stroke="#003C57" stroke-width="2" stroke-linecap="round"/>
<path d="M276.739 39.0455C277.393 38.814 278.09 38.7332 278.78 38.8092L279.632 38.9031C280.598 39.0095 281.45 39.5829 281.913 40.4375C282.62 41.7434 282.252 43.3712 281.051 44.2453L278.662 45.9848L275.344 48.1314C274.571 48.632 273.616 48.7673 272.734 48.5013C270.957 47.9654 270.031 46.0118 270.741 44.2967L271.029 43.6025C271.208 43.1705 271.465 42.7751 271.787 42.4359L272.777 41.3925C273.663 40.4585 274.758 39.7474 275.971 39.3175L276.739 39.0455Z" fill="white"/>
<path d="M266.396 50.0759C266.698 49.9383 267.036 49.9006 267.36 49.9683C267.865 50.0736 268.286 50.4222 268.482 50.8992L268.987 52.1243C269.471 53.6667 268.326 55.2377 266.709 55.2481L266.138 55.2518C265.854 55.2536 265.573 55.1915 265.316 55.0701C264.494 54.6813 264.064 53.7631 264.291 52.8825L264.415 52.4052C264.483 52.1415 264.594 51.8907 264.744 51.6629L265.147 51.0486C265.394 50.6729 265.741 50.3746 266.15 50.1881L266.396 50.0759Z" fill="white"/>
<path d="M266.396 50.0759C266.698 49.9383 267.036 49.9006 267.36 49.9683C267.865 50.0736 268.286 50.4222 268.482 50.8992L268.987 52.1243C269.471 53.6667 268.326 55.2377 266.709 55.2481L266.138 55.2518C265.854 55.2536 265.573 55.1915 265.316 55.0701C264.494 54.6813 264.064 53.7631 264.291 52.8825L264.415 52.4052C264.483 52.1415 264.594 51.8907 264.744 51.6629L265.147 51.0486C265.394 50.6729 265.741 50.3746 266.15 50.1881L266.396 50.0759Z" fill="white"/>
<path d="M325.581 56.3166C326.134 56.5764 326.75 56.7116 327.38 56.7116C328.324 56.7116 329.224 57.0137 329.927 57.5666L330.535 58.0447C330.681 58.1599 330.804 58.2983 330.897 58.4539L331.031 58.6764C331.328 59.1698 331.213 59.8018 330.752 60.2085C330.574 60.3665 330.354 60.4792 330.117 60.5351L329.135 60.7665C328.382 60.944 327.603 60.9614 326.856 60.8174L326.384 60.7263C325.439 60.5439 324.553 60.1827 323.781 59.6651L322.979 59.1275C322.741 58.968 322.536 58.7705 322.374 58.5438L322.073 58.1225C321.78 57.7125 321.74 57.1834 321.967 56.7184C322.281 56.0731 323.033 55.6993 323.769 55.8224L324.585 55.9588C324.828 55.9995 325.062 56.0721 325.28 56.1746L325.581 56.3166Z" fill="white"/>
<path d="M320.043 53.3539C320.326 53.8717 320.439 54.4602 320.365 55.0348L320.304 55.5068C320.262 55.8282 320.109 56.122 319.871 56.3385C319.628 56.5594 319.311 56.6857 318.976 56.6952L318.453 56.71C318.189 56.7174 317.925 56.6887 317.668 56.6247L316.64 56.3691C316.309 56.2868 316.002 56.1233 315.748 55.8939L315.587 55.7485C315.203 55.4024 315.006 54.8992 315.057 54.3972C315.084 54.1353 315.178 53.8864 315.329 53.6736L315.743 53.0915C315.941 52.8127 316.195 52.5786 316.491 52.4035L316.991 52.107C317.942 51.5435 319.199 51.8827 319.771 52.8571L320.043 53.3539Z" fill="white"/>
<path d="M274.015 103.595L278.516 104.679C281.699 105.447 284.95 105.899 288.221 106.031L303.227 106.634L318.676 106.052C322.547 105.907 326.389 105.311 330.123 104.278L335.647 102.75L340.228 101.139C341.553 100.672 342.667 102.224 341.801 103.33C341.751 103.394 341.696 103.453 341.636 103.508L340.22 104.783C337.996 106.789 335.3 108.197 332.383 108.879L330.282 109.607C324.687 111.544 318.755 112.314 312.852 111.869L301.37 111.362L296.164 111.855C291.33 112.312 286.455 112.062 281.693 111.114L278.112 110.401L275.907 109.763C274.547 109.37 273.279 108.708 272.179 107.817L270.974 106.842C270.53 106.483 270.173 106.029 269.929 105.513C269.423 104.445 270.275 103.233 271.451 103.347L274.015 103.595Z" fill="#66BDEC" fill-opacity="0.2"/>
</svg>
