<svg width="334" height="89" viewBox="0 0 334 89" fill="none" xmlns="http://www.w3.org/2000/svg">
<path d="M35.664 56.88C24.2293 58.4587 15.568 57.7973 9.68001 54.896C3.79201 52.0373 0.848007 47.4293 0.848007 41.072C0.848007 37.3173 1.78667 34.0533 3.66401 31.28C5.54134 28.464 8.16534 26.0533 11.536 24.048C11.2373 22.4693 10.8107 20.6773 10.256 18.672C9.70134 16.624 9.12534 14.5973 8.52801 12.592C7.93067 10.544 7.39734 8.79466 6.92801 7.344C6.58667 6.10667 6.73601 4.912 7.37601 3.76C8.05867 2.56533 9.01867 1.79733 10.256 1.456C11.5787 1.11466 12.816 1.28533 13.968 1.968C15.1627 2.608 15.9307 3.54666 16.272 4.784C16.912 7.04533 17.552 9.54133 18.192 12.272C18.8747 14.96 19.472 17.5627 19.984 20.08C21.8613 19.3547 23.8667 18.6933 26 18.096C28.1333 17.4987 30.352 16.944 32.656 16.432C33.936 16.1333 35.1307 16.3253 36.24 17.008C37.3493 17.6907 38.0533 18.672 38.352 19.952C38.6507 21.232 38.4373 22.4267 37.712 23.536C37.0293 24.6027 36.048 25.264 34.768 25.52C29.52 26.5867 25.2533 27.76 21.968 29.04C18.7253 30.2773 16.2507 31.5573 14.544 32.88C12.8373 34.2027 11.664 35.5467 11.024 36.912C10.4267 38.2347 10.128 39.5573 10.128 40.88C10.128 42.2027 10.512 43.4187 11.28 44.528C12.048 45.6373 13.3493 46.5333 15.184 47.216C17.0187 47.8987 19.4933 48.2827 22.608 48.368C25.7653 48.4533 29.712 48.1333 34.448 47.408C35.7707 47.1947 36.944 47.5147 37.968 48.368C38.992 49.1787 39.5893 50.224 39.76 51.504C39.9733 52.8267 39.6747 54 38.864 55.024C38.0533 56.048 36.9867 56.6667 35.664 56.88ZM75.856 56.048C74.8747 56.9013 73.7227 57.3067 72.4 57.264C71.0773 57.2213 69.9467 56.7307 69.008 55.792C68.0693 54.8107 67.6427 53.6587 67.728 52.336C67.8133 51.0133 68.3467 49.9253 69.328 49.072C71.4187 47.1947 73.04 45.232 74.192 43.184C75.3867 41.0933 76.24 38.6187 76.752 35.76C77.264 32.8587 77.52 29.296 77.52 25.072C75.6427 25.2427 73.808 25.4347 72.016 25.648C70.2667 25.8187 68.688 26.0107 67.28 26.224C65.9573 26.3947 64.7627 26.1387 63.696 25.456C62.6293 24.7733 61.968 23.792 61.712 22.512C61.456 21.1893 61.6907 19.9947 62.416 18.928C63.1413 17.8187 64.1653 17.1787 65.488 17.008C67.024 16.7947 68.8373 16.6027 70.928 16.432C73.0613 16.2613 75.28 16.0907 77.584 15.92V7.92C77.584 6.55466 78.0107 5.424 78.864 4.528C79.76 3.58933 80.8693 3.12 82.192 3.12C83.5147 3.12 84.624 3.58933 85.52 4.528C86.416 5.424 86.864 6.55466 86.864 7.92V15.408C89.5093 15.28 91.7493 15.216 93.584 15.216C94.9493 15.216 96.0587 15.7067 96.912 16.688C97.808 17.6693 98.2133 18.8213 98.128 20.144C98.0853 21.4667 97.5733 22.5547 96.592 23.408C95.6107 24.2187 94.4587 24.6027 93.136 24.56C92.1973 24.4747 91.1947 24.432 90.128 24.432C89.104 24.432 88.016 24.4533 86.864 24.496C86.864 28.848 86.5653 32.9227 85.968 36.72C85.4133 40.5173 84.3467 44.0373 82.768 47.28C81.232 50.48 78.928 53.4027 75.856 56.048ZM53.84 54.832C52.56 55.088 51.3867 54.8533 50.32 54.128C49.2533 53.4027 48.592 52.4 48.336 51.12C47.9093 49.1573 47.5467 46.7893 47.248 44.016C46.992 41.2427 46.8 38.256 46.672 35.056C46.5867 31.856 46.5867 28.6133 46.672 25.328C46.7573 22.0427 46.928 18.864 47.184 15.792C47.4827 12.72 47.9093 9.94666 48.464 7.472C48.72 6.192 49.3813 5.18933 50.448 4.464C51.5147 3.73867 52.7093 3.52533 54.032 3.824C55.312 4.08 56.2933 4.76266 56.976 5.872C57.6587 6.98133 57.8507 8.176 57.552 9.456C56.912 12.528 56.4427 15.856 56.144 19.44C55.8453 22.9813 55.696 26.5653 55.696 30.192C55.7387 33.8187 55.9093 37.2747 56.208 40.56C56.5067 43.8027 56.912 46.6827 57.424 49.2C57.7227 50.48 57.5093 51.6747 56.784 52.784C56.1013 53.8933 55.12 54.576 53.84 54.832ZM111.12 57.072C110.053 57.9253 108.837 58.288 107.472 58.16C106.149 58.032 105.061 57.4347 104.208 56.368C103.355 55.3013 102.992 54.0853 103.12 52.72C103.248 51.3547 103.845 50.2667 104.912 49.456C107.6 47.28 109.883 44.7413 111.76 41.84C113.637 38.9387 114.981 35.76 115.792 32.304C116.603 28.848 116.688 25.2427 116.048 21.488C115.877 20.1227 116.155 18.9067 116.88 17.84C117.605 16.7733 118.629 16.112 119.952 15.856C121.317 15.6 122.555 15.856 123.664 16.624C124.773 17.3493 125.413 18.3947 125.584 19.76C125.627 19.9733 125.648 20.1867 125.648 20.4C125.691 20.6133 125.733 20.8267 125.776 21.04C128.421 20.8693 130.512 20.6773 132.048 20.464C133.584 20.208 134.736 19.9307 135.504 19.632C136.315 19.2907 136.827 18.9493 137.04 18.608C137.296 18.224 137.424 17.84 137.424 17.456C137.424 16.7733 137.189 16.24 136.72 15.856C136.251 15.472 135.291 15.28 133.84 15.28H100.368C99.0027 15.28 97.8293 14.8107 96.848 13.872C95.8667 12.9333 95.376 11.7813 95.376 10.416C95.376 9.05066 95.8667 7.89866 96.848 6.96C97.8293 6.02133 99.0027 5.552 100.368 5.552H133.84C138.619 5.552 142.139 6.53333 144.4 8.496C146.661 10.4587 147.792 13.3387 147.792 17.136C147.792 19.7387 147.088 21.9573 145.68 23.792C144.315 25.6267 142.032 27.0773 138.832 28.144C135.632 29.2107 131.301 29.936 125.84 30.32C125.328 35.7813 123.792 40.752 121.232 45.232C118.715 49.712 115.344 53.6587 111.12 57.072ZM176.4 57.776C175.077 57.776 173.925 57.2853 172.944 56.304C171.963 55.3653 171.472 54.2133 171.472 52.848V29.232C168.997 31.408 166.437 33.4987 163.792 35.504C161.147 37.4667 158.501 39.3227 155.856 41.072C154.704 41.7973 153.467 41.9893 152.144 41.648C150.821 41.3067 149.797 40.56 149.072 39.408C148.389 38.2133 148.197 36.976 148.496 35.696C148.837 34.3733 149.584 33.3493 150.736 32.624C152.571 31.472 154.597 30.0427 156.816 28.336C159.077 26.6293 161.381 24.7947 163.728 22.832C166.075 20.8267 168.357 18.7787 170.576 16.688C172.837 14.5547 174.864 12.5067 176.656 10.544C178.491 8.58133 179.963 6.78933 181.072 5.168C181.883 4.05866 182.949 3.376 184.272 3.12C185.637 2.864 186.875 3.12 187.984 3.888C189.093 4.656 189.776 5.72266 190.032 7.088C190.331 8.41066 190.075 9.62666 189.264 10.736C188.112 12.2293 186.875 13.744 185.552 15.28C184.272 16.816 182.885 18.352 181.392 19.888V52.848C181.392 54.2133 180.901 55.3653 179.92 56.304C178.939 57.2853 177.765 57.776 176.4 57.776ZM204.688 53.488C203.493 54.0853 202.235 54.1707 200.912 53.744C199.632 53.2747 198.693 52.4213 198.096 51.184C197.499 49.9467 197.413 48.688 197.84 47.408C198.309 46.128 199.163 45.1893 200.4 44.592C206.331 41.7333 211.579 38.3413 216.144 34.416C220.709 30.4907 224.464 26.3093 227.408 21.872C228.389 20.4213 228.645 19.3547 228.176 18.672C227.749 17.9893 226.725 17.648 225.104 17.648H208.144C206.821 17.648 205.669 17.1573 204.688 16.176C203.707 15.1947 203.216 14.0427 203.216 12.72C203.216 11.3547 203.707 10.1813 204.688 9.2C205.669 8.21866 206.821 7.728 208.144 7.728H225.616C229.84 7.728 233.083 8.51733 235.344 10.096C237.648 11.632 238.885 13.7653 239.056 16.496C239.269 19.2267 238.352 22.3627 236.304 25.904C235.963 26.544 235.557 27.2053 235.088 27.888C234.661 28.528 234.213 29.1893 233.744 29.872C235.664 31.4507 237.584 33.1573 239.504 34.992C241.424 36.8267 243.237 38.5973 244.944 40.304C246.693 42.0107 248.187 43.504 249.424 44.784C250.363 45.7227 250.811 46.896 250.768 48.304C250.768 49.6693 250.277 50.8427 249.296 51.824C248.357 52.7627 247.184 53.232 245.776 53.232C244.368 53.1893 243.173 52.6987 242.192 51.76C241.04 50.5227 239.632 49.072 237.968 47.408C236.347 45.7013 234.619 43.952 232.784 42.16C230.992 40.3253 229.221 38.64 227.472 37.104C224.229 40.3467 220.603 43.4187 216.592 46.32C212.624 49.1787 208.656 51.568 204.688 53.488Z" fill="#003C57"/>
<path d="M251.346 32.2579C253.521 23.7325 259.26 16.5558 267.099 12.5596C270.334 10.9102 273.837 9.84982 277.445 9.42821L290.382 7.91602C295.427 7.3263 300.533 7.50888 305.524 8.45746L310.182 9.34296C315.602 10.3732 320.703 12.6644 325.073 16.0315L326.189 16.8917C327.873 18.1891 329.381 19.7009 330.673 21.3888C334.715 26.6683 336.428 33.3682 335.417 39.94L335.282 40.8207C335.077 42.154 334.974 43.5011 334.974 44.8502V54.8439C334.974 58.7489 334.507 62.6399 333.584 66.4342L332.55 70.6852C332.142 72.365 331.497 73.9785 330.636 75.4776C328.528 79.148 325.212 81.9743 321.255 83.4755L315.743 85.5661C310.517 87.5485 304.89 88.2425 299.338 87.5894L296.276 87.2292C292.482 86.7829 288.649 86.7967 284.858 87.2705L281.235 87.7234C276.684 88.2923 272.068 88.0513 267.601 87.0116C259.637 85.1578 253.225 79.2687 250.702 71.4904L250.073 69.5486C249.152 66.7109 248.517 63.7885 248.176 60.8248L247.991 59.2116C247.335 53.5072 247.667 47.7324 248.972 42.1406L250.546 35.394L251.346 32.2579Z" fill="#D5EDFA"/>
<path d="M310.694 21.3092C310.112 20.5732 309.408 19.9428 308.612 19.4456L296.6 11.938C294.569 10.6689 295.15 7.56801 297.502 7.11999C297.827 7.05807 298.161 7.05801 298.486 7.11981L310.182 9.34296C315.602 10.3732 320.703 12.6644 325.073 16.0315L326.189 16.8917C327.873 18.1891 329.381 19.7009 330.673 21.3888C334.715 26.6683 336.428 33.3682 335.417 39.94L335.282 40.8207C335.077 42.154 334.974 43.5011 334.974 44.8502V57.3316C334.974 59.1394 334.842 60.9448 334.58 62.7335L333.972 66.8747C333.412 70.6967 331.845 74.3008 329.431 77.3173C326.981 80.3809 323.747 82.7254 320.074 84.1029L313.529 86.5572L313.886 86.148C317.429 82.084 320 77.2666 321.405 72.0612C321.893 70.251 322.141 68.3842 322.141 66.5092V50.591C322.141 42.4228 319.855 34.4029 315.555 27.4578L310.694 21.3092Z" fill="#C4E5F6"/>
<path d="M249.171 25.7387C252.227 17.0539 259.588 10.5893 268.595 8.68041L270.893 8.19337L285.909 5.93061C290.01 5.3126 294.172 5.20728 298.299 5.61708L310.033 6.7821C313.904 7.16648 317.666 8.28632 321.118 10.0815L322.369 10.7323C327.638 13.4727 331.833 17.9039 334.281 23.3146C335.522 26.0567 336.286 28.9901 336.541 31.9889L336.797 34.992C336.82 35.2596 336.823 35.5286 336.806 35.7966L336.609 38.8882C336.417 41.9245 332.905 43.5077 330.502 41.6417C326.383 38.6774 321.437 37.0826 316.362 37.0826H309.643C306.543 37.0826 303.604 35.7009 301.626 33.3134C297.946 28.8724 291.357 28.2684 286.932 31.9662L283.814 34.571C279.595 38.0959 273.47 38.1377 269.203 34.6706C266.69 32.6282 263.094 32.611 260.561 34.6294L254.092 39.7842C251.554 41.9216 247.675 40.1173 247.675 36.7991V31.1093C247.675 30.3689 247.801 29.6338 248.047 28.9354L249.171 25.7387Z" fill="#77CDF2"/>
<path d="M249.364 25.0938C252.301 16.8067 259.336 10.6428 267.937 8.81978L270.893 8.19337L285.909 5.93061C290.01 5.3126 294.172 5.20728 298.299 5.61708L310.196 6.79833C313.959 7.17199 317.617 8.26059 320.972 10.0057C327.13 13.2088 331.973 18.4668 334.66 24.8673L335.818 27.6266L331.934 22.7298C329.835 20.0777 327.056 18.0438 323.893 16.8442L321.737 16.0264C319.873 15.3193 317.937 14.8202 315.963 14.5382L309.984 13.6841C306.503 13.1869 302.98 13.0582 299.473 13.3001L290.058 13.9493H282.198C277.594 13.9493 273.051 15.0093 268.922 17.047L262.197 20.3659L249.364 25.0938Z" fill="#86D5F8"/>
<path d="M252.289 32.579C253.137 32.8741 254.05 32.9332 254.929 32.75L261.045 31.4758C264.14 30.8312 267.337 30.8709 270.415 31.5921C274.422 32.5313 278.613 32.3106 282.5 30.9557L285.397 29.9458C291.508 27.8153 298.22 28.2462 304.009 31.1405C305.623 31.9473 307.322 32.5694 309.075 32.9949L323.829 36.576C328.747 37.0725 333.375 34.1681 335.066 29.5235L335.818 27.4578L336.766 34.8851C336.809 35.2236 336.82 35.5654 336.799 35.9059L336.609 38.8882C336.417 41.9245 332.905 43.5076 330.502 41.6416C326.383 38.6774 321.437 37.0825 316.362 37.0825H309.643C306.543 37.0825 303.604 35.7008 301.626 33.3134C297.946 28.8724 291.357 28.2683 286.932 31.9662L283.814 34.5709C279.595 38.0959 273.47 38.1376 269.203 34.6706C266.69 32.6282 263.094 32.611 260.561 34.6293L254.092 39.7842C251.476 42.0082 247.46 40.0961 247.537 36.663L247.655 31.4016C247.669 30.8017 247.767 30.2067 247.948 29.6345L248.689 27.2889L249.086 29.0102C249.469 30.6713 250.679 32.019 252.289 32.579Z" fill="#62C8F4"/>
<ellipse cx="268.951" cy="53.6304" rx="3.37711" ry="3.37711" fill="#003C57"/>
<ellipse cx="299.345" cy="53.6304" rx="3.37711" ry="3.37711" fill="#003C57"/>
<path d="M282.122 59.7092V59.7092C282.984 61.0024 284.827 61.1529 285.888 60.0166L286.174 59.7092" stroke="#003C57" stroke-width="2" stroke-linecap="round"/>
<path d="M263.739 12.0455C264.393 11.814 265.09 11.7332 265.779 11.8092L266.632 11.9031C267.598 12.0095 268.45 12.5829 268.913 13.4375C269.62 14.7434 269.252 16.3712 268.051 17.2453L265.662 18.9848L262.344 21.1314C261.571 21.632 260.616 21.7673 259.734 21.5013C257.957 20.9654 257.031 19.0118 257.741 17.2967L258.029 16.6025C258.208 16.1705 258.465 15.7751 258.787 15.4359L259.777 14.3925C260.663 13.4585 261.758 12.7474 262.971 12.3175L263.739 12.0455Z" fill="white"/>
<path d="M253.396 23.0759C253.698 22.9383 254.036 22.9006 254.36 22.9683C254.865 23.0736 255.286 23.4222 255.482 23.8992L255.987 25.1243C256.471 26.6667 255.326 28.2376 253.709 28.2481L253.138 28.2518C252.854 28.2536 252.573 28.1915 252.316 28.0701C251.494 27.6813 251.064 26.7631 251.292 25.8825L251.415 25.4052C251.483 25.1415 251.594 24.8907 251.744 24.6629L252.147 24.0485C252.394 23.6729 252.741 23.3746 253.15 23.1881L253.396 23.0759Z" fill="white"/>
<path d="M253.396 23.0759C253.698 22.9383 254.036 22.9006 254.36 22.9683C254.865 23.0736 255.286 23.4222 255.482 23.8992L255.987 25.1243C256.471 26.6667 255.326 28.2376 253.709 28.2481L253.138 28.2518C252.854 28.2536 252.573 28.1915 252.316 28.0701C251.494 27.6813 251.064 26.7631 251.292 25.8825L251.415 25.4052C251.483 25.1415 251.594 24.8907 251.744 24.6629L252.147 24.0485C252.394 23.6729 252.741 23.3746 253.15 23.1881L253.396 23.0759Z" fill="white"/>
<path d="M312.581 29.3166C313.134 29.5764 313.75 29.7116 314.38 29.7116C315.324 29.7116 316.224 30.0137 316.927 30.5665L317.535 31.0447C317.681 31.1598 317.804 31.2982 317.897 31.4539L318.031 31.6764C318.328 32.1698 318.213 32.8018 317.752 33.2085C317.574 33.3665 317.354 33.4792 317.117 33.5351L316.135 33.7664C315.382 33.944 314.603 33.9614 313.856 33.8174L313.384 33.7263C312.439 33.5439 311.553 33.1827 310.781 32.6651L309.979 32.1275C309.741 31.968 309.536 31.7705 309.374 31.5437L309.073 31.1225C308.78 30.7125 308.74 30.1834 308.967 29.7183C309.281 29.073 310.033 28.6993 310.769 28.8224L311.585 28.9588C311.828 28.9995 312.062 29.0721 312.28 29.1746L312.581 29.3166Z" fill="white"/>
<path d="M307.043 26.3539C307.326 26.8717 307.439 27.4602 307.365 28.0348L307.304 28.5068C307.262 28.8282 307.109 29.122 306.871 29.3385C306.628 29.5594 306.311 29.6857 305.976 29.6952L305.453 29.71C305.189 29.7174 304.925 29.6887 304.668 29.6247L303.64 29.3691C303.309 29.2868 303.002 29.1233 302.748 28.8939L302.587 28.7485C302.203 28.4024 302.006 27.8992 302.057 27.3972C302.084 27.1353 302.178 26.8864 302.329 26.6736L302.743 26.0915C302.941 25.8127 303.195 25.5787 303.491 25.4035L303.991 25.107C304.942 24.5435 306.199 24.8827 306.771 25.8571L307.043 26.3539Z" fill="white"/>
<path d="M261.015 76.5948L265.516 77.6795C268.699 78.4465 271.95 78.8991 275.221 79.0307L290.227 79.6342L305.676 79.0523C309.547 78.9065 313.389 78.3112 317.123 77.2784L322.647 75.7505L327.228 74.1386C328.553 73.6725 329.667 75.2239 328.801 76.3299C328.751 76.3938 328.696 76.4532 328.636 76.5075L327.22 77.7832C324.996 79.7885 322.3 81.1975 319.383 81.8786L317.282 82.6066C311.687 84.5443 305.755 85.3142 299.852 84.8687L288.37 84.3621L283.164 84.8545C278.33 85.3118 273.455 85.0624 268.693 84.1143L265.112 83.4014L262.907 82.7632C261.547 82.3697 260.279 81.7081 259.179 80.8174L257.974 79.8418C257.53 79.4828 257.173 79.0288 256.929 78.5132C256.423 77.445 257.275 76.2328 258.451 76.3467L261.015 76.5948Z" fill="#66BDEC" fill-opacity="0.2"/>
</svg>
