<svg width="72" height="50" viewBox="0 0 72 50" fill="none" xmlns="http://www.w3.org/2000/svg">
<circle cx="42.5" cy="7.5" r="42.5" fill="#FFFB9E"/>
<path d="M22.8231 23.46C22.4098 23.5133 22.0431 23.4133 21.7231 23.16C21.4031 22.9067 21.2098 22.58 21.1431 22.18C21.0098 21.06 20.7698 19.8067 20.4231 18.42C20.0898 17.0333 19.6898 15.6733 19.2231 14.34C18.5964 14.5533 17.9964 14.7667 17.4231 14.98C16.8631 15.1933 16.3498 15.3867 15.8831 15.56C15.4964 15.6933 15.1164 15.6733 14.7431 15.5C14.3698 15.3133 14.1164 15.0267 13.9831 14.64C13.8498 14.2533 13.8698 13.8733 14.0431 13.5C14.2298 13.1267 14.5098 12.8733 14.8831 12.74C15.3764 12.5667 15.9031 12.3867 16.4631 12.2C17.0231 12 17.6031 11.8 18.2031 11.6C17.9898 11.0933 17.7764 10.6133 17.5631 10.16C17.3631 9.69333 17.1498 9.27333 16.9231 8.9C16.7231 8.54 16.6831 8.16667 16.8031 7.78C16.9231 7.38 17.1631 7.08 17.5231 6.88C17.8831 6.68 18.2631 6.64 18.6631 6.76C19.0631 6.86667 19.3564 7.1 19.5431 7.46C19.7964 7.94 20.0431 8.45333 20.2831 9C20.5364 9.54667 20.7764 10.1133 21.0031 10.7C21.4031 10.5667 21.8031 10.44 22.2031 10.32C22.6031 10.2 22.9898 10.0867 23.3631 9.98C23.1498 9.84667 22.9764 9.68667 22.8431 9.5L21.8431 7.98C21.6164 7.63333 21.5431 7.26 21.6231 6.86C21.7164 6.46 21.9298 6.14667 22.2631 5.92C22.6098 5.69333 22.9831 5.62 23.3831 5.7C23.7964 5.78 24.1098 5.99333 24.3231 6.34L25.3231 7.86C25.4831 8.1 25.5631 8.36 25.5631 8.64C25.5764 8.92 25.5164 9.18 25.3831 9.42L25.4231 9.4C26.7298 9.05333 27.8831 8.95333 28.8831 9.1C29.8964 9.23333 30.7098 9.60667 31.3231 10.22C31.9364 10.8333 32.3031 11.68 32.4231 12.76C32.5298 13.6667 32.4431 14.48 32.1631 15.2C31.8831 15.9067 31.4564 16.4933 30.8831 16.96C30.3098 17.4267 29.6431 17.7467 28.8831 17.92C28.1231 18.0933 27.3164 18.0933 26.4631 17.92C25.6098 17.7467 24.7631 17.38 23.9231 16.82C23.5764 16.5933 23.3564 16.28 23.2631 15.88C23.1698 15.48 23.2298 15.1133 23.4431 14.78C23.6564 14.4333 23.9631 14.2067 24.3631 14.1C24.7764 13.98 25.1498 14.0467 25.4831 14.3C26.0031 14.6733 26.5098 14.9067 27.0031 15C27.4964 15.0933 27.9364 15.0733 28.3231 14.94C28.7231 14.7933 29.0164 14.56 29.2031 14.24C29.4031 13.9067 29.4631 13.5133 29.3831 13.06C29.3298 12.7667 29.1898 12.52 28.9631 12.32C28.7498 12.1067 28.4164 11.9733 27.9631 11.92C27.5098 11.8667 26.8898 11.94 26.1031 12.14C25.5298 12.2733 24.8831 12.4533 24.1631 12.68C23.4564 12.8933 22.7298 13.1267 21.9831 13.38C22.3298 14.3933 22.6431 15.4133 22.9231 16.44C23.2164 17.4533 23.4631 18.42 23.6631 19.34C23.8764 20.2467 24.0231 21.06 24.1031 21.78C24.1564 22.1933 24.0564 22.56 23.8031 22.88C23.5631 23.2 23.2364 23.3933 22.8231 23.46ZM43.7431 22.56C43.3298 22.5867 42.9698 22.4667 42.6631 22.2C42.3564 21.9333 42.1831 21.5933 42.1431 21.18C42.1164 20.7667 42.2364 20.4067 42.5031 20.1C42.7698 19.78 43.1098 19.6067 43.5231 19.58C44.9098 19.4867 45.9764 19.1133 46.7231 18.46C47.4698 17.8067 47.8431 16.8933 47.8431 15.72C47.8431 15.0133 47.6164 14.3733 47.1631 13.8C46.7231 13.2133 46.1098 12.7733 45.3231 12.48C45.0698 13.16 44.7898 13.8067 44.4831 14.42C44.1898 15.0333 43.8698 15.6133 43.5231 16.16C43.6031 16.2133 43.6831 16.2733 43.7631 16.34C43.8431 16.3933 43.9164 16.4533 43.9831 16.52C44.3298 16.7467 44.5364 17.06 44.6031 17.46C44.6831 17.86 44.6031 18.2333 44.3631 18.58C44.1364 18.9133 43.8231 19.12 43.4231 19.2C43.0231 19.2667 42.6498 19.1867 42.3031 18.96C42.2098 18.8933 42.1098 18.82 42.0031 18.74C41.8964 18.66 41.7898 18.58 41.6831 18.5C41.2964 18.8733 40.8964 19.22 40.4831 19.54C40.0698 19.86 39.6364 20.1467 39.1831 20.4C38.5298 20.7733 37.8764 20.98 37.2231 21.02C36.5698 21.06 35.9764 20.9467 35.4431 20.68C34.9098 20.4133 34.4831 20.0067 34.1631 19.46C33.8431 18.9133 33.6831 18.2333 33.6831 17.42C33.6831 16.2467 33.9231 15.1867 34.4031 14.24C34.8964 13.2933 35.5364 12.4733 36.3231 11.78C36.0831 11.34 35.8631 10.9067 35.6631 10.48C35.4631 10.04 35.2898 9.62667 35.1431 9.24C35.0098 8.85333 35.0298 8.47333 35.2031 8.1C35.3898 7.72667 35.6764 7.47333 36.0631 7.34C36.4498 7.19333 36.8231 7.21333 37.1831 7.4C37.5564 7.57333 37.8098 7.85333 37.9431 8.24C38.0631 8.56 38.1964 8.88667 38.3431 9.22C38.4898 9.55333 38.6498 9.89333 38.8231 10.24C39.4898 9.94667 40.1764 9.72667 40.8831 9.58C41.6031 9.42 42.3231 9.34 43.0431 9.34H43.1831C43.2498 9.03333 43.3164 8.72 43.3831 8.4C43.4631 8.06667 43.5298 7.73333 43.5831 7.4C43.6498 6.98667 43.8498 6.66 44.1831 6.42C44.5164 6.18 44.8831 6.09333 45.2831 6.16C45.6964 6.22667 46.0164 6.43333 46.2431 6.78C46.4831 7.11333 46.5698 7.48 46.5031 7.88C46.4498 8.21333 46.3898 8.54 46.3231 8.86C46.2698 9.16667 46.2031 9.47333 46.1231 9.78C47.5898 10.2333 48.7298 10.9867 49.5431 12.04C50.3564 13.08 50.7631 14.3067 50.7631 15.72C50.7631 17.0133 50.4831 18.1533 49.9231 19.14C49.3764 20.1267 48.5831 20.9133 47.5431 21.5C46.5031 22.0867 45.2364 22.44 43.7431 22.56ZM37.8431 17.88C38.1764 17.7067 38.4898 17.5067 38.7831 17.28C39.0898 17.04 39.3831 16.78 39.6631 16.5C39.3431 16.1533 39.0298 15.7867 38.7231 15.4C38.4298 15 38.1364 14.6 37.8431 14.2C37.0164 15.1067 36.6031 16.1133 36.6031 17.22C36.6031 17.5933 36.7164 17.8467 36.9431 17.98C37.1698 18.1133 37.4698 18.08 37.8431 17.88ZM41.4231 14.1C41.5831 13.7933 41.7431 13.4733 41.9031 13.14C42.0631 12.8067 42.2098 12.46 42.3431 12.1C41.9698 12.1267 41.6031 12.1867 41.2431 12.28C40.8831 12.36 40.5498 12.46 40.2431 12.58C40.6164 13.1267 41.0098 13.6333 41.4231 14.1ZM61.0631 23.24C60.2364 23.2 59.5098 23.0267 58.8831 22.72C58.2698 22.4267 57.7964 22.0133 57.4631 21.48C57.1298 20.9467 56.9831 20.3267 57.0231 19.62C57.0631 19.02 57.2431 18.4933 57.5631 18.04C57.8831 17.5867 58.3164 17.24 58.8631 17C59.4231 16.7467 60.0564 16.6533 60.7631 16.72C61.8698 16.8 62.6698 17.14 63.1631 17.74C63.6564 18.34 63.8431 19.0667 63.7231 19.92C64.0964 19.6667 64.3631 19.3467 64.5231 18.96C64.6964 18.56 64.7831 18.1067 64.7831 17.6C64.7831 17.1867 64.6498 16.78 64.3831 16.38C64.1298 15.98 63.7631 15.6533 63.2831 15.4C62.8164 15.1333 62.2564 15 61.6031 15C60.9631 14.9867 60.2564 15.1667 59.4831 15.54C58.7098 15.9133 57.8898 16.54 57.0231 17.42C56.7164 17.74 56.3231 17.9067 55.8431 17.92C55.3764 17.92 54.9964 17.7467 54.7031 17.4C54.4498 17.0933 54.3298 16.74 54.3431 16.34C54.3698 15.9267 54.5431 15.6 54.8631 15.36C55.6631 14.76 56.4764 14.1133 57.3031 13.42C58.1298 12.7267 58.9164 12.0467 59.6631 11.38C60.4098 10.7 61.0631 10.0867 61.6231 9.54C61.8364 9.34 61.9098 9.15333 61.8431 8.98C61.7764 8.80667 61.5698 8.74667 61.2231 8.8C60.7564 8.86667 60.2764 8.93333 59.7831 9C59.2898 9.06667 58.7898 9.13333 58.2831 9.2C57.8831 9.25333 57.5164 9.16 57.1831 8.92C56.8631 8.66667 56.6698 8.33333 56.6031 7.92C56.5498 7.52 56.6431 7.16 56.8831 6.84C57.1364 6.50667 57.4698 6.31333 57.8831 6.26C58.2164 6.20667 58.6164 6.16 59.0831 6.12C59.5631 6.08 60.0431 6.04 60.5231 6C61.0031 5.96 61.4098 5.93333 61.7431 5.92C62.6364 5.85333 63.3698 5.98667 63.9431 6.32C64.5164 6.64 64.9098 7.07333 65.1231 7.62C65.3364 8.16667 65.3564 8.75333 65.1831 9.38C65.0231 10.0067 64.6431 10.5933 64.0431 11.14C63.8698 11.3133 63.6298 11.5333 63.3231 11.8C63.0298 12.0667 62.6964 12.36 62.3231 12.68C63.2964 12.6533 64.1898 12.8333 65.0031 13.22C65.8298 13.5933 66.4964 14.16 67.0031 14.92C67.5098 15.6667 67.7631 16.5933 67.7631 17.7C67.7631 18.9667 67.4764 20.0267 66.9031 20.88C66.3298 21.72 65.5364 22.34 64.5231 22.74C63.5231 23.14 62.3698 23.3067 61.0631 23.24ZM60.5431 20.5C60.7164 20.5133 60.9631 20.5133 61.2831 20.5C61.4431 20.18 61.4764 19.8933 61.3831 19.64C61.2898 19.3733 61.0698 19.2133 60.7231 19.16C60.4564 19.1067 60.2298 19.1333 60.0431 19.24C59.8564 19.3467 59.7498 19.5 59.7231 19.7C59.6964 19.94 59.7564 20.12 59.9031 20.24C60.0631 20.36 60.2764 20.4467 60.5431 20.5Z" fill="#142540"/>
</svg>
