<svg width="103" height="81" viewBox="0 0 103 81" fill="none" xmlns="http://www.w3.org/2000/svg">
<circle cx="72.6969" cy="8.5" r="42.5" fill="#FF6F50"/>
<path d="M77.3863 77.8311C75.4063 80.8339 70.9986 80.8266 69.0286 77.8172L60.996 65.5462C58.8171 62.2177 61.2095 57.8011 65.1877 57.8078L81.2938 57.8346C85.272 57.8412 87.6497 62.2657 85.4597 65.587L77.3863 77.8311Z" fill="#FF6F50"/>
<path d="M25.9638 59.5662C22.3963 60.025 19.526 56.6799 20.5213 53.2235L24.5795 39.1299C25.6803 35.307 30.5882 34.2383 33.1788 37.2574L43.6671 49.4804C46.2577 52.4995 44.456 57.1882 40.5103 57.6956L25.9638 59.5662Z" fill="#FF6F50"/>
<path d="M2.80127 14.3991C-0.240404 12.4794 -0.320926 8.07239 2.64859 6.04284L14.757 -2.23277C18.0414 -4.47754 22.5048 -2.17371 22.5775 1.80387L22.8717 17.9073C22.9444 21.8849 18.5681 24.3502 15.2039 22.2269L2.80127 14.3991Z" fill="#FF6F50"/>
<path d="M118.466 61.6768C118.553 65.2726 114.93 67.7819 111.595 66.4349L97.9957 60.9422C94.307 59.4523 93.7512 54.4602 97.0218 52.1954L110.263 43.0262C113.534 40.7614 118.011 43.0379 118.108 47.0149L118.466 61.6768Z" fill="#FF6F50"/>
<path d="M53.02 24.46C52.6067 24.5133 52.24 24.4133 51.92 24.16C51.6 23.9067 51.4067 23.58 51.34 23.18C51.2067 22.06 50.9667 20.8067 50.62 19.42C50.2867 18.0333 49.8867 16.6733 49.42 15.34C48.7933 15.5533 48.1933 15.7667 47.62 15.98C47.06 16.1933 46.5467 16.3867 46.08 16.56C45.6933 16.6933 45.3133 16.6733 44.94 16.5C44.5667 16.3133 44.3133 16.0267 44.18 15.64C44.0467 15.2533 44.0667 14.8733 44.24 14.5C44.4267 14.1267 44.7067 13.8733 45.08 13.74C45.5733 13.5667 46.1 13.3867 46.66 13.2C47.22 13 47.8 12.8 48.4 12.6C48.1867 12.0933 47.9733 11.6133 47.76 11.16C47.56 10.6933 47.3467 10.2733 47.12 9.9C46.92 9.54 46.88 9.16667 47 8.78C47.12 8.38 47.36 8.08 47.72 7.88C48.08 7.68 48.46 7.64 48.86 7.76C49.26 7.86667 49.5533 8.1 49.74 8.46C49.9933 8.94 50.24 9.45333 50.48 10C50.7333 10.5467 50.9733 11.1133 51.2 11.7C51.6 11.5667 52 11.44 52.4 11.32C52.8 11.2 53.1867 11.0867 53.56 10.98C53.3467 10.8467 53.1733 10.6867 53.04 10.5L52.04 8.98C51.8133 8.63333 51.74 8.26 51.82 7.86C51.9133 7.46 52.1267 7.14667 52.46 6.92C52.8067 6.69333 53.18 6.62 53.58 6.7C53.9933 6.78 54.3067 6.99333 54.52 7.34L55.52 8.86C55.68 9.1 55.76 9.36 55.76 9.64C55.7733 9.92 55.7133 10.18 55.58 10.42L55.62 10.4C56.9267 10.0533 58.08 9.95333 59.08 10.1C60.0933 10.2333 60.9067 10.6067 61.52 11.22C62.1333 11.8333 62.5 12.68 62.62 13.76C62.7267 14.6667 62.64 15.48 62.36 16.2C62.08 16.9067 61.6533 17.4933 61.08 17.96C60.5067 18.4267 59.84 18.7467 59.08 18.92C58.32 19.0933 57.5133 19.0933 56.66 18.92C55.8067 18.7467 54.96 18.38 54.12 17.82C53.7733 17.5933 53.5533 17.28 53.46 16.88C53.3667 16.48 53.4267 16.1133 53.64 15.78C53.8533 15.4333 54.16 15.2067 54.56 15.1C54.9733 14.98 55.3467 15.0467 55.68 15.3C56.2 15.6733 56.7067 15.9067 57.2 16C57.6933 16.0933 58.1333 16.0733 58.52 15.94C58.92 15.7933 59.2133 15.56 59.4 15.24C59.6 14.9067 59.66 14.5133 59.58 14.06C59.5267 13.7667 59.3867 13.52 59.16 13.32C58.9467 13.1067 58.6133 12.9733 58.16 12.92C57.7067 12.8667 57.0867 12.94 56.3 13.14C55.7267 13.2733 55.08 13.4533 54.36 13.68C53.6533 13.8933 52.9267 14.1267 52.18 14.38C52.5267 15.3933 52.84 16.4133 53.12 17.44C53.4133 18.4533 53.66 19.42 53.86 20.34C54.0733 21.2467 54.22 22.06 54.3 22.78C54.3533 23.1933 54.2533 23.56 54 23.88C53.76 24.2 53.4333 24.3933 53.02 24.46ZM73.94 23.56C73.5267 23.5867 73.1667 23.4667 72.86 23.2C72.5533 22.9333 72.38 22.5933 72.34 22.18C72.3133 21.7667 72.4333 21.4067 72.7 21.1C72.9667 20.78 73.3067 20.6067 73.72 20.58C75.1067 20.4867 76.1733 20.1133 76.92 19.46C77.6667 18.8067 78.04 17.8933 78.04 16.72C78.04 16.0133 77.8133 15.3733 77.36 14.8C76.92 14.2133 76.3067 13.7733 75.52 13.48C75.2667 14.16 74.9867 14.8067 74.68 15.42C74.3867 16.0333 74.0667 16.6133 73.72 17.16C73.8 17.2133 73.88 17.2733 73.96 17.34C74.04 17.3933 74.1133 17.4533 74.18 17.52C74.5267 17.7467 74.7333 18.06 74.8 18.46C74.88 18.86 74.8 19.2333 74.56 19.58C74.3333 19.9133 74.02 20.12 73.62 20.2C73.22 20.2667 72.8467 20.1867 72.5 19.96C72.4067 19.8933 72.3067 19.82 72.2 19.74C72.0933 19.66 71.9867 19.58 71.88 19.5C71.4933 19.8733 71.0933 20.22 70.68 20.54C70.2667 20.86 69.8333 21.1467 69.38 21.4C68.7267 21.7733 68.0733 21.98 67.42 22.02C66.7667 22.06 66.1733 21.9467 65.64 21.68C65.1067 21.4133 64.68 21.0067 64.36 20.46C64.04 19.9133 63.88 19.2333 63.88 18.42C63.88 17.2467 64.12 16.1867 64.6 15.24C65.0933 14.2933 65.7333 13.4733 66.52 12.78C66.28 12.34 66.06 11.9067 65.86 11.48C65.66 11.04 65.4867 10.6267 65.34 10.24C65.2067 9.85333 65.2267 9.47333 65.4 9.1C65.5867 8.72667 65.8733 8.47333 66.26 8.34C66.6467 8.19333 67.02 8.21333 67.38 8.4C67.7533 8.57333 68.0067 8.85333 68.14 9.24C68.26 9.56 68.3933 9.88667 68.54 10.22C68.6867 10.5533 68.8467 10.8933 69.02 11.24C69.6867 10.9467 70.3733 10.7267 71.08 10.58C71.8 10.42 72.52 10.34 73.24 10.34H73.38C73.4467 10.0333 73.5133 9.72 73.58 9.4C73.66 9.06667 73.7267 8.73333 73.78 8.4C73.8467 7.98667 74.0467 7.66 74.38 7.42C74.7133 7.18 75.08 7.09333 75.48 7.16C75.8933 7.22667 76.2133 7.43333 76.44 7.78C76.68 8.11333 76.7667 8.48 76.7 8.88C76.6467 9.21333 76.5867 9.54 76.52 9.86C76.4667 10.1667 76.4 10.4733 76.32 10.78C77.7867 11.2333 78.9267 11.9867 79.74 13.04C80.5533 14.08 80.96 15.3067 80.96 16.72C80.96 18.0133 80.68 19.1533 80.12 20.14C79.5733 21.1267 78.78 21.9133 77.74 22.5C76.7 23.0867 75.4333 23.44 73.94 23.56ZM68.04 18.88C68.3733 18.7067 68.6867 18.5067 68.98 18.28C69.2867 18.04 69.58 17.78 69.86 17.5C69.54 17.1533 69.2267 16.7867 68.92 16.4C68.6267 16 68.3333 15.6 68.04 15.2C67.2133 16.1067 66.8 17.1133 66.8 18.22C66.8 18.5933 66.9133 18.8467 67.14 18.98C67.3667 19.1133 67.6667 19.08 68.04 18.88ZM71.62 15.1C71.78 14.7933 71.94 14.4733 72.1 14.14C72.26 13.8067 72.4067 13.46 72.54 13.1C72.1667 13.1267 71.8 13.1867 71.44 13.28C71.08 13.36 70.7467 13.46 70.44 13.58C70.8133 14.1267 71.2067 14.6333 71.62 15.1ZM91.26 24.24C90.4333 24.2 89.7067 24.0267 89.08 23.72C88.4667 23.4267 87.9933 23.0133 87.66 22.48C87.3267 21.9467 87.18 21.3267 87.22 20.62C87.26 20.02 87.44 19.4933 87.76 19.04C88.08 18.5867 88.5133 18.24 89.06 18C89.62 17.7467 90.2533 17.6533 90.96 17.72C92.0667 17.8 92.8667 18.14 93.36 18.74C93.8533 19.34 94.04 20.0667 93.92 20.92C94.2933 20.6667 94.56 20.3467 94.72 19.96C94.8933 19.56 94.98 19.1067 94.98 18.6C94.98 18.1867 94.8467 17.78 94.58 17.38C94.3267 16.98 93.96 16.6533 93.48 16.4C93.0133 16.1333 92.4533 16 91.8 16C91.16 15.9867 90.4533 16.1667 89.68 16.54C88.9067 16.9133 88.0867 17.54 87.22 18.42C86.9133 18.74 86.52 18.9067 86.04 18.92C85.5733 18.92 85.1933 18.7467 84.9 18.4C84.6467 18.0933 84.5267 17.74 84.54 17.34C84.5667 16.9267 84.74 16.6 85.06 16.36C85.86 15.76 86.6733 15.1133 87.5 14.42C88.3267 13.7267 89.1133 13.0467 89.86 12.38C90.6067 11.7 91.26 11.0867 91.82 10.54C92.0333 10.34 92.1067 10.1533 92.04 9.98C91.9733 9.80667 91.7667 9.74667 91.42 9.8C90.9533 9.86667 90.4733 9.93333 89.98 10C89.4867 10.0667 88.9867 10.1333 88.48 10.2C88.08 10.2533 87.7133 10.16 87.38 9.92C87.06 9.66667 86.8667 9.33333 86.8 8.92C86.7467 8.52 86.84 8.16 87.08 7.84C87.3333 7.50667 87.6667 7.31333 88.08 7.26C88.4133 7.20667 88.8133 7.16 89.28 7.12C89.76 7.08 90.24 7.04 90.72 7C91.2 6.96 91.6067 6.93333 91.94 6.92C92.8333 6.85333 93.5667 6.98667 94.14 7.32C94.7133 7.64 95.1067 8.07333 95.32 8.62C95.5333 9.16667 95.5533 9.75333 95.38 10.38C95.22 11.0067 94.84 11.5933 94.24 12.14C94.0667 12.3133 93.8267 12.5333 93.52 12.8C93.2267 13.0667 92.8933 13.36 92.52 13.68C93.4933 13.6533 94.3867 13.8333 95.2 14.22C96.0267 14.5933 96.6933 15.16 97.2 15.92C97.7067 16.6667 97.96 17.5933 97.96 18.7C97.96 19.9667 97.6733 21.0267 97.1 21.88C96.5267 22.72 95.7333 23.34 94.72 23.74C93.72 24.14 92.5667 24.3067 91.26 24.24ZM90.74 21.5C90.9133 21.5133 91.16 21.5133 91.48 21.5C91.64 21.18 91.6733 20.8933 91.58 20.64C91.4867 20.3733 91.2667 20.2133 90.92 20.16C90.6533 20.1067 90.4267 20.1333 90.24 20.24C90.0533 20.3467 89.9467 20.5 89.92 20.7C89.8933 20.94 89.9533 21.12 90.1 21.24C90.26 21.36 90.4733 21.4467 90.74 21.5Z" fill="white"/>
</svg>
