<svg width="85" height="85" viewBox="0 0 85 85" fill="none" xmlns="http://www.w3.org/2000/svg">
<circle cx="42.5" cy="42.5" r="42.5" fill="#FFFB9E"/>
<path d="M25.02 51.46C24.6067 51.5133 24.24 51.4133 23.92 51.16C23.6 50.9067 23.4067 50.58 23.34 50.18C23.2067 49.06 22.9667 47.8067 22.62 46.42C22.2867 45.0333 21.8867 43.6733 21.42 42.34C20.7933 42.5533 20.1933 42.7667 19.62 42.98C19.06 43.1933 18.5467 43.3867 18.08 43.56C17.6933 43.6933 17.3133 43.6733 16.94 43.5C16.5667 43.3133 16.3133 43.0267 16.18 42.64C16.0467 42.2533 16.0667 41.8733 16.24 41.5C16.4267 41.1267 16.7067 40.8733 17.08 40.74C17.5733 40.5667 18.1 40.3867 18.66 40.2C19.22 40 19.8 39.8 20.4 39.6C20.1867 39.0933 19.9733 38.6133 19.76 38.16C19.56 37.6933 19.3467 37.2733 19.12 36.9C18.92 36.54 18.88 36.1667 19 35.78C19.12 35.38 19.36 35.08 19.72 34.88C20.08 34.68 20.46 34.64 20.86 34.76C21.26 34.8667 21.5533 35.1 21.74 35.46C21.9933 35.94 22.24 36.4533 22.48 37C22.7333 37.5467 22.9733 38.1133 23.2 38.7C23.6 38.5667 24 38.44 24.4 38.32C24.8 38.2 25.1867 38.0867 25.56 37.98C25.3467 37.8467 25.1733 37.6867 25.04 37.5L24.04 35.98C23.8133 35.6333 23.74 35.26 23.82 34.86C23.9133 34.46 24.1267 34.1467 24.46 33.92C24.8067 33.6933 25.18 33.62 25.58 33.7C25.9933 33.78 26.3067 33.9933 26.52 34.34L27.52 35.86C27.68 36.1 27.76 36.36 27.76 36.64C27.7733 36.92 27.7133 37.18 27.58 37.42L27.62 37.4C28.9267 37.0533 30.08 36.9533 31.08 37.1C32.0933 37.2333 32.9067 37.6067 33.52 38.22C34.1333 38.8333 34.5 39.68 34.62 40.76C34.7267 41.6667 34.64 42.48 34.36 43.2C34.08 43.9067 33.6533 44.4933 33.08 44.96C32.5067 45.4267 31.84 45.7467 31.08 45.92C30.32 46.0933 29.5133 46.0933 28.66 45.92C27.8067 45.7467 26.96 45.38 26.12 44.82C25.7733 44.5933 25.5533 44.28 25.46 43.88C25.3667 43.48 25.4267 43.1133 25.64 42.78C25.8533 42.4333 26.16 42.2067 26.56 42.1C26.9733 41.98 27.3467 42.0467 27.68 42.3C28.2 42.6733 28.7067 42.9067 29.2 43C29.6933 43.0933 30.1333 43.0733 30.52 42.94C30.92 42.7933 31.2133 42.56 31.4 42.24C31.6 41.9067 31.66 41.5133 31.58 41.06C31.5267 40.7667 31.3867 40.52 31.16 40.32C30.9467 40.1067 30.6133 39.9733 30.16 39.92C29.7067 39.8667 29.0867 39.94 28.3 40.14C27.7267 40.2733 27.08 40.4533 26.36 40.68C25.6533 40.8933 24.9267 41.1267 24.18 41.38C24.5267 42.3933 24.84 43.4133 25.12 44.44C25.4133 45.4533 25.66 46.42 25.86 47.34C26.0733 48.2467 26.22 49.06 26.3 49.78C26.3533 50.1933 26.2533 50.56 26 50.88C25.76 51.2 25.4333 51.3933 25.02 51.46ZM45.94 50.56C45.5267 50.5867 45.1667 50.4667 44.86 50.2C44.5533 49.9333 44.38 49.5933 44.34 49.18C44.3133 48.7667 44.4333 48.4067 44.7 48.1C44.9667 47.78 45.3067 47.6067 45.72 47.58C47.1067 47.4867 48.1733 47.1133 48.92 46.46C49.6667 45.8067 50.04 44.8933 50.04 43.72C50.04 43.0133 49.8133 42.3733 49.36 41.8C48.92 41.2133 48.3067 40.7733 47.52 40.48C47.2667 41.16 46.9867 41.8067 46.68 42.42C46.3867 43.0333 46.0667 43.6133 45.72 44.16C45.8 44.2133 45.88 44.2733 45.96 44.34C46.04 44.3933 46.1133 44.4533 46.18 44.52C46.5267 44.7467 46.7333 45.06 46.8 45.46C46.88 45.86 46.8 46.2333 46.56 46.58C46.3333 46.9133 46.02 47.12 45.62 47.2C45.22 47.2667 44.8467 47.1867 44.5 46.96C44.4067 46.8933 44.3067 46.82 44.2 46.74C44.0933 46.66 43.9867 46.58 43.88 46.5C43.4933 46.8733 43.0933 47.22 42.68 47.54C42.2667 47.86 41.8333 48.1467 41.38 48.4C40.7267 48.7733 40.0733 48.98 39.42 49.02C38.7667 49.06 38.1733 48.9467 37.64 48.68C37.1067 48.4133 36.68 48.0067 36.36 47.46C36.04 46.9133 35.88 46.2333 35.88 45.42C35.88 44.2467 36.12 43.1867 36.6 42.24C37.0933 41.2933 37.7333 40.4733 38.52 39.78C38.28 39.34 38.06 38.9067 37.86 38.48C37.66 38.04 37.4867 37.6267 37.34 37.24C37.2067 36.8533 37.2267 36.4733 37.4 36.1C37.5867 35.7267 37.8733 35.4733 38.26 35.34C38.6467 35.1933 39.02 35.2133 39.38 35.4C39.7533 35.5733 40.0067 35.8533 40.14 36.24C40.26 36.56 40.3933 36.8867 40.54 37.22C40.6867 37.5533 40.8467 37.8933 41.02 38.24C41.6867 37.9467 42.3733 37.7267 43.08 37.58C43.8 37.42 44.52 37.34 45.24 37.34H45.38C45.4467 37.0333 45.5133 36.72 45.58 36.4C45.66 36.0667 45.7267 35.7333 45.78 35.4C45.8467 34.9867 46.0467 34.66 46.38 34.42C46.7133 34.18 47.08 34.0933 47.48 34.16C47.8933 34.2267 48.2133 34.4333 48.44 34.78C48.68 35.1133 48.7667 35.48 48.7 35.88C48.6467 36.2133 48.5867 36.54 48.52 36.86C48.4667 37.1667 48.4 37.4733 48.32 37.78C49.7867 38.2333 50.9267 38.9867 51.74 40.04C52.5533 41.08 52.96 42.3067 52.96 43.72C52.96 45.0133 52.68 46.1533 52.12 47.14C51.5733 48.1267 50.78 48.9133 49.74 49.5C48.7 50.0867 47.4333 50.44 45.94 50.56ZM40.04 45.88C40.3733 45.7067 40.6867 45.5067 40.98 45.28C41.2867 45.04 41.58 44.78 41.86 44.5C41.54 44.1533 41.2267 43.7867 40.92 43.4C40.6267 43 40.3333 42.6 40.04 42.2C39.2133 43.1067 38.8 44.1133 38.8 45.22C38.8 45.5933 38.9133 45.8467 39.14 45.98C39.3667 46.1133 39.6667 46.08 40.04 45.88ZM43.62 42.1C43.78 41.7933 43.94 41.4733 44.1 41.14C44.26 40.8067 44.4067 40.46 44.54 40.1C44.1667 40.1267 43.8 40.1867 43.44 40.28C43.08 40.36 42.7467 40.46 42.44 40.58C42.8133 41.1267 43.2067 41.6333 43.62 42.1ZM63.26 51.24C62.4333 51.2 61.7067 51.0267 61.08 50.72C60.4667 50.4267 59.9933 50.0133 59.66 49.48C59.3267 48.9467 59.18 48.3267 59.22 47.62C59.26 47.02 59.44 46.4933 59.76 46.04C60.08 45.5867 60.5133 45.24 61.06 45C61.62 44.7467 62.2533 44.6533 62.96 44.72C64.0667 44.8 64.8667 45.14 65.36 45.74C65.8533 46.34 66.04 47.0667 65.92 47.92C66.2933 47.6667 66.56 47.3467 66.72 46.96C66.8933 46.56 66.98 46.1067 66.98 45.6C66.98 45.1867 66.8467 44.78 66.58 44.38C66.3267 43.98 65.96 43.6533 65.48 43.4C65.0133 43.1333 64.4533 43 63.8 43C63.16 42.9867 62.4533 43.1667 61.68 43.54C60.9067 43.9133 60.0867 44.54 59.22 45.42C58.9133 45.74 58.52 45.9067 58.04 45.92C57.5733 45.92 57.1933 45.7467 56.9 45.4C56.6467 45.0933 56.5267 44.74 56.54 44.34C56.5667 43.9267 56.74 43.6 57.06 43.36C57.86 42.76 58.6733 42.1133 59.5 41.42C60.3267 40.7267 61.1133 40.0467 61.86 39.38C62.6067 38.7 63.26 38.0867 63.82 37.54C64.0333 37.34 64.1067 37.1533 64.04 36.98C63.9733 36.8067 63.7667 36.7467 63.42 36.8C62.9533 36.8667 62.4733 36.9333 61.98 37C61.4867 37.0667 60.9867 37.1333 60.48 37.2C60.08 37.2533 59.7133 37.16 59.38 36.92C59.06 36.6667 58.8667 36.3333 58.8 35.92C58.7467 35.52 58.84 35.16 59.08 34.84C59.3333 34.5067 59.6667 34.3133 60.08 34.26C60.4133 34.2067 60.8133 34.16 61.28 34.12C61.76 34.08 62.24 34.04 62.72 34C63.2 33.96 63.6067 33.9333 63.94 33.92C64.8333 33.8533 65.5667 33.9867 66.14 34.32C66.7133 34.64 67.1067 35.0733 67.32 35.62C67.5333 36.1667 67.5533 36.7533 67.38 37.38C67.22 38.0067 66.84 38.5933 66.24 39.14C66.0667 39.3133 65.8267 39.5333 65.52 39.8C65.2267 40.0667 64.8933 40.36 64.52 40.68C65.4933 40.6533 66.3867 40.8333 67.2 41.22C68.0267 41.5933 68.6933 42.16 69.2 42.92C69.7067 43.6667 69.96 44.5933 69.96 45.7C69.96 46.9667 69.6733 48.0267 69.1 48.88C68.5267 49.72 67.7333 50.34 66.72 50.74C65.72 51.14 64.5667 51.3067 63.26 51.24ZM62.74 48.5C62.9133 48.5133 63.16 48.5133 63.48 48.5C63.64 48.18 63.6733 47.8933 63.58 47.64C63.4867 47.3733 63.2667 47.2133 62.92 47.16C62.6533 47.1067 62.4267 47.1333 62.24 47.24C62.0533 47.3467 61.9467 47.5 61.92 47.7C61.8933 47.94 61.9533 48.12 62.1 48.24C62.26 48.36 62.4733 48.4467 62.74 48.5Z" fill="#142540"/>
</svg>
