<svg width="289" height="79" viewBox="0 0 289 79" fill="none" xmlns="http://www.w3.org/2000/svg">
<path d="M3 42.1621C3 26.418 14.2082 12.9043 29.6807 9.99311L55.6167 5.11317C59.5524 4.37266 63.5484 4 67.5531 4H144.533H222.033L252.644 6.55518C268.377 7.86849 281.134 19.8435 283.439 35.4623C286.402 55.5451 271.214 73.7301 250.925 74.392L109.691 79L33.9413 74.8464C16.5855 73.8947 3 59.5439 3 42.1621Z" fill="#6BA9E2"/>
<path d="M0 38.1621C0 22.418 11.2082 8.90432 26.6807 5.99311L52.6167 1.11317C56.5524 0.372665 60.5484 0 64.5531 0H141.533H219.033L249.644 2.55518C265.377 3.86849 278.134 15.8435 280.439 31.4623C283.402 51.5451 268.214 69.7301 247.925 70.392L106.691 75L30.9413 70.8464C13.5855 69.8947 0 55.5439 0 38.1621Z" fill="white"/>
<path d="M27.76 51.856C27.1413 52.112 26.512 52.112 25.872 51.856C25.232 51.6213 24.7733 51.1947 24.496 50.576C24.2187 49.936 24.208 49.3067 24.464 48.688C24.72 48.048 25.1573 47.5893 25.776 47.312C27.8027 46.4373 29.6907 45.4347 31.44 44.304C33.2107 43.152 34.7787 41.8933 36.144 40.528C35.8027 40.1867 35.472 39.8773 35.152 39.6C34.8533 39.3227 34.5973 39.088 34.384 38.896C33.8507 38.4693 33.5413 37.9253 33.456 37.264C33.392 36.6027 33.5733 36.0053 34 35.472C34.4267 34.9387 34.9813 34.6507 35.664 34.608C36.3467 34.544 36.944 34.7253 37.456 35.152C37.9253 35.536 38.5333 36.08 39.28 36.784C39.5787 36.3573 39.856 35.9307 40.112 35.504C40.368 35.056 40.6027 34.608 40.816 34.16C41.392 32.9653 40.9547 32.368 39.504 32.368H35.92C34.8533 33.776 33.68 35.1307 32.4 36.432C31.12 37.712 29.8613 38.8 28.624 39.696C28.0693 40.1013 27.4507 40.24 26.768 40.112C26.0853 39.984 25.552 39.6427 25.168 39.088C24.784 38.5333 24.656 37.9253 24.784 37.264C24.912 36.5813 25.2427 36.0373 25.776 35.632C26.928 34.7787 28.0587 33.7973 29.168 32.688C30.2987 31.5573 31.3227 30.3733 32.24 29.136C33.1787 27.8987 33.9253 26.7147 34.48 25.584C34.7787 24.9653 35.2373 24.5387 35.856 24.304C36.496 24.048 37.1253 24.0587 37.744 24.336C38.3627 24.6133 38.7893 25.072 39.024 25.712C39.28 26.352 39.2587 26.9813 38.96 27.6V27.632H40.72C42.448 27.632 43.792 27.984 44.752 28.688C45.712 29.3707 46.256 30.3093 46.384 31.504C46.5333 32.6987 46.224 34.0533 45.456 35.568C45.072 36.3573 44.6453 37.1253 44.176 37.872C43.728 38.6187 43.2373 39.3547 42.704 40.08C43.152 40.528 43.5573 40.9547 43.92 41.36C44.304 41.744 44.6133 42.0747 44.848 42.352C45.296 42.8853 45.4773 43.4933 45.392 44.176C45.3067 44.8587 44.9973 45.4133 44.464 45.84C43.9307 46.2453 43.3227 46.416 42.64 46.352C41.9787 46.2667 41.424 45.968 40.976 45.456C40.8267 45.264 40.624 45.0293 40.368 44.752C40.112 44.4747 39.824 44.176 39.504 43.856C37.8827 45.4987 36.0907 47.0027 34.128 48.368C32.1653 49.712 30.0427 50.8747 27.76 51.856ZM67.6 51.888C66.9387 51.888 66.3627 51.6427 65.872 51.152C65.3813 50.6827 65.136 50.1067 65.136 49.424V37.616C63.8987 38.704 62.6187 39.7493 61.296 40.752C59.9733 41.7333 58.6507 42.6613 57.328 43.536C56.752 43.8987 56.1333 43.9947 55.472 43.824C54.8107 43.6533 54.2987 43.28 53.936 42.704C53.5947 42.1067 53.4987 41.488 53.648 40.848C53.8187 40.1867 54.192 39.6747 54.768 39.312C55.6853 38.736 56.6987 38.0213 57.808 37.168C58.9387 36.3147 60.0907 35.3973 61.264 34.416C62.4373 33.4133 63.5787 32.3893 64.688 31.344C65.8187 30.2773 66.832 29.2533 67.728 28.272C68.6453 27.2907 69.3813 26.3947 69.936 25.584C70.3413 25.0293 70.8747 24.688 71.536 24.56C72.2187 24.432 72.8373 24.56 73.392 24.944C73.9467 25.328 74.288 25.8613 74.416 26.544C74.5653 27.2053 74.4373 27.8133 74.032 28.368C73.456 29.1147 72.8373 29.872 72.176 30.64C71.536 31.408 70.8427 32.176 70.096 32.944V49.424C70.096 50.1067 69.8507 50.6827 69.36 51.152C68.8693 51.6427 68.2827 51.888 67.6 51.888ZM94.576 52.08C93.9147 52.08 93.3387 51.8347 92.848 51.344C92.3573 50.8747 92.112 50.2987 92.112 49.616V27.536C92.112 26.8533 92.3573 26.2667 92.848 25.776C93.3387 25.2853 93.9147 25.04 94.576 25.04C95.2587 25.04 95.8347 25.2853 96.304 25.776C96.7947 26.2667 97.04 26.8533 97.04 27.536V34.832C97.424 34.4693 97.8827 34.256 98.416 34.192C98.9493 34.1067 99.4507 34.192 99.92 34.448C101.179 35.1093 102.405 35.8347 103.6 36.624C104.795 37.4133 105.883 38.2133 106.864 39.024C107.397 39.4507 107.685 40.016 107.728 40.72C107.792 41.4027 107.611 42.0107 107.184 42.544C106.757 43.0773 106.192 43.376 105.488 43.44C104.805 43.504 104.197 43.3227 103.664 42.896C103.067 42.4267 102.395 41.936 101.648 41.424C100.923 40.912 100.208 40.432 99.504 39.984C98.8 39.5147 98.1707 39.1307 97.616 38.832C97.5307 38.768 97.4347 38.704 97.328 38.64C97.2427 38.5547 97.1467 38.4693 97.04 38.384V49.616C97.04 50.2987 96.7947 50.8747 96.304 51.344C95.8347 51.8347 95.2587 52.08 94.576 52.08ZM135.504 46.192C132.411 47.3867 129.957 47.5787 128.144 46.768C126.352 45.9573 125.456 44.176 125.456 41.424V30.896C125.456 30.2133 125.691 29.6373 126.16 29.168C126.651 28.6773 127.237 28.432 127.92 28.432C128.603 28.432 129.179 28.6773 129.648 29.168C130.139 29.6373 130.384 30.2133 130.384 30.896V40.176C130.384 41.0933 130.619 41.6693 131.088 41.904C131.579 42.1173 132.283 42.0533 133.2 41.712C133.733 41.52 134.341 41.2853 135.024 41.008C135.707 40.7307 136.411 40.432 137.136 40.112C137.861 39.792 138.533 39.4933 139.152 39.216C139.771 38.9387 140.4 38.9067 141.04 39.12C141.68 39.312 142.16 39.7173 142.48 40.336C142.779 40.9333 142.832 41.5627 142.64 42.224C142.448 42.8853 142.043 43.3653 141.424 43.664C140.485 44.112 139.483 44.5707 138.416 45.04C137.349 45.488 136.379 45.872 135.504 46.192ZM114.32 48.304C113.723 48.5813 113.093 48.6133 112.432 48.4C111.792 48.1653 111.323 47.7387 111.024 47.12C110.747 46.5013 110.725 45.872 110.96 45.232C111.195 44.592 111.611 44.1333 112.208 43.856C114.576 42.704 116.24 41.1893 117.2 39.312C118.181 37.4347 118.672 35.1307 118.672 32.4C118.672 31.7173 118.907 31.1413 119.376 30.672C119.845 30.1813 120.421 29.936 121.104 29.936C121.787 29.936 122.363 30.1813 122.832 30.672C123.301 31.1413 123.536 31.7173 123.536 32.4C123.493 36.3467 122.693 39.6427 121.136 42.288C119.579 44.912 117.307 46.9173 114.32 48.304ZM148.368 51.056C147.728 51.1627 147.131 51.024 146.576 50.64C146.043 50.2773 145.723 49.776 145.616 49.136C145.403 48.0267 145.243 46.7467 145.136 45.296C145.051 43.8453 144.997 42.32 144.976 40.72C144.976 39.0987 145.019 37.4667 145.104 35.824C145.189 34.1813 145.317 32.6133 145.488 31.12C145.68 29.6267 145.904 28.2827 146.16 27.088C146.309 26.4267 146.661 25.9253 147.216 25.584C147.771 25.2213 148.368 25.1147 149.008 25.264C149.648 25.4133 150.149 25.7653 150.512 26.32C150.875 26.8533 150.981 27.4507 150.832 28.112C150.512 29.6053 150.256 31.2373 150.064 33.008C149.872 34.7573 149.744 36.5387 149.68 38.352C149.637 40.1653 149.659 41.9253 149.744 43.632C149.851 45.3387 150.032 46.8853 150.288 48.272C150.395 48.9333 150.267 49.5307 149.904 50.064C149.541 50.5973 149.029 50.928 148.368 51.056ZM161.424 49.424C158.629 49.424 156.528 48.944 155.12 47.984C153.712 47.0027 152.816 45.4453 152.432 43.312C152.325 42.6507 152.453 42.0533 152.816 41.52C153.2 40.9653 153.723 40.6347 154.384 40.528C155.024 40.4213 155.611 40.56 156.144 40.944C156.677 41.3067 157.008 41.8187 157.136 42.48C157.285 43.2053 157.669 43.76 158.288 44.144C158.907 44.528 160.016 44.72 161.616 44.72C162.427 44.72 163.28 44.656 164.176 44.528C165.072 44.4 166.085 44.2187 167.216 43.984C167.856 43.8347 168.443 43.9413 168.976 44.304C169.531 44.6667 169.883 45.1787 170.032 45.84C170.16 46.48 170.043 47.0667 169.68 47.6C169.317 48.1333 168.816 48.4853 168.176 48.656C166.981 48.9333 165.797 49.136 164.624 49.264C163.472 49.3707 162.405 49.424 161.424 49.424ZM155.792 33.424C155.152 33.5307 154.555 33.4027 154 33.04C153.467 32.6773 153.136 32.176 153.008 31.536C152.88 30.896 152.997 30.2987 153.36 29.744C153.723 29.1893 154.224 28.8587 154.864 28.752C156.165 28.496 157.552 28.3253 159.024 28.24C160.496 28.1547 161.947 28.144 163.376 28.208C164.805 28.272 166.096 28.4 167.248 28.592C167.888 28.6773 168.389 28.9973 168.752 29.552C169.115 30.1067 169.243 30.704 169.136 31.344C169.029 32.0267 168.699 32.5493 168.144 32.912C167.611 33.2533 167.024 33.3707 166.384 33.264C164.741 32.9867 162.992 32.8587 161.136 32.88C159.28 32.9013 157.499 33.0827 155.792 33.424ZM189.2 52.24C187.515 52.24 186.021 51.9307 184.72 51.312C183.44 50.7147 182.427 49.808 181.68 48.592C180.955 47.3547 180.592 45.8187 180.592 43.984C180.592 43.472 180.688 42.6613 180.88 41.552C180.347 41.4453 179.845 41.3387 179.376 41.232C178.907 41.104 178.459 40.9867 178.032 40.88C177.435 40.7093 176.976 40.336 176.656 39.76C176.357 39.184 176.304 38.5867 176.496 37.968C176.667 37.3493 177.04 36.8907 177.616 36.592C178.192 36.2933 178.789 36.24 179.408 36.432C179.685 36.5173 180.016 36.6027 180.4 36.688C180.784 36.7733 181.211 36.8587 181.68 36.944C181.765 36.4533 181.851 35.9627 181.936 35.472C182.043 34.9813 182.139 34.4907 182.224 34C181.712 33.8933 181.243 33.7973 180.816 33.712C180.389 33.6053 180.048 33.52 179.792 33.456C179.173 33.2853 178.704 32.9227 178.384 32.368C178.085 31.792 178.021 31.1947 178.192 30.576C178.363 29.9573 178.725 29.4987 179.28 29.2C179.856 28.88 180.453 28.8053 181.072 28.976C181.264 29.0187 181.531 29.0827 181.872 29.168C182.235 29.232 182.64 29.3067 183.088 29.392C183.259 28.5387 183.397 27.7707 183.504 27.088C183.632 26.384 183.717 25.808 183.76 25.36C183.845 24.6987 184.155 24.1867 184.688 23.824C185.243 23.44 185.851 23.3013 186.512 23.408C187.152 23.4933 187.664 23.8133 188.048 24.368C188.432 24.9013 188.571 25.488 188.464 26.128C188.4 26.6187 188.304 27.216 188.176 27.92C188.048 28.624 187.899 29.4027 187.728 30.256C188.176 30.32 188.571 30.384 188.912 30.448C189.552 30.5333 190.075 30.832 190.48 31.344C190.885 31.8347 191.045 32.4 190.96 33.04C190.875 33.68 190.576 34.2027 190.064 34.608C189.552 34.992 188.976 35.1413 188.336 35.056C188.144 35.0347 187.92 35.0027 187.664 34.96C187.408 34.9173 187.131 34.8747 186.832 34.832C186.747 35.3013 186.651 35.7813 186.544 36.272C186.459 36.7413 186.373 37.2 186.288 37.648C186.587 37.6693 186.885 37.7013 187.184 37.744C187.504 37.7653 187.803 37.7867 188.08 37.808C188.741 37.8507 189.285 38.1173 189.712 38.608C190.139 39.0773 190.331 39.632 190.288 40.272C190.267 40.912 190.011 41.4453 189.52 41.872C189.051 42.2987 188.496 42.5013 187.856 42.48C187.472 42.4587 187.077 42.4267 186.672 42.384C186.267 42.3413 185.861 42.3093 185.456 42.288C185.392 42.672 185.339 43.0133 185.296 43.312C185.253 43.5893 185.232 43.8133 185.232 43.984C185.232 45.1787 185.552 46.064 186.192 46.64C186.853 47.1947 187.856 47.472 189.2 47.472C190.416 47.472 191.419 47.1733 192.208 46.576C192.997 45.9573 193.392 45.168 193.392 44.208C193.392 43.0133 192.837 41.84 191.728 40.688C191.28 40.1973 191.099 39.6213 191.184 38.96C191.269 38.2773 191.579 37.7333 192.112 37.328C192.645 36.9013 193.221 36.7413 193.84 36.848C194.48 36.9333 195.024 37.2213 195.472 37.712C196.368 38.6507 197.029 39.664 197.456 40.752C197.904 41.84 198.128 42.9707 198.128 44.144C198.128 45.7653 197.744 47.184 196.976 48.4C196.229 49.5947 195.184 50.5333 193.84 51.216C192.496 51.8987 190.949 52.24 189.2 52.24ZM225.776 51.44C220.059 52.2293 215.728 51.8987 212.784 50.448C209.84 49.0187 208.368 46.7147 208.368 43.536C208.368 41.6587 208.837 40.0267 209.776 38.64C210.736 37.232 212.059 36.0267 213.744 35.024C213.573 34.2347 213.349 33.3387 213.072 32.336C212.795 31.312 212.507 30.2987 212.208 29.296C211.909 28.272 211.643 27.3973 211.408 26.672C211.237 26.0533 211.312 25.456 211.632 24.88C211.973 24.2827 212.453 23.8987 213.072 23.728C213.733 23.5573 214.352 23.6427 214.928 23.984C215.525 24.304 215.909 24.7733 216.08 25.392C216.4 26.5227 216.72 27.7707 217.04 29.136C217.381 30.48 217.68 31.7813 217.936 33.04C218.875 32.6773 219.877 32.3467 220.944 32.048C222.011 31.7493 223.131 31.472 224.304 31.216C224.944 31.0667 225.531 31.1627 226.064 31.504C226.619 31.8453 226.971 32.336 227.12 32.976C227.269 33.616 227.163 34.2133 226.8 34.768C226.459 35.3013 225.968 35.632 225.328 35.76C222.704 36.2933 220.571 36.88 218.928 37.52C217.307 38.1387 216.069 38.7787 215.216 39.44C214.363 40.1013 213.776 40.7733 213.456 41.456C213.157 42.1173 213.008 42.7787 213.008 43.44C213.008 44.1013 213.2 44.7093 213.584 45.264C213.968 45.8187 214.619 46.2667 215.536 46.608C216.453 46.9493 217.691 47.1413 219.248 47.184C220.827 47.2267 222.8 47.0667 225.168 46.704C225.829 46.5973 226.416 46.7573 226.928 47.184C227.461 47.5893 227.771 48.112 227.856 48.752C227.941 49.4133 227.781 50 227.376 50.512C226.971 51.024 226.437 51.3333 225.776 51.44ZM233.872 30.128C233.573 30.4267 233.189 30.5653 232.72 30.544C232.251 30.5227 231.867 30.3307 231.568 29.968C231.376 29.7333 231.067 29.3707 230.64 28.88C230.235 28.3893 229.893 27.9733 229.616 27.632C229.403 27.3973 229.307 27.0773 229.328 26.672C229.371 26.2667 229.541 25.9253 229.84 25.648C230.096 25.4133 230.416 25.2853 230.8 25.264C231.184 25.2427 231.525 25.3493 231.824 25.584C232.187 25.8613 232.581 26.224 233.008 26.672C233.456 27.0987 233.819 27.4933 234.096 27.856C234.352 28.2187 234.469 28.6133 234.448 29.04C234.427 29.4453 234.235 29.808 233.872 30.128ZM230.384 32.944C230.043 33.2 229.637 33.296 229.168 33.232C228.72 33.168 228.368 32.944 228.112 32.56C227.941 32.2827 227.664 31.888 227.28 31.376C226.917 30.8427 226.619 30.3947 226.384 30.032C226.213 29.776 226.16 29.456 226.224 29.072C226.288 28.6667 226.491 28.336 226.832 28.08C227.109 27.8667 227.429 27.7707 227.792 27.792C228.176 27.8133 228.507 27.952 228.784 28.208C229.104 28.5067 229.467 28.9013 229.872 29.392C230.277 29.8613 230.597 30.2987 230.832 30.704C231.067 31.088 231.141 31.4827 231.056 31.888C230.971 32.2933 230.747 32.6453 230.384 32.944ZM248.016 51.984C246.693 51.92 245.531 51.6427 244.528 51.152C243.547 50.6827 242.789 50.0213 242.256 49.168C241.723 48.3147 241.488 47.3227 241.552 46.192C241.616 45.232 241.904 44.3893 242.416 43.664C242.928 42.9387 243.621 42.384 244.496 42C245.392 41.5947 246.405 41.4453 247.536 41.552C249.307 41.68 250.587 42.224 251.376 43.184C252.165 44.144 252.464 45.3067 252.272 46.672C252.869 46.2667 253.296 45.7547 253.552 45.136C253.829 44.496 253.968 43.7707 253.968 42.96C253.968 42.2987 253.755 41.648 253.328 41.008C252.923 40.368 252.336 39.8453 251.568 39.44C250.821 39.0133 249.925 38.8 248.88 38.8C247.856 38.7787 246.725 39.0667 245.488 39.664C244.251 40.2613 242.939 41.264 241.552 42.672C241.061 43.184 240.432 43.4507 239.664 43.472C238.917 43.472 238.309 43.1947 237.84 42.64C237.435 42.1493 237.243 41.584 237.264 40.944C237.307 40.2827 237.584 39.76 238.096 39.376C239.376 38.416 240.677 37.3813 242 36.272C243.323 35.1627 244.581 34.0747 245.776 33.008C246.971 31.92 248.016 30.9387 248.912 30.064C249.253 29.744 249.371 29.4453 249.264 29.168C249.157 28.8907 248.827 28.7947 248.272 28.88C247.525 28.9867 246.757 29.0933 245.968 29.2C245.179 29.3067 244.379 29.4133 243.568 29.52C242.928 29.6053 242.341 29.456 241.808 29.072C241.296 28.6667 240.987 28.1333 240.88 27.472C240.795 26.832 240.944 26.256 241.328 25.744C241.733 25.2107 242.267 24.9013 242.928 24.816C243.461 24.7307 244.101 24.656 244.848 24.592C245.616 24.528 246.384 24.464 247.152 24.4C247.92 24.336 248.571 24.2933 249.104 24.272C250.533 24.1653 251.707 24.3787 252.624 24.912C253.541 25.424 254.171 26.1173 254.512 26.992C254.853 27.8667 254.885 28.8053 254.608 29.808C254.352 30.8107 253.744 31.7493 252.784 32.624C252.507 32.9013 252.123 33.2533 251.632 33.68C251.163 34.1067 250.629 34.576 250.032 35.088C251.589 35.0453 253.019 35.3333 254.32 35.952C255.643 36.5493 256.709 37.456 257.52 38.672C258.331 39.8667 258.736 41.3493 258.736 43.12C258.736 45.1467 258.277 46.8427 257.36 48.208C256.443 49.552 255.173 50.544 253.552 51.184C251.952 51.824 250.107 52.0907 248.016 51.984ZM247.184 47.6C247.461 47.6213 247.856 47.6213 248.368 47.6C248.624 47.088 248.677 46.6293 248.528 46.224C248.379 45.7973 248.027 45.5413 247.472 45.456C247.045 45.3707 246.683 45.4133 246.384 45.584C246.085 45.7547 245.915 46 245.872 46.32C245.829 46.704 245.925 46.992 246.16 47.184C246.416 47.376 246.757 47.5147 247.184 47.6Z" fill="#142540"/>
</svg>
