<svg width="144" height="151" viewBox="0 0 144 151" fill="none" xmlns="http://www.w3.org/2000/svg">
<circle cx="76.6972" cy="74.5" r="42.5" fill="#FF6F50"/>
<path d="M81.3866 143.831C79.4066 146.834 74.9989 146.827 73.0289 143.817L64.9963 131.546C62.8175 128.218 65.2098 123.801 69.188 123.808L85.2941 123.835C89.2723 123.841 91.65 128.266 89.46 131.587L81.3866 143.831Z" fill="#FF6F50"/>
<path d="M29.9641 125.566C26.3966 126.025 23.5263 122.68 24.5216 119.224L28.5798 105.13C29.6806 101.307 34.5885 100.238 37.1791 103.257L47.6674 115.48C50.258 118.5 48.4563 123.188 44.5106 123.696L29.9641 125.566Z" fill="#FF6F50"/>
<path d="M6.80153 80.3991C3.75986 78.4794 3.67933 74.0724 6.64885 72.0428L18.7573 63.7672C22.0417 61.5225 26.5051 63.8263 26.5778 67.8039L26.872 83.9073C26.9446 87.8849 22.5684 90.3502 19.2042 88.2269L6.80153 80.3991Z" fill="#FF6F50"/>
<path d="M122.466 127.677C122.553 131.273 118.93 133.782 115.595 132.435L101.996 126.942C98.307 125.452 97.7511 120.46 101.022 118.195L114.263 109.026C117.534 106.761 122.011 109.038 122.108 113.015L122.466 127.677Z" fill="#FF6F50"/>
<path d="M80.97 6.22694C78.9846 3.27387 74.6373 3.28098 72.6619 6.24051L64.7293 18.1253C62.5095 21.4509 64.898 25.9078 68.8965 25.9012L84.8022 25.8753C88.8007 25.8687 91.174 21.4041 88.943 18.0857L80.97 6.22694Z" fill="#FF6F50"/>
<path d="M29.6635 24.1884C26.0578 23.7336 23.1494 27.0578 24.1553 30.4839L28.169 44.1543C29.2789 47.9347 34.2274 48.9817 36.845 45.99L47.2181 34.1341C49.8357 31.1423 48.0289 26.5046 44.0503 26.0028L29.6635 24.1884Z" fill="#FF6F50"/>
<path d="M126.876 26.6553C127.313 23.1291 123.943 20.3204 120.47 21.315L106.57 25.2947C102.707 26.4008 101.637 31.2811 104.698 33.8329L116.851 43.9632C119.912 46.515 124.644 44.6871 125.129 40.7652L126.876 26.6553Z" fill="#FF6F50"/>
<path d="M58.0203 85.46C57.607 85.5133 57.2403 85.4133 56.9203 85.16C56.6003 84.9067 56.407 84.58 56.3403 84.18C56.207 83.06 55.967 81.8067 55.6203 80.42C55.287 79.0333 54.887 77.6733 54.4203 76.34C53.7937 76.5533 53.1937 76.7667 52.6203 76.98C52.0603 77.1933 51.547 77.3867 51.0803 77.56C50.6937 77.6933 50.3137 77.6733 49.9403 77.5C49.567 77.3133 49.3137 77.0267 49.1803 76.64C49.047 76.2533 49.067 75.8733 49.2403 75.5C49.427 75.1267 49.707 74.8733 50.0803 74.74C50.5737 74.5667 51.1003 74.3867 51.6603 74.2C52.2203 74 52.8003 73.8 53.4003 73.6C53.187 73.0933 52.9737 72.6133 52.7603 72.16C52.5603 71.6933 52.347 71.2733 52.1203 70.9C51.9203 70.54 51.8803 70.1667 52.0003 69.78C52.1203 69.38 52.3603 69.08 52.7203 68.88C53.0803 68.68 53.4603 68.64 53.8603 68.76C54.2603 68.8667 54.5537 69.1 54.7403 69.46C54.9937 69.94 55.2403 70.4533 55.4803 71C55.7337 71.5467 55.9737 72.1133 56.2003 72.7C56.6003 72.5667 57.0003 72.44 57.4003 72.32C57.8003 72.2 58.187 72.0867 58.5603 71.98C58.347 71.8467 58.1737 71.6867 58.0403 71.5L57.0403 69.98C56.8137 69.6333 56.7403 69.26 56.8203 68.86C56.9137 68.46 57.127 68.1467 57.4603 67.92C57.807 67.6933 58.1803 67.62 58.5803 67.7C58.9937 67.78 59.307 67.9933 59.5203 68.34L60.5203 69.86C60.6803 70.1 60.7603 70.36 60.7603 70.64C60.7737 70.92 60.7137 71.18 60.5803 71.42L60.6203 71.4C61.927 71.0533 63.0803 70.9533 64.0803 71.1C65.0937 71.2333 65.907 71.6067 66.5203 72.22C67.1337 72.8333 67.5003 73.68 67.6203 74.76C67.727 75.6667 67.6403 76.48 67.3603 77.2C67.0803 77.9067 66.6537 78.4933 66.0803 78.96C65.507 79.4267 64.8403 79.7467 64.0803 79.92C63.3203 80.0933 62.5137 80.0933 61.6603 79.92C60.807 79.7467 59.9603 79.38 59.1203 78.82C58.7737 78.5933 58.5537 78.28 58.4603 77.88C58.367 77.48 58.427 77.1133 58.6403 76.78C58.8537 76.4333 59.1603 76.2067 59.5603 76.1C59.9737 75.98 60.347 76.0467 60.6803 76.3C61.2003 76.6733 61.707 76.9067 62.2003 77C62.6937 77.0933 63.1337 77.0733 63.5203 76.94C63.9203 76.7933 64.2137 76.56 64.4003 76.24C64.6003 75.9067 64.6603 75.5133 64.5803 75.06C64.527 74.7667 64.387 74.52 64.1603 74.32C63.947 74.1067 63.6137 73.9733 63.1603 73.92C62.707 73.8667 62.087 73.94 61.3003 74.14C60.727 74.2733 60.0803 74.4533 59.3603 74.68C58.6537 74.8933 57.927 75.1267 57.1803 75.38C57.527 76.3933 57.8403 77.4133 58.1203 78.44C58.4137 79.4533 58.6603 80.42 58.8603 81.34C59.0737 82.2467 59.2203 83.06 59.3003 83.78C59.3537 84.1933 59.2537 84.56 59.0003 84.88C58.7603 85.2 58.4337 85.3933 58.0203 85.46ZM78.9403 84.56C78.527 84.5867 78.167 84.4667 77.8603 84.2C77.5537 83.9333 77.3803 83.5933 77.3403 83.18C77.3137 82.7667 77.4337 82.4067 77.7003 82.1C77.967 81.78 78.307 81.6067 78.7203 81.58C80.107 81.4867 81.1737 81.1133 81.9203 80.46C82.667 79.8067 83.0403 78.8933 83.0403 77.72C83.0403 77.0133 82.8137 76.3733 82.3603 75.8C81.9203 75.2133 81.307 74.7733 80.5203 74.48C80.267 75.16 79.987 75.8067 79.6803 76.42C79.387 77.0333 79.067 77.6133 78.7203 78.16C78.8003 78.2133 78.8803 78.2733 78.9603 78.34C79.0403 78.3933 79.1137 78.4533 79.1803 78.52C79.527 78.7467 79.7337 79.06 79.8003 79.46C79.8803 79.86 79.8003 80.2333 79.5603 80.58C79.3337 80.9133 79.0203 81.12 78.6203 81.2C78.2203 81.2667 77.847 81.1867 77.5003 80.96C77.407 80.8933 77.307 80.82 77.2003 80.74C77.0937 80.66 76.987 80.58 76.8803 80.5C76.4937 80.8733 76.0937 81.22 75.6803 81.54C75.267 81.86 74.8337 82.1467 74.3803 82.4C73.727 82.7733 73.0737 82.98 72.4203 83.02C71.767 83.06 71.1737 82.9467 70.6403 82.68C70.107 82.4133 69.6803 82.0067 69.3603 81.46C69.0403 80.9133 68.8803 80.2333 68.8803 79.42C68.8803 78.2467 69.1203 77.1867 69.6003 76.24C70.0937 75.2933 70.7337 74.4733 71.5203 73.78C71.2803 73.34 71.0603 72.9067 70.8603 72.48C70.6603 72.04 70.487 71.6267 70.3403 71.24C70.207 70.8533 70.227 70.4733 70.4003 70.1C70.587 69.7267 70.8737 69.4733 71.2603 69.34C71.647 69.1933 72.0203 69.2133 72.3803 69.4C72.7537 69.5733 73.007 69.8533 73.1403 70.24C73.2603 70.56 73.3937 70.8867 73.5403 71.22C73.687 71.5533 73.847 71.8933 74.0203 72.24C74.687 71.9467 75.3737 71.7267 76.0803 71.58C76.8003 71.42 77.5203 71.34 78.2403 71.34H78.3803C78.447 71.0333 78.5137 70.72 78.5803 70.4C78.6603 70.0667 78.727 69.7333 78.7803 69.4C78.847 68.9867 79.047 68.66 79.3803 68.42C79.7137 68.18 80.0803 68.0933 80.4803 68.16C80.8937 68.2267 81.2137 68.4333 81.4403 68.78C81.6803 69.1133 81.767 69.48 81.7003 69.88C81.647 70.2133 81.587 70.54 81.5203 70.86C81.467 71.1667 81.4003 71.4733 81.3203 71.78C82.787 72.2333 83.927 72.9867 84.7403 74.04C85.5537 75.08 85.9603 76.3067 85.9603 77.72C85.9603 79.0133 85.6803 80.1533 85.1203 81.14C84.5737 82.1267 83.7803 82.9133 82.7403 83.5C81.7003 84.0867 80.4337 84.44 78.9403 84.56ZM73.0403 79.88C73.3737 79.7067 73.687 79.5067 73.9803 79.28C74.287 79.04 74.5803 78.78 74.8603 78.5C74.5403 78.1533 74.227 77.7867 73.9203 77.4C73.627 77 73.3337 76.6 73.0403 76.2C72.2137 77.1067 71.8003 78.1133 71.8003 79.22C71.8003 79.5933 71.9137 79.8467 72.1403 79.98C72.367 80.1133 72.667 80.08 73.0403 79.88ZM76.6203 76.1C76.7803 75.7933 76.9403 75.4733 77.1003 75.14C77.2603 74.8067 77.407 74.46 77.5403 74.1C77.167 74.1267 76.8003 74.1867 76.4403 74.28C76.0803 74.36 75.747 74.46 75.4403 74.58C75.8137 75.1267 76.207 75.6333 76.6203 76.1ZM96.2603 85.24C95.4337 85.2 94.707 85.0267 94.0803 84.72C93.467 84.4267 92.9937 84.0133 92.6603 83.48C92.327 82.9467 92.1803 82.3267 92.2203 81.62C92.2603 81.02 92.4403 80.4933 92.7603 80.04C93.0803 79.5867 93.5137 79.24 94.0603 79C94.6203 78.7467 95.2537 78.6533 95.9603 78.72C97.067 78.8 97.867 79.14 98.3603 79.74C98.8537 80.34 99.0403 81.0667 98.9203 81.92C99.2937 81.6667 99.5603 81.3467 99.7203 80.96C99.8937 80.56 99.9803 80.1067 99.9803 79.6C99.9803 79.1867 99.847 78.78 99.5803 78.38C99.327 77.98 98.9603 77.6533 98.4803 77.4C98.0137 77.1333 97.4537 77 96.8003 77C96.1603 76.9867 95.4537 77.1667 94.6803 77.54C93.907 77.9133 93.087 78.54 92.2203 79.42C91.9137 79.74 91.5203 79.9067 91.0403 79.92C90.5737 79.92 90.1937 79.7467 89.9003 79.4C89.647 79.0933 89.527 78.74 89.5403 78.34C89.567 77.9267 89.7403 77.6 90.0603 77.36C90.8603 76.76 91.6737 76.1133 92.5003 75.42C93.327 74.7267 94.1137 74.0467 94.8603 73.38C95.607 72.7 96.2603 72.0867 96.8203 71.54C97.0337 71.34 97.107 71.1533 97.0403 70.98C96.9737 70.8067 96.767 70.7467 96.4203 70.8C95.9537 70.8667 95.4737 70.9333 94.9803 71C94.487 71.0667 93.987 71.1333 93.4803 71.2C93.0803 71.2533 92.7137 71.16 92.3803 70.92C92.0603 70.6667 91.867 70.3333 91.8003 69.92C91.747 69.52 91.8403 69.16 92.0803 68.84C92.3337 68.5067 92.667 68.3133 93.0803 68.26C93.4137 68.2067 93.8137 68.16 94.2803 68.12C94.7603 68.08 95.2403 68.04 95.7203 68C96.2003 67.96 96.607 67.9333 96.9403 67.92C97.8337 67.8533 98.567 67.9867 99.1403 68.32C99.7137 68.64 100.107 69.0733 100.32 69.62C100.534 70.1667 100.554 70.7533 100.38 71.38C100.22 72.0067 99.8403 72.5933 99.2403 73.14C99.067 73.3133 98.827 73.5333 98.5203 73.8C98.227 74.0667 97.8937 74.36 97.5203 74.68C98.4937 74.6533 99.387 74.8333 100.2 75.22C101.027 75.5933 101.694 76.16 102.2 76.92C102.707 77.6667 102.96 78.5933 102.96 79.7C102.96 80.9667 102.674 82.0267 102.1 82.88C101.527 83.72 100.734 84.34 99.7203 84.74C98.7203 85.14 97.567 85.3067 96.2603 85.24ZM95.7403 82.5C95.9137 82.5133 96.1603 82.5133 96.4803 82.5C96.6403 82.18 96.6737 81.8933 96.5803 81.64C96.487 81.3733 96.267 81.2133 95.9203 81.16C95.6537 81.1067 95.427 81.1333 95.2403 81.24C95.0537 81.3467 94.947 81.5 94.9203 81.7C94.8937 81.94 94.9537 82.12 95.1003 82.24C95.2603 82.36 95.4737 82.4467 95.7403 82.5Z" fill="white"/>
</svg>
