<svg width="275" height="108" viewBox="0 0 275 108" fill="none" xmlns="http://www.w3.org/2000/svg">
<path d="M12 58.2397C12 36.2059 28.0014 17.4337 49.7572 13.9446L65 11.5L118.042 3.4207C132.993 1.14349 148.094 0 163.217 0H200.045C204.668 0 209.278 0.49892 213.793 1.48809L224.084 3.74232C245.193 8.36603 260.908 26.0786 262.986 47.5872C265.717 75.8591 244.279 100.682 215.91 102.096L107.5 107.5L53.1163 102.944C29.8734 100.997 12 81.564 12 58.2397Z" fill="#005073"/>
<path d="M74.18 85.68C73.4333 86.0533 72.6467 86.1067 71.82 85.84C71.02 85.5467 70.4333 85.0133 70.06 84.24C69.6867 83.4667 69.6333 82.68 69.9 81.88C70.1933 81.08 70.7267 80.4933 71.5 80.12C75.2067 78.3333 78.4867 76.2133 81.34 73.76C84.1933 71.3067 86.54 68.6933 88.38 65.92C88.9933 65.0133 89.1533 64.3467 88.86 63.92C88.5933 63.4933 87.9533 63.28 86.94 63.28H76.34C75.5133 63.28 74.7933 62.9733 74.18 62.36C73.5667 61.7467 73.26 61.0267 73.26 60.2C73.26 59.3467 73.5667 58.6133 74.18 58C74.7933 57.3867 75.5133 57.08 76.34 57.08H87.26C89.9 57.08 91.9267 57.5733 93.34 58.56C94.78 59.52 95.5533 60.8533 95.66 62.56C95.7933 64.2667 95.22 66.2267 93.94 68.44C93.7267 68.84 93.4733 69.2533 93.18 69.68C92.9133 70.08 92.6333 70.4933 92.34 70.92C93.54 71.9067 94.74 72.9733 95.94 74.12C97.14 75.2667 98.2733 76.3733 99.34 77.44C100.433 78.5067 101.367 79.44 102.14 80.24C102.727 80.8267 103.007 81.56 102.98 82.44C102.98 83.2933 102.673 84.0267 102.06 84.64C101.473 85.2267 100.74 85.52 99.86 85.52C98.98 85.4933 98.2333 85.1867 97.62 84.6C96.9 83.8267 96.02 82.92 94.98 81.88C93.9667 80.8133 92.8867 79.72 91.74 78.6C90.62 77.4533 89.5133 76.4 88.42 75.44C86.3933 77.4667 84.1267 79.3867 81.62 81.2C79.14 82.9867 76.66 84.48 74.18 85.68ZM110.7 88.32C109.927 88.64 109.14 88.64 108.34 88.32C107.54 88.0267 106.967 87.4933 106.62 86.72C106.273 85.92 106.26 85.1333 106.58 84.36C106.9 83.56 107.447 82.9867 108.22 82.64C110.753 81.5467 113.113 80.2933 115.3 78.88C117.513 77.44 119.473 75.8667 121.18 74.16C120.753 73.7333 120.34 73.3467 119.94 73C119.567 72.6533 119.247 72.36 118.98 72.12C118.313 71.5867 117.927 70.9067 117.82 70.08C117.74 69.2533 117.967 68.5067 118.5 67.84C119.033 67.1733 119.727 66.8133 120.58 66.76C121.433 66.68 122.18 66.9067 122.82 67.44C123.407 67.92 124.167 68.6 125.1 69.48C125.473 68.9467 125.82 68.4133 126.14 67.88C126.46 67.32 126.753 66.76 127.02 66.2C127.74 64.7067 127.193 63.96 125.38 63.96H120.9C119.567 65.72 118.1 67.4133 116.5 69.04C114.9 70.64 113.327 72 111.78 73.12C111.087 73.6267 110.313 73.8 109.46 73.64C108.607 73.48 107.94 73.0533 107.46 72.36C106.98 71.6667 106.82 70.9067 106.98 70.08C107.14 69.2267 107.553 68.5467 108.22 68.04C109.66 66.9733 111.073 65.7467 112.46 64.36C113.873 62.9467 115.153 61.4667 116.3 59.92C117.473 58.3733 118.407 56.8933 119.1 55.48C119.473 54.7067 120.047 54.1733 120.82 53.88C121.62 53.56 122.407 53.5733 123.18 53.92C123.953 54.2667 124.487 54.84 124.78 55.64C125.1 56.44 125.073 57.2267 124.7 58V58.04H126.9C129.06 58.04 130.74 58.48 131.94 59.36C133.14 60.2133 133.82 61.3867 133.98 62.88C134.167 64.3733 133.78 66.0667 132.82 67.96C132.34 68.9467 131.807 69.9067 131.22 70.84C130.66 71.7733 130.047 72.6933 129.38 73.6C129.94 74.16 130.447 74.6933 130.9 75.2C131.38 75.68 131.767 76.0933 132.06 76.44C132.62 77.1067 132.847 77.8667 132.74 78.72C132.633 79.5733 132.247 80.2667 131.58 80.8C130.913 81.3067 130.153 81.52 129.3 81.44C128.473 81.3333 127.78 80.96 127.22 80.32C127.033 80.08 126.78 79.7867 126.46 79.44C126.14 79.0933 125.78 78.72 125.38 78.32C123.353 80.3733 121.113 82.2533 118.66 83.96C116.207 85.64 113.553 87.0933 110.7 88.32ZM142.06 73.92C141.207 73.92 140.473 73.6133 139.86 73C139.273 72.3867 138.98 71.6667 138.98 70.84C138.98 69.9867 139.273 69.2667 139.86 68.68C140.473 68.0667 141.207 67.76 142.06 67.76H166.98C167.833 67.76 168.553 68.0667 169.14 68.68C169.753 69.2667 170.06 69.9867 170.06 70.84C170.06 71.6667 169.753 72.3867 169.14 73C168.553 73.6133 167.833 73.92 166.98 73.92H142.06ZM186.22 88.6C185.393 88.6 184.673 88.2933 184.06 87.68C183.447 87.0933 183.14 86.3733 183.14 85.52V57.92C183.14 57.0667 183.447 56.3333 184.06 55.72C184.673 55.1067 185.393 54.8 186.22 54.8C187.073 54.8 187.793 55.1067 188.38 55.72C188.993 56.3333 189.3 57.0667 189.3 57.92V67.04C189.78 66.5867 190.353 66.32 191.02 66.24C191.687 66.1333 192.313 66.24 192.9 66.56C194.473 67.3867 196.007 68.2933 197.5 69.28C198.993 70.2667 200.353 71.2667 201.58 72.28C202.247 72.8133 202.607 73.52 202.66 74.4C202.74 75.2533 202.513 76.0133 201.98 76.68C201.447 77.3467 200.74 77.72 199.86 77.8C199.007 77.88 198.247 77.6533 197.58 77.12C196.833 76.5333 195.993 75.92 195.06 75.28C194.153 74.64 193.26 74.04 192.38 73.48C191.5 72.8933 190.713 72.4133 190.02 72.04C189.913 71.96 189.793 71.88 189.66 71.8C189.553 71.6933 189.433 71.5867 189.3 71.48V85.52C189.3 86.3733 188.993 87.0933 188.38 87.68C187.793 88.2933 187.073 88.6 186.22 88.6Z" fill="white"/>
<path d="M61.708 46.808C61.26 47.032 60.788 47.064 60.292 46.904C59.812 46.728 59.46 46.408 59.236 45.944C59.012 45.48 58.98 45.008 59.14 44.528C59.316 44.048 59.636 43.696 60.1 43.472C62.324 42.4 64.292 41.128 66.004 39.656C67.716 38.184 69.124 36.616 70.228 34.952C70.596 34.408 70.692 34.008 70.516 33.752C70.356 33.496 69.972 33.368 69.364 33.368H63.004C62.508 33.368 62.076 33.184 61.708 32.816C61.34 32.448 61.156 32.016 61.156 31.52C61.156 31.008 61.34 30.568 61.708 30.2C62.076 29.832 62.508 29.648 63.004 29.648H69.556C71.14 29.648 72.356 29.944 73.204 30.536C74.068 31.112 74.532 31.912 74.596 32.936C74.676 33.96 74.332 35.136 73.564 36.464C73.436 36.704 73.284 36.952 73.108 37.208C72.948 37.448 72.78 37.696 72.604 37.952C73.324 38.544 74.044 39.184 74.764 39.872C75.484 40.56 76.164 41.224 76.804 41.864C77.46 42.504 78.02 43.064 78.484 43.544C78.836 43.896 79.004 44.336 78.988 44.864C78.988 45.376 78.804 45.816 78.436 46.184C78.084 46.536 77.644 46.712 77.116 46.712C76.588 46.696 76.14 46.512 75.772 46.16C75.34 45.696 74.812 45.152 74.188 44.528C73.58 43.888 72.932 43.232 72.244 42.56C71.572 41.872 70.908 41.24 70.252 40.664C69.036 41.88 67.676 43.032 66.172 44.12C64.684 45.192 63.196 46.088 61.708 46.808ZM96.196 46.424C95.748 46.664 95.268 46.712 94.756 46.568C94.26 46.408 93.892 46.104 93.652 45.656C93.444 45.256 93.156 44.768 92.788 44.192C92.42 43.6 92.012 42.984 91.564 42.344C91.132 41.688 90.692 41.072 90.244 40.496C89.796 39.904 89.388 39.416 89.02 39.032C88.668 38.664 88.492 38.232 88.492 37.736C88.492 37.24 88.676 36.816 89.044 36.464C89.412 36.096 89.852 35.936 90.364 35.984C90.892 36.016 91.332 36.216 91.684 36.584C91.956 36.856 92.236 37.168 92.524 37.52C92.828 37.872 93.132 38.24 93.436 38.624C94.732 38.112 95.684 37.68 96.292 37.328C96.916 36.96 97.316 36.648 97.492 36.392C97.668 36.136 97.732 35.904 97.684 35.696C97.652 35.424 97.532 35.224 97.324 35.096C97.116 34.968 96.748 34.92 96.22 34.952L83.404 35.48C82.892 35.496 82.452 35.328 82.084 34.976C81.716 34.624 81.516 34.2 81.484 33.704C81.468 33.192 81.636 32.752 81.988 32.384C82.34 32 82.764 31.8 83.26 31.784L95.956 31.352C97.828 31.288 99.204 31.528 100.084 32.072C100.964 32.616 101.516 33.544 101.74 34.856C101.98 36.312 101.556 37.576 100.468 38.648C99.396 39.704 97.764 40.68 95.572 41.576C95.86 41.992 96.124 42.4 96.364 42.8C96.62 43.2 96.836 43.576 97.012 43.928C97.236 44.376 97.268 44.848 97.108 45.344C96.964 45.824 96.66 46.184 96.196 46.424ZM111.34 47.792C110.844 47.792 110.412 47.608 110.044 47.24C109.676 46.888 109.492 46.456 109.492 45.944C109.492 45.432 109.676 45 110.044 44.648C110.412 44.28 110.844 44.096 111.34 44.096C111.948 44.096 112.348 44.008 112.54 43.832C112.732 43.656 112.828 43.296 112.828 42.752V36.152H106.708C106.212 36.152 105.788 35.976 105.436 35.624C105.084 35.272 104.908 34.848 104.908 34.352C104.908 33.856 105.084 33.432 105.436 33.08C105.788 32.728 106.212 32.552 106.708 32.552H112.828V30.176C112.828 29.664 113.004 29.232 113.356 28.88C113.708 28.528 114.14 28.352 114.652 28.352C115.164 28.352 115.588 28.528 115.924 28.88C116.276 29.232 116.452 29.664 116.452 30.176V32.552H122.14C122.652 32.552 123.076 32.728 123.412 33.08C123.764 33.432 123.94 33.856 123.94 34.352C123.94 34.848 123.764 35.272 123.412 35.624C123.076 35.976 122.652 36.152 122.14 36.152H116.452V43.112C116.452 44.776 116.052 45.976 115.252 46.712C114.452 47.432 113.148 47.792 111.34 47.792ZM106.732 44.432C106.3 44.688 105.836 44.752 105.34 44.624C104.844 44.496 104.468 44.208 104.212 43.76C103.956 43.312 103.9 42.856 104.044 42.392C104.188 41.912 104.468 41.528 104.884 41.24C105.46 40.824 106.068 40.36 106.708 39.848C107.348 39.32 107.932 38.808 108.46 38.312C108.828 37.96 109.236 37.736 109.684 37.64C110.132 37.528 110.556 37.616 110.956 37.904C111.372 38.192 111.62 38.584 111.7 39.08C111.796 39.576 111.684 40.024 111.364 40.424C110.756 41.208 110.028 41.96 109.18 42.68C108.348 43.384 107.532 43.968 106.732 44.432ZM124.516 43.856C124.132 44.192 123.692 44.344 123.196 44.312C122.7 44.264 122.268 44.056 121.9 43.688C121.452 43.224 120.924 42.72 120.316 42.176C119.708 41.632 119.084 41.128 118.444 40.664C118.044 40.376 117.796 39.992 117.7 39.512C117.62 39.016 117.716 38.568 117.988 38.168C118.276 37.752 118.66 37.504 119.14 37.424C119.636 37.344 120.084 37.44 120.484 37.712C121.092 38.144 121.788 38.68 122.572 39.32C123.356 39.96 124.052 40.6 124.66 41.24C125.028 41.592 125.188 42.032 125.14 42.56C125.108 43.072 124.9 43.504 124.516 43.856ZM142.78 48.464C138.732 49.04 135.74 48.928 133.804 48.128C131.868 47.344 130.9 46.032 130.9 44.192C130.9 42.96 131.356 41.816 132.268 40.76C133.196 39.688 134.604 38.752 136.492 37.952C136.268 37.712 136.012 37.576 135.724 37.544C134.972 37.432 134.276 37.576 133.636 37.976C132.996 38.376 132.316 38.96 131.596 39.728C131.26 40.08 130.82 40.272 130.276 40.304C129.732 40.336 129.292 40.176 128.956 39.824C128.62 39.456 128.476 39.024 128.524 38.528C128.572 38.032 128.772 37.624 129.124 37.304C129.828 36.68 130.452 36.032 130.996 35.36C131.54 34.672 132.012 33.968 132.412 33.248C131.836 33.264 131.3 33.272 130.804 33.272C130.308 33.272 129.876 33.272 129.508 33.272C129.012 33.256 128.588 33.08 128.236 32.744C127.9 32.392 127.74 31.968 127.756 31.472C127.772 30.976 127.956 30.568 128.308 30.248C128.66 29.912 129.084 29.752 129.58 29.768C130.156 29.784 130.804 29.792 131.524 29.792C132.26 29.776 133.02 29.76 133.804 29.744C133.852 29.52 133.9 29.296 133.948 29.072C133.996 28.832 134.036 28.608 134.068 28.4C134.148 27.904 134.372 27.504 134.74 27.2C135.108 26.896 135.54 26.768 136.036 26.816C136.532 26.88 136.932 27.104 137.236 27.488C137.556 27.872 137.684 28.304 137.62 28.784L137.476 29.576C137.94 29.544 138.38 29.512 138.796 29.48C139.212 29.432 139.588 29.392 139.924 29.36C140.42 29.296 140.86 29.408 141.244 29.696C141.628 29.984 141.852 30.376 141.916 30.872C141.98 31.368 141.86 31.808 141.556 32.192C141.268 32.56 140.876 32.768 140.38 32.816C139.836 32.88 139.204 32.936 138.484 32.984C137.78 33.032 137.052 33.072 136.3 33.104C136.06 33.616 135.804 34.128 135.532 34.64C135.772 34.624 136.004 34.632 136.228 34.664C136.468 34.68 136.7 34.712 136.924 34.76C137.5 34.872 138.036 35.096 138.532 35.432C139.044 35.752 139.484 36.208 139.852 36.8C140.604 36.592 141.396 36.4 142.228 36.224C143.06 36.048 143.94 35.888 144.868 35.744C145.364 35.664 145.804 35.776 146.188 36.08C146.588 36.384 146.82 36.784 146.884 37.28C146.964 37.776 146.852 38.224 146.548 38.624C146.244 39.008 145.852 39.232 145.372 39.296C144.524 39.408 143.732 39.528 142.996 39.656C142.276 39.784 141.604 39.912 140.98 40.04C141.044 40.44 141.092 40.872 141.124 41.336C141.156 41.8 141.172 42.288 141.172 42.8C141.172 43.296 140.996 43.72 140.644 44.072C140.308 44.408 139.892 44.576 139.396 44.576C138.9 44.576 138.476 44.408 138.124 44.072C137.772 43.72 137.596 43.296 137.596 42.8C137.596 42.176 137.572 41.616 137.524 41.12C136.404 41.584 135.612 42.072 135.148 42.584C134.684 43.096 134.452 43.584 134.452 44.048C134.452 44.304 134.564 44.536 134.788 44.744C135.012 44.952 135.404 45.104 135.964 45.2C136.54 45.296 137.34 45.328 138.364 45.296C139.388 45.264 140.7 45.144 142.3 44.936C142.796 44.856 143.236 44.968 143.62 45.272C144.02 45.576 144.252 45.968 144.316 46.448C144.38 46.944 144.26 47.384 143.956 47.768C143.668 48.152 143.276 48.384 142.78 48.464ZM157.228 48.464C155.884 48.464 154.74 48.36 153.796 48.152C152.852 47.96 152.084 47.616 151.492 47.12C150.916 46.64 150.492 45.96 150.22 45.08C149.948 44.2 149.812 43.088 149.812 41.744V34.016C149.812 32.672 149.948 31.56 150.22 30.68C150.492 29.8 150.916 29.12 151.492 28.64C152.084 28.144 152.852 27.8 153.796 27.608C154.74 27.4 155.884 27.296 157.228 27.296H163.372C164.732 27.296 165.884 27.4 166.828 27.608C167.772 27.8 168.532 28.144 169.108 28.64C169.7 29.12 170.124 29.8 170.38 30.68C170.652 31.56 170.788 32.672 170.788 34.016V41.744C170.788 43.088 170.652 44.2 170.38 45.08C170.124 45.96 169.7 46.64 169.108 47.12C168.532 47.616 167.772 47.96 166.828 48.152C165.884 48.36 164.732 48.464 163.372 48.464H157.228ZM157.228 45.584H163.372C164.828 45.584 165.868 45.312 166.492 44.768C167.116 44.208 167.428 43.2 167.428 41.744V34.016C167.428 32.56 167.116 31.56 166.492 31.016C165.868 30.456 164.828 30.176 163.372 30.176H157.228C155.772 30.176 154.732 30.456 154.108 31.016C153.484 31.56 153.172 32.56 153.172 34.016V41.744C153.172 43.2 153.484 44.208 154.108 44.768C154.732 45.312 155.772 45.584 157.228 45.584ZM162.772 45.08C162.324 45.08 161.94 44.936 161.62 44.648C161.316 44.36 161.164 43.968 161.164 43.472V40.472H159.292C158.844 42.2 158.02 43.504 156.82 44.384C156.42 44.672 155.972 44.776 155.476 44.696C154.996 44.6 154.62 44.376 154.348 44.024C154.092 43.656 154.012 43.28 154.108 42.896C154.204 42.496 154.42 42.184 154.756 41.96C155.284 41.592 155.684 41.096 155.956 40.472H154.876C154.428 40.472 154.076 40.336 153.82 40.064C153.58 39.792 153.46 39.456 153.46 39.056C153.46 38.656 153.58 38.32 153.82 38.048C154.076 37.76 154.428 37.616 154.876 37.616H156.388V35.864H155.284C154.836 35.864 154.484 35.728 154.228 35.456C153.972 35.168 153.844 34.832 153.844 34.448C153.844 34.048 153.972 33.712 154.228 33.44C154.484 33.152 154.836 33.008 155.284 33.008H156.388V32.24C156.388 31.744 156.54 31.36 156.844 31.088C157.164 30.8 157.548 30.656 157.996 30.656C158.428 30.656 158.796 30.8 159.1 31.088C159.42 31.36 159.58 31.744 159.58 32.24V33.008H161.164V32.24C161.164 31.744 161.316 31.36 161.62 31.088C161.94 30.8 162.324 30.656 162.772 30.656C163.22 30.656 163.596 30.8 163.9 31.088C164.204 31.36 164.356 31.744 164.356 32.24V33.008H165.316C165.764 33.008 166.116 33.152 166.372 33.44C166.628 33.712 166.756 34.048 166.756 34.448C166.756 34.832 166.628 35.168 166.372 35.456C166.116 35.728 165.764 35.864 165.316 35.864H164.356V37.616H165.724C166.172 37.616 166.524 37.76 166.78 38.048C167.036 38.32 167.164 38.656 167.164 39.056C167.164 39.456 167.036 39.792 166.78 40.064C166.524 40.336 166.172 40.472 165.724 40.472H164.356V43.472C164.356 43.968 164.204 44.36 163.9 44.648C163.596 44.936 163.22 45.08 162.772 45.08ZM159.58 37.616H161.164V35.864H159.58V37.616ZM174.22 47.696C173.772 47.504 173.452 47.176 173.26 46.712C173.084 46.248 173.1 45.792 173.308 45.344C173.596 44.736 173.94 43.992 174.34 43.112C174.756 42.216 175.212 41.248 175.708 40.208C176.22 39.152 176.74 38.08 177.268 36.992C177.796 35.888 178.308 34.824 178.804 33.8C179.316 32.76 179.788 31.808 180.22 30.944C180.668 30.064 181.052 29.328 181.372 28.736C181.596 28.304 181.948 28.024 182.428 27.896C182.924 27.768 183.38 27.832 183.796 28.088C184.228 28.328 184.508 28.688 184.636 29.168C184.78 29.648 184.724 30.096 184.468 30.512C184.116 31.12 183.66 31.96 183.1 33.032C182.54 34.104 181.948 35.272 181.324 36.536C181.708 36.44 182.1 36.392 182.5 36.392C184.068 36.392 185.164 36.912 185.788 37.952C186.412 38.992 186.476 40.392 185.98 42.152C185.788 42.84 185.756 43.32 185.884 43.592C186.028 43.848 186.308 43.976 186.724 43.976C187.028 43.976 187.324 43.912 187.612 43.784C187.916 43.64 188.228 43.328 188.548 42.848C188.868 42.368 189.22 41.632 189.604 40.64C189.78 40.176 190.1 39.848 190.564 39.656C191.044 39.448 191.508 39.432 191.956 39.608C192.42 39.784 192.756 40.104 192.964 40.568C193.172 41.032 193.196 41.496 193.036 41.96C192.364 43.848 191.508 45.24 190.468 46.136C189.444 47.032 188.124 47.48 186.508 47.48C185.42 47.48 184.508 47.264 183.772 46.832C183.052 46.384 182.564 45.728 182.308 44.864C182.068 43.984 182.132 42.896 182.5 41.6C182.692 40.928 182.7 40.472 182.524 40.232C182.364 39.976 182.036 39.848 181.54 39.848C180.98 39.848 180.428 40.072 179.884 40.52C179.356 40.968 178.86 41.68 178.396 42.656C178.332 42.8 178.212 43.064 178.036 43.448C177.86 43.832 177.676 44.248 177.484 44.696C177.292 45.128 177.116 45.528 176.956 45.896C176.796 46.248 176.692 46.48 176.644 46.592C176.436 47.056 176.108 47.408 175.66 47.648C175.212 47.888 174.732 47.904 174.22 47.696ZM211.948 48.104C209.996 47.832 208.38 47.264 207.1 46.4C205.82 45.536 204.868 44.504 204.244 43.304C203.62 42.088 203.308 40.808 203.308 39.464C203.308 38.28 203.5 37.192 203.884 36.2C204.284 35.208 204.852 34.312 205.588 33.512C204.548 33.688 203.532 33.864 202.54 34.04C201.548 34.216 200.636 34.376 199.804 34.52C198.972 34.664 198.276 34.784 197.716 34.88C197.236 34.96 196.796 34.856 196.396 34.568C196.012 34.264 195.78 33.872 195.7 33.392C195.636 32.896 195.74 32.448 196.012 32.048C196.3 31.648 196.692 31.416 197.188 31.352C197.876 31.256 198.748 31.128 199.804 30.968C200.876 30.792 202.02 30.608 203.236 30.416C204.468 30.208 205.692 30.008 206.908 29.816C208.124 29.608 209.244 29.416 210.268 29.24C211.292 29.048 212.116 28.888 212.74 28.76C213.204 28.664 213.636 28.76 214.036 29.048C214.436 29.32 214.684 29.688 214.78 30.152C214.876 30.616 214.796 31.056 214.54 31.472C214.3 31.888 213.94 32.136 213.46 32.216C212.388 32.36 211.444 32.664 210.628 33.128C209.812 33.592 209.124 34.16 208.564 34.832C208.004 35.504 207.58 36.224 207.292 36.992C207.004 37.76 206.86 38.52 206.86 39.272C206.86 40.696 207.348 41.872 208.324 42.8C209.3 43.728 210.676 44.32 212.452 44.576C212.948 44.64 213.34 44.872 213.628 45.272C213.932 45.672 214.044 46.112 213.964 46.592C213.9 47.088 213.668 47.48 213.268 47.768C212.884 48.056 212.444 48.168 211.948 48.104ZM217.228 36.248C216.988 36.472 216.692 36.576 216.34 36.56C216.004 36.544 215.724 36.4 215.5 36.128C215.34 35.952 215.108 35.68 214.804 35.312C214.5 34.944 214.236 34.632 214.012 34.376C213.868 34.2 213.804 33.96 213.82 33.656C213.836 33.352 213.964 33.096 214.204 32.888C214.396 32.712 214.636 32.616 214.924 32.6C215.212 32.584 215.468 32.664 215.692 32.84C215.948 33.048 216.236 33.312 216.556 33.632C216.892 33.952 217.164 34.256 217.372 34.544C217.58 34.8 217.668 35.088 217.636 35.408C217.62 35.728 217.484 36.008 217.228 36.248ZM214.588 38.36C214.332 38.552 214.036 38.624 213.7 38.576C213.364 38.528 213.1 38.36 212.908 38.072C212.78 37.864 212.572 37.568 212.284 37.184C212.012 36.784 211.78 36.448 211.588 36.176C211.46 35.984 211.42 35.744 211.468 35.456C211.516 35.152 211.668 34.904 211.924 34.712C212.132 34.552 212.38 34.48 212.668 34.496C212.956 34.512 213.204 34.616 213.412 34.808C213.652 35.032 213.916 35.328 214.204 35.696C214.508 36.048 214.748 36.376 214.924 36.68C215.1 36.968 215.156 37.264 215.092 37.568C215.044 37.872 214.876 38.136 214.588 38.36Z" fill="white"/>
</svg>
