<svg width="289" height="79" viewBox="0 0 289 79" fill="none" xmlns="http://www.w3.org/2000/svg">
<path d="M3 42.1621C3 26.418 14.2082 12.9043 29.6807 9.99311L55.6167 5.11317C59.5524 4.37266 63.5484 4 67.5531 4H144.533H222.033L252.644 6.55518C268.377 7.86849 281.134 19.8435 283.439 35.4623V35.4623C286.402 55.5451 271.214 73.7301 250.925 74.392L109.691 79L33.9413 74.8464C16.5855 73.8947 3 59.5439 3 42.1621V42.1621Z" fill="#6BA9E2"/>
<path d="M0 38.1621C0 22.418 11.2082 8.90432 26.6807 5.99311L52.6167 1.11317C56.5524 0.372665 60.5484 0 64.5531 0H141.533H219.033L249.644 2.55518C265.377 3.86849 278.134 15.8435 280.439 31.4623V31.4623C283.402 51.5451 268.214 69.7301 247.925 70.392L106.691 75L30.9413 70.8464C13.5855 69.8947 0 55.5439 0 38.1621V38.1621Z" fill="white"/>
</svg>