<svg width="87" height="60" viewBox="0 0 87 60" fill="none" xmlns="http://www.w3.org/2000/svg">
<g clip-path="url(#clip0_2312_19)">
<path d="M4.34599 27.2579C6.52083 18.7325 12.2601 11.5558 20.0986 7.55964C23.3341 5.91017 26.8374 4.84982 30.4445 4.42821L43.3821 2.91602C48.4275 2.3263 53.5333 2.50888 58.5237 3.45746L63.1821 4.34296C68.6018 5.37315 73.703 7.66444 78.073 11.0315L79.1894 11.8917C80.8733 13.1891 82.3805 14.7009 83.6728 16.3888C87.7149 21.6683 89.4284 28.3682 88.4174 34.94L88.2819 35.8207C88.0768 37.154 87.9737 38.5011 87.9737 39.8502V49.8439C87.9737 53.7489 87.5073 57.6399 86.5844 61.4342L85.5503 65.6852C85.1417 67.365 84.4972 68.9785 83.6361 70.4776C81.5276 74.148 78.2123 76.9743 74.2545 78.4755L68.7429 80.5661C63.5166 82.5485 57.8897 83.2425 52.3383 82.5894L49.2762 82.2292C45.4825 81.7829 41.6487 81.7967 37.8583 82.2705L34.2352 82.7234C29.684 83.2923 25.0681 83.0513 20.601 82.0116C12.6368 80.1578 6.22496 74.2687 3.70227 66.4904L3.0725 64.5486C2.15216 61.7109 1.51695 58.7885 1.1763 55.8248L0.990876 54.2116C0.335193 48.5072 0.667006 42.7324 1.97176 37.1406L3.54597 30.394L4.34599 27.2579Z" fill="#D5EDFA"/>
<path d="M63.6936 16.3092C63.1117 15.5732 62.4076 14.9428 61.612 14.4456L49.5998 6.93794C47.5694 5.66891 48.1503 2.56799 50.5024 2.11997C50.8275 2.05805 51.1613 2.05799 51.4864 2.11979L63.1822 4.34294C68.6019 5.37313 73.703 7.66442 78.073 11.0315L79.1894 11.8917C80.8733 13.1891 82.3805 14.7009 83.6728 16.3888C87.7149 21.6683 89.4284 28.3682 88.4174 34.94L88.2819 35.8207C88.0768 37.154 87.9737 38.5011 87.9737 39.8502V52.3316C87.9737 54.1394 87.842 55.9448 87.5797 57.7335L86.9723 61.8747C86.4118 65.6967 84.8445 69.3008 82.4314 72.3173C79.9805 75.3809 76.7474 77.7254 73.0739 79.1029L66.5291 81.5572L66.8858 81.148C70.4289 77.084 73.0002 72.2666 74.4048 67.0612C74.8933 65.251 75.1407 63.3842 75.1407 61.5092V45.591C75.1407 37.4228 72.8547 29.4029 68.5554 22.4578L63.6936 16.3092Z" fill="#C4E5F6"/>
<path d="M2.17158 20.7387C5.22733 12.0539 12.5881 5.58936 21.5947 3.68043L23.8927 3.19339L38.9088 0.930623C43.01 0.31262 47.1722 0.207302 51.2994 0.617095L63.0328 1.78212C66.9041 2.1665 70.6665 3.28634 74.1179 5.0815L75.3692 5.73235C80.6379 8.47273 84.8331 12.9039 87.2812 18.3146C88.5219 21.0567 89.2862 23.9901 89.5415 26.9889L89.797 29.992C89.8198 30.2596 89.8227 30.5286 89.8057 30.7966L89.6094 33.8882C89.4166 36.9245 85.9052 38.5077 83.5022 36.6417C79.3832 33.6774 74.4368 32.0826 69.362 32.0826H62.6435C59.5431 32.0826 56.6039 30.7009 54.6257 28.3134C50.946 23.8724 44.3576 23.2684 39.9317 26.9662L36.8141 29.571C32.5951 33.0959 26.4701 33.1377 22.2035 29.6706C19.69 27.6282 16.0937 27.611 13.5609 29.6294L7.09204 34.7842C4.55388 36.9216 0.675537 35.1173 0.675537 31.7991V26.1093C0.675537 25.3689 0.801079 24.6338 1.04682 23.9354L2.17158 20.7387Z" fill="#77CDF2"/>
<path d="M2.36401 20.0938C5.30121 11.8067 12.3359 5.6428 20.9371 3.8198L23.8926 3.19339L38.9087 0.930623C43.0099 0.31262 47.1721 0.207302 51.2993 0.617095L63.1961 1.79835C66.9595 2.17201 70.6169 3.26061 73.9721 5.00571C80.1304 8.2088 84.973 13.4668 87.6597 19.8673L88.818 22.6266L84.9343 17.7298C82.8347 15.0777 80.056 13.0438 76.8933 11.8442L74.7373 11.0264C72.8731 10.3193 70.9365 9.82022 68.9628 9.53825L62.9839 8.68413C59.5034 8.18691 55.9802 8.05819 52.4727 8.30009L43.0582 8.94936H35.1985C30.5939 8.94936 26.0511 10.0093 21.922 12.047L15.197 15.3659L2.36401 20.0938Z" fill="#86D5F8"/>
<path d="M5.28886 27.579C6.13732 27.8741 7.05002 27.9332 7.92946 27.75L14.0455 26.4758C17.1398 25.8312 20.3376 25.8709 23.4149 26.5921C27.422 27.5313 31.6135 27.3106 35.4997 25.9557L38.3966 24.9458C44.5077 22.8153 51.2205 23.2462 57.009 26.1405C58.6227 26.9473 60.3223 27.5694 62.0755 27.9949L76.8294 31.576C81.7472 32.0725 86.3749 29.1681 88.066 24.5235L88.8181 22.4578L89.7663 29.8851C89.8095 30.2236 89.8204 30.5654 89.7987 30.9059L89.6094 33.8882C89.4166 36.9245 85.9052 38.5076 83.5022 36.6416C79.3832 33.6774 74.4368 32.0825 69.362 32.0825H62.6435C59.5431 32.0825 56.6039 30.7008 54.6257 28.3134C50.946 23.8724 44.3576 23.2683 39.9317 26.9662L36.8141 29.5709C32.5951 33.0959 26.4701 33.1376 22.2035 29.6706C19.6901 27.6282 16.0937 27.611 13.5609 29.6293L7.09206 34.7842C4.47562 37.0082 0.459836 35.0961 0.536984 31.663L0.655218 26.4016C0.668699 25.8017 0.767265 25.2067 0.947966 24.6345L1.68868 22.2889L2.08591 24.0102C2.46922 25.6713 3.67879 27.019 5.28886 27.579Z" fill="#62C8F4"/>
<path d="M21.9511 52.0075C23.8162 52.0075 25.3282 50.4955 25.3282 48.6304C25.3282 46.7653 23.8162 45.2533 21.9511 45.2533C20.086 45.2533 18.574 46.7653 18.574 48.6304C18.574 50.4955 20.086 52.0075 21.9511 52.0075Z" fill="#003C57"/>
<path d="M52.3451 52.0075C54.2103 52.0075 55.7222 50.4955 55.7222 48.6304C55.7222 46.7653 54.2103 45.2533 52.3451 45.2533C50.48 45.2533 48.968 46.7653 48.968 48.6304C48.968 50.4955 50.48 52.0075 52.3451 52.0075Z" fill="#003C57"/>
<path d="M35.1221 54.7092C35.9842 56.0024 37.8272 56.1529 38.8876 55.0166L39.1746 54.7092" stroke="#003C57" stroke-width="2" stroke-linecap="round"/>
<path d="M16.7392 7.04551C17.3928 6.81403 18.0902 6.73324 18.7794 6.80918L19.6314 6.90307C20.5975 7.00953 21.45 7.58289 21.9129 8.43753C22.6202 9.74342 22.2518 11.3712 21.0511 12.2453L18.6616 13.9848L15.3444 16.1314C14.5708 16.632 13.6163 16.7673 12.7341 16.5013C10.9568 15.9654 10.0308 14.0118 10.7413 12.2967L11.0289 11.6025C11.2078 11.1705 11.4646 10.7751 11.7865 10.4359L12.7765 9.39249C13.6628 8.45846 14.7575 7.74743 15.9713 7.31753L16.7392 7.04551Z" fill="white"/>
<path d="M6.39618 18.0759C6.69787 17.9383 7.0356 17.9006 7.36021 17.9683C7.86533 18.0736 8.28551 18.4222 8.48219 18.8992L8.9873 20.1243C9.47136 21.6667 8.32563 23.2376 6.70909 23.2481L6.13768 23.2518C5.85356 23.2536 5.57267 23.1915 5.3158 23.0701C4.49348 22.6813 4.06346 21.7631 4.29139 20.8825L4.41493 20.4052C4.48321 20.1415 4.59431 19.8907 4.74381 19.6629L5.14699 19.0485C5.39355 18.6729 5.74132 18.3746 6.15016 18.1881L6.39618 18.0759Z" fill="white"/>
<path d="M6.39618 18.0759C6.69787 17.9383 7.0356 17.9006 7.36021 17.9683C7.86533 18.0736 8.28551 18.4222 8.48219 18.8992L8.9873 20.1243C9.47136 21.6667 8.32563 23.2376 6.70909 23.2481L6.13768 23.2518C5.85356 23.2536 5.57267 23.1915 5.3158 23.0701C4.49348 22.6813 4.06346 21.7631 4.29139 20.8825L4.41493 20.4052C4.48321 20.1415 4.59431 19.8907 4.74381 19.6629L5.14699 19.0485C5.39355 18.6729 5.74132 18.3746 6.15016 18.1881L6.39618 18.0759Z" fill="white"/>
<path d="M65.5815 24.3166C66.1338 24.5764 66.7495 24.7116 67.3805 24.7116C68.324 24.7116 69.2238 25.0137 69.9266 25.5665L70.5345 26.0447C70.6809 26.1598 70.8036 26.2982 70.8972 26.4539L71.0311 26.6764C71.328 27.1698 71.2131 27.8018 70.7525 28.2085C70.5736 28.3665 70.3544 28.4792 70.1174 28.5351L69.1355 28.7664C68.3822 28.944 67.6025 28.9614 66.8564 28.8174L66.3839 28.7263C65.4387 28.5439 64.5528 28.1827 63.7807 27.6651L62.9789 27.1275C62.741 26.968 62.5364 26.7705 62.3743 26.5437L62.073 26.1225C61.7798 25.7125 61.7396 25.1834 61.9665 24.7183C62.2814 24.073 63.0331 23.6993 63.7688 23.8224L64.5847 23.9588C64.8277 23.9995 65.0617 24.0721 65.2796 24.1746L65.5815 24.3166Z" fill="white"/>
<path d="M60.0425 21.3539C60.3258 21.8717 60.4386 22.4602 60.3646 23.0348L60.3037 23.5068C60.2623 23.8282 60.1094 24.122 59.8709 24.3385C59.6276 24.5594 59.3107 24.6857 58.9761 24.6952L58.4525 24.71C58.1893 24.7174 57.9251 24.6887 57.6676 24.6247L56.6398 24.3691C56.3089 24.2868 56.0019 24.1233 55.7477 23.8939L55.5865 23.7485C55.2029 23.4024 55.0058 22.8992 55.0574 22.3972C55.0843 22.1353 55.1777 21.8864 55.329 21.6736L55.7426 21.0915C55.9407 20.8127 56.1952 20.5787 56.4908 20.4035L56.9911 20.107C57.9419 19.5435 59.1989 19.8827 59.7706 20.8571L60.0425 21.3539Z" fill="white"/>
</g>
<defs>
<clipPath id="clip0_2312_19">
<rect width="87" height="60" fill="white"/>
</clipPath>
</defs>
</svg>
