<svg width="202" height="187" viewBox="0 0 202 187" fill="none" xmlns="http://www.w3.org/2000/svg">
<path d="M12.5769 53.8894C16.098 39.9511 25.4483 28.2028 38.2409 21.6435L48.3607 16.4546C53.6411 13.7471 59.3612 12.0012 65.2535 11.2985L106.505 6.37948C111.549 5.77799 116.655 5.94866 121.647 6.88561L147.807 11.795C155.52 13.2423 162.783 16.4844 169.01 21.259L177.263 27.5878C180.719 30.2373 183.813 33.3268 186.468 36.7779L187.911 38.6541C196.216 49.4487 199.758 63.1638 197.718 76.6297L197.049 81.0493C196.668 83.566 196.479 86.1081 196.485 88.6535L196.555 118.611C196.564 122.592 196.098 126.561 195.166 130.432L191.235 146.757C190.336 150.492 188.912 154.081 187.006 157.416V157.416C182.34 165.584 174.987 171.882 166.2 175.238L147.723 182.296C140.219 185.162 132.135 186.179 124.155 185.259L104.043 182.94C100.04 182.479 95.996 182.503 91.999 183.012L70.852 185.705C64.9999 186.451 59.0621 186.155 53.3132 184.831L34.9699 180.606C24.7205 178.246 16.4558 170.69 13.1877 160.693L6.40075 139.932C5.3684 136.774 4.65338 133.521 4.2663 130.221L2.03089 111.165C1.36191 105.462 1.68026 99.6863 2.97197 94.0915L8.82108 68.7571L12.5769 53.8894Z" fill="#D5EDFA"/>
<path d="M142.409 37.1458C141.112 35.5134 139.544 34.1162 137.774 33.0153L111.041 16.394C106.522 13.5845 107.797 6.69058 113.022 5.68279V5.68279C113.744 5.5435 114.486 5.54163 115.209 5.67728L147.807 11.795C155.519 13.2423 162.783 16.4844 169.01 21.259L177.263 27.5878C180.719 30.2373 183.813 33.3268 186.468 36.7779L187.911 38.6541C196.216 49.4487 199.758 63.1638 197.718 76.6297L197.049 81.0493C196.668 83.566 196.479 86.1081 196.485 88.6535L196.557 119.457C196.563 121.885 196.391 124.31 196.045 126.713L194.376 138.282C193.15 146.778 189.686 154.795 184.339 161.511V161.511C178.908 168.332 171.736 173.558 163.58 176.639L149.048 182.126L154.213 176.175C159.187 170.442 162.791 163.652 164.751 156.319L167.069 147.65C167.751 145.1 168.093 142.471 168.087 139.832L167.999 102.157L167.967 88.6136C167.946 79.3155 165.332 70.2077 160.419 62.3133L153.245 50.7842L142.409 37.1458Z" fill="#C4E5F6"/>
<path d="M7.31818 42.7222C13.0691 26.2549 26.9861 13.9748 44.0413 10.3184L53.8948 8.20597L94.7976 1.94482C98.8973 1.31725 103.059 1.20223 107.187 1.6024L144.303 5.2003C150.637 5.81427 156.795 7.63161 162.448 10.5548L171.027 14.9916C180.983 20.1404 188.92 28.4852 193.564 38.6862L195.467 42.8662C197.821 48.0359 199.276 53.5689 199.771 59.2277L200.487 67.4169C200.539 68.0115 200.547 68.6091 200.511 69.2048L200.091 76.076C199.678 82.8244 191.883 86.3607 186.533 82.2264V82.2264L185.539 81.5141C177.017 75.4114 166.792 72.1411 156.311 72.1655L140.157 72.2032C133.267 72.2193 126.729 69.1641 122.32 63.8689V63.8689C114.12 54.0192 99.4762 52.711 89.6601 60.9512L82.7456 66.7557C73.3884 74.6108 59.7775 74.7354 50.2782 67.0529V67.0529C44.6822 62.5272 36.6903 62.5077 31.0723 67.006L16.7238 78.4948V78.4948C11.0945 83.2577 2.46663 79.2682 2.44943 71.8943L2.41995 59.2504C2.41612 57.605 2.69129 55.9709 3.23377 54.4176L7.31818 42.7222Z" fill="#77CDF2"/>
<path d="M7.2824 42.6298C13.0575 26.2142 26.9523 13.982 43.9676 10.3342L53.8947 8.20593L94.7975 1.94478C98.8973 1.31722 103.059 1.20219 107.187 1.60236L144.303 5.20026C150.637 5.81423 156.795 7.63157 162.448 10.5547L170.34 14.6365C180.715 20.0019 188.884 28.83 193.43 39.5891L198.274 51.0545L189.618 40.1928V40.1928C184.939 34.3101 178.753 29.8048 171.719 27.1553L165.868 24.9517C162.423 23.6542 158.845 22.741 155.2 22.2289L134.392 19.3058C130.91 18.8167 127.387 18.6962 123.88 18.9463L96.5146 20.8976L70.4937 20.9583C65.8891 20.9691 61.3488 22.0396 57.2245 24.0869L34.6343 35.3009L6.1411 45.8739L7.2824 42.6298Z" fill="#86D5F8"/>
<path d="M12.6793 62.4926C14.5663 63.144 16.5948 63.2706 18.5482 62.8589L32.1327 59.9957C39.0056 58.5471 46.112 58.6188 52.9543 60.2056V60.2056C61.8637 62.2718 71.1771 61.7596 79.8061 58.7287L87.542 56.0115C100.278 51.5383 114.281 52.4043 126.368 58.4128L127.937 59.1928C131.307 60.8678 134.855 62.157 138.513 63.036L171.679 71.004V71.004C182.61 72.082 192.878 65.6037 196.612 55.2737L198.273 50.6793L200.418 67.1796C200.516 67.9314 200.542 68.6909 200.496 69.4477L200.09 76.076C199.678 82.8244 191.883 86.3606 186.533 82.2264V82.2264L185.539 81.5141C177.017 75.4113 166.792 72.141 156.311 72.1655L140.157 72.2032C133.267 72.2192 126.729 69.164 122.32 63.8688V63.8688C114.12 54.0191 99.4761 52.7109 89.6601 60.9512L82.7455 66.7557C73.3883 74.6107 59.7775 74.7353 50.2781 67.0528V67.0528C44.6822 62.5272 36.6903 62.5076 31.0723 67.0059L16.7237 78.4947V78.4947C10.921 83.4504 1.98714 79.2221 2.14079 71.5928L2.37627 59.9001C2.40312 58.5669 2.61907 57.2442 3.01766 55.9717L4.65153 50.7555L5.54317 54.5786C6.40358 58.2677 9.0985 61.2564 12.6793 62.4926V62.4926Z" fill="#62C8F4"/>
<ellipse cx="48.5116" cy="95.0175" rx="7.5" ry="5" transform="rotate(-0.133595 48.5116 95.0175)" fill="#003C57"/>
<path d="M125.018 95.4825C125.025 98.2439 121.672 100.49 117.53 100.5C113.388 100.51 110.025 98.2789 110.018 95.5175C110.012 92.7561 113.364 90.5097 117.507 90.5C121.649 90.4904 125.012 92.7211 125.018 95.4825Z" fill="#003C57"/>
<path d="M79 109.021V109.021C80.9226 111.89 85.0188 112.215 87.3695 109.685L88.0056 109" stroke="#003C57" stroke-width="5" stroke-linecap="round"/>
<path d="M38.0186 16.8033C39.4697 16.2855 41.0191 16.1023 42.551 16.2675L44.4449 16.4718C46.5923 16.7033 48.4897 17.9731 49.5228 19.8698V19.8698C51.1014 22.7682 50.2912 26.3873 47.6275 28.3359L42.3264 32.2139L34.9659 37.0014C33.2495 38.1178 31.1291 38.4233 29.1674 37.8368V37.8368C25.2149 36.6551 23.1471 32.3187 24.7171 28.5037L25.3525 26.9595C25.748 25.9986 26.3166 25.1185 27.03 24.3631L29.2247 22.0393C31.1894 19.9591 33.6185 18.3734 36.3134 17.4118L38.0186 16.8033Z" fill="white"/>
<path d="M15.0913 41.3689C15.761 41.0615 16.5113 40.976 17.233 41.1247V41.1247C18.3561 41.356 19.2916 42.1286 19.7311 43.1876L20.8599 45.9073V45.9073C21.9436 49.3324 19.4057 52.8294 15.8135 52.8609L14.5437 52.8721C13.9123 52.8776 13.2878 52.7411 12.7163 52.4726V52.4726C10.8869 51.613 9.92659 49.5746 10.4285 47.6167L10.7006 46.5554C10.851 45.9689 11.0966 45.411 11.4276 44.904L12.3204 43.5367C12.8663 42.7006 13.6376 42.036 14.5452 41.6195L15.0913 41.3689Z" fill="white"/>
<path d="M15.0913 41.3689C15.761 41.0615 16.5113 40.976 17.233 41.1247V41.1247C18.3561 41.356 19.2916 42.1286 19.7311 43.1876L20.8599 45.9073V45.9073C21.9436 49.3324 19.4057 52.8294 15.8135 52.8609L14.5437 52.8721C13.9123 52.8776 13.2878 52.7411 12.7163 52.4726V52.4726C10.8869 51.613 9.92659 49.5746 10.4285 47.6167L10.7006 46.5554C10.851 45.9689 11.0966 45.411 11.4276 44.904L12.3204 43.5367C12.8663 42.7006 13.6376 42.036 14.5452 41.6195L15.0913 41.3689Z" fill="white"/>
<path d="M146.646 54.9304C147.875 55.5048 149.244 55.802 150.646 55.7987V55.7987C152.743 55.7939 154.743 56.4606 156.308 57.6855L157.662 58.745C157.987 59 158.261 59.307 158.47 59.6524L158.768 60.1461C159.431 61.241 159.179 62.6461 158.157 63.5523V63.5523C157.761 63.9042 157.274 64.1559 156.748 64.2812L154.567 64.8005C152.894 65.1989 151.161 65.2417 149.502 64.9256L148.452 64.7254C146.351 64.325 144.38 63.5271 142.662 62.3808L140.877 61.1903C140.347 60.837 139.892 60.3992 139.53 59.8962L138.859 58.9617C138.205 58.0521 138.113 56.8764 138.615 55.8419V55.8419C139.311 54.4062 140.98 53.5719 142.615 53.8415L144.429 54.1405C144.969 54.2295 145.49 54.3898 145.974 54.6164L146.646 54.9304Z" fill="white"/>
<path d="M134.322 48.3752C134.954 49.5244 135.208 50.8317 135.046 52.1089L134.914 53.1582C134.823 53.8724 134.485 54.5262 133.956 55.0086V55.0086C133.417 55.5007 132.713 55.7831 131.969 55.8058L130.806 55.8414C130.221 55.8593 129.634 55.7969 129.061 55.6559L126.776 55.0932C126.04 54.9121 125.357 54.5504 124.791 54.0419L124.432 53.7196C123.578 52.9525 123.137 51.8353 123.249 50.7195V50.7195C123.308 50.1374 123.514 49.5838 123.849 49.11L124.765 47.8143C125.204 47.1939 125.768 46.6724 126.424 46.2816L127.535 45.6202C129.645 44.363 132.44 45.1103 133.715 47.2726V47.2726L134.322 48.3752Z" fill="white"/>
<path d="M32.299 160.26L48.1597 164.043C51.3445 164.803 54.5962 165.248 57.868 165.372L97.2301 166.863L138.679 165.205C142.55 165.05 146.39 164.446 150.122 163.404L169.255 158.064L179.427 154.459C182.368 153.416 184.851 156.858 182.933 159.32V159.32C182.822 159.462 182.7 159.595 182.566 159.716L179.428 162.558C174.495 167.026 168.511 170.17 162.033 171.699V171.699L148.322 176.484C141.867 178.737 135.018 179.642 128.2 179.144L118.646 178.445L93.1271 177.379L72.6543 179.364C67.8211 179.832 62.9455 179.594 58.181 178.657L41.4384 175.364L36.5343 173.958C33.5104 173.09 30.6906 171.627 28.2409 169.653L25.5576 167.491C24.5704 166.696 23.7747 165.689 23.2293 164.544V164.544C22.0993 162.173 23.9855 159.475 26.6006 159.722L32.299 160.26Z" fill="#66BDEC" fill-opacity="0.2"/>
<path d="M13.7361 85.1145L20.3847 85.099L22.4653 99.5519C22.8006 101.881 21.6643 104.176 19.6086 105.321L19.4439 105.413C17.7527 106.355 15.6848 106.311 14.0352 105.298V105.298C12.2077 104.175 11.2258 102.071 11.5399 99.9496L13.7361 85.1145Z" fill="url(#paint0_linear_0_1)"/>
<path d="M13.1396 102.17C12.9444 101.654 13.08 101.07 13.483 100.693V100.693C13.6767 100.511 13.9191 100.39 14.1806 100.344L14.5141 100.286C15.1555 100.173 15.8154 100.315 16.3536 100.682L17.1486 101.224L17.6915 101.662C17.9764 101.892 18.1957 102.193 18.3271 102.534L18.4153 102.764C18.5289 103.059 18.538 103.384 18.4411 103.686V103.686C18.2572 104.258 17.7257 104.646 17.1249 104.647L16.9788 104.648L16.2501 104.629C15.7724 104.617 15.3031 104.5 14.8751 104.287L14.5719 104.137C14.0261 103.865 13.603 103.398 13.3877 102.827L13.1396 102.17Z" fill="white"/>
<path d="M151.792 108.793L158.44 108.777L160.521 123.23C160.856 125.559 159.72 127.854 157.664 128.999L157.499 129.091C155.808 130.033 153.74 129.989 152.091 128.976V128.976C150.263 127.854 149.281 125.749 149.595 123.628L151.792 108.793Z" fill="url(#paint1_linear_0_1)"/>
<path d="M151.195 125.849C151 125.332 151.136 124.748 151.539 124.371V124.371C151.732 124.189 151.975 124.068 152.236 124.022L152.57 123.964C153.211 123.851 153.871 123.994 154.409 124.36L155.204 124.902L155.747 125.34C156.032 125.57 156.251 125.871 156.383 126.213L156.471 126.442C156.584 126.737 156.594 127.063 156.497 127.364V127.364C156.313 127.936 155.781 128.324 155.18 128.325L155.034 128.326L154.306 128.307C153.828 128.295 153.359 128.178 152.931 127.966L152.627 127.815C152.082 127.544 151.659 127.076 151.443 126.506L151.195 125.849Z" fill="white"/>
<defs>
<linearGradient id="paint0_linear_0_1" x1="16.9794" y1="85.1069" x2="17.0303" y2="106.937" gradientUnits="userSpaceOnUse">
<stop stop-color="#77CDF2" stop-opacity="0"/>
<stop offset="1" stop-color="#77CDF2"/>
</linearGradient>
<linearGradient id="paint1_linear_0_1" x1="155.035" y1="108.785" x2="155.086" y2="130.615" gradientUnits="userSpaceOnUse">
<stop stop-color="#77CDF2" stop-opacity="0"/>
<stop offset="1" stop-color="#77CDF2"/>
</linearGradient>
</defs>
</svg>
