<svg width="87" height="84" viewBox="0 0 87 84" fill="none" xmlns="http://www.w3.org/2000/svg">
<path d="M4.34599 27.2579C6.52083 18.7325 12.2601 11.5558 20.0986 7.55964C23.3341 5.91017 26.8374 4.84982 30.4445 4.42821L43.3821 2.91602C48.4275 2.3263 53.5333 2.50888 58.5237 3.45746L63.1821 4.34296C68.6018 5.37315 73.703 7.66444 78.073 11.0315L79.1894 11.8917C80.8733 13.1891 82.3805 14.7009 83.6728 16.3888C87.7149 21.6683 89.4284 28.3682 88.4174 34.94L88.2819 35.8207C88.0768 37.154 87.9737 38.5011 87.9737 39.8502V49.8439C87.9737 53.7489 87.5073 57.6399 86.5844 61.4342L85.5503 65.6852C85.1417 67.365 84.4972 68.9785 83.6361 70.4776C81.5276 74.148 78.2123 76.9743 74.2545 78.4755L68.7429 80.5661C63.5166 82.5485 57.8897 83.2425 52.3383 82.5894L49.2762 82.2292C45.4825 81.7829 41.6487 81.7967 37.8583 82.2705L34.2352 82.7234C29.684 83.2923 25.0681 83.0513 20.601 82.0116C12.6368 80.1578 6.22496 74.2687 3.70227 66.4904L3.0725 64.5486C2.15216 61.7109 1.51695 58.7885 1.1763 55.8248L0.990875 54.2116C0.335192 48.5072 0.667005 42.7324 1.97176 37.1406L3.54597 30.394L4.34599 27.2579Z" fill="#D5EDFA"/>
<path d="M63.6936 16.3092C63.1117 15.5732 62.4076 14.9428 61.612 14.4456L49.5998 6.93796C47.5694 5.66893 48.1503 2.56801 50.5024 2.11999C50.8275 2.05807 51.1613 2.05801 51.4864 2.11981L63.1822 4.34296C68.6019 5.37315 73.703 7.66444 78.073 11.0315L79.1894 11.8917C80.8733 13.1891 82.3805 14.7009 83.6728 16.3888C87.7149 21.6683 89.4284 28.3682 88.4174 34.94L88.2819 35.8207C88.0768 37.154 87.9737 38.5011 87.9737 39.8502V52.3316C87.9737 54.1394 87.842 55.9448 87.5797 57.7335L86.9723 61.8747C86.4118 65.6967 84.8445 69.3008 82.4314 72.3173C79.9805 75.3809 76.7474 77.7254 73.0739 79.1029L66.5291 81.5572L66.8858 81.148C70.4289 77.084 73.0002 72.2666 74.4048 67.0612C74.8933 65.251 75.1407 63.3842 75.1407 61.5092V45.591C75.1407 37.4228 72.8547 29.4029 68.5554 22.4578L63.6936 16.3092Z" fill="#C4E5F6"/>
<path d="M2.17147 20.7387C5.22722 12.0539 12.588 5.58934 21.5946 3.68041L23.8926 3.19337L38.9087 0.930606C43.0099 0.312603 47.1721 0.207285 51.2993 0.617078L63.0327 1.7821C66.904 2.16648 70.6664 3.28632 74.1178 5.08148L75.3691 5.73233C80.6378 8.47271 84.833 12.9039 87.2811 18.3146C88.5218 21.0567 89.2861 23.9901 89.5414 26.9889L89.7969 29.992C89.8197 30.2596 89.8226 30.5286 89.8056 30.7966L89.6093 33.8882C89.4165 36.9245 85.9051 38.5077 83.5021 36.6417C79.3831 33.6774 74.4367 32.0826 69.3619 32.0826H62.6434C59.543 32.0826 56.6038 30.7009 54.6256 28.3134C50.9459 23.8724 44.3575 23.2684 39.9316 26.9662L36.814 29.571C32.595 33.0959 26.47 33.1377 22.2034 29.6706C19.6899 27.6282 16.0936 27.611 13.5608 29.6294L7.09193 34.7842C4.55377 36.9216 0.675423 35.1173 0.675423 31.7991V26.1093C0.675423 25.3689 0.800965 24.6338 1.04671 23.9354L2.17147 20.7387Z" fill="#77CDF2"/>
<path d="M2.36398 20.0938C5.30118 11.8067 12.3359 5.64278 20.9371 3.81978L23.8926 3.19337L38.9087 0.930606C43.0099 0.312603 47.1721 0.207285 51.2993 0.617078L63.1961 1.79833C66.9595 2.17199 70.6169 3.26059 73.9721 5.00569C80.1304 8.20878 84.973 13.4668 87.6597 19.8673L88.818 22.6266L84.9343 17.7298C82.8347 15.0777 80.056 13.0438 76.8933 11.8442L74.7373 11.0264C72.8731 10.3193 70.9365 9.8202 68.9628 9.53823L62.9839 8.68411C59.5034 8.18689 55.9802 8.05817 52.4727 8.30007L43.0582 8.94934H35.1985C30.5939 8.94934 26.0511 10.0093 21.922 12.047L15.197 15.3659L2.36398 20.0938Z" fill="#86D5F8"/>
<path d="M5.28874 27.579C6.1372 27.8741 7.0499 27.9332 7.92934 27.75L14.0454 26.4758C17.1397 25.8312 20.3375 25.8709 23.4148 26.5921C27.4219 27.5313 31.6134 27.3106 35.4996 25.9557L38.3965 24.9458C44.5076 22.8153 51.2204 23.2462 57.0089 26.1405C58.6226 26.9473 60.3222 27.5694 62.0754 27.9949L76.8293 31.576C81.7471 32.0725 86.3748 29.1681 88.0659 24.5235L88.818 22.4578L89.7662 29.8851C89.8094 30.2236 89.8203 30.5654 89.7986 30.9059L89.6093 33.8882C89.4165 36.9245 85.9051 38.5076 83.5021 36.6416C79.3831 33.6774 74.4367 32.0825 69.3619 32.0825H62.6434C59.543 32.0825 56.6038 30.7008 54.6256 28.3134C50.9459 23.8724 44.3575 23.2683 39.9316 26.9662L36.814 29.5709C32.595 33.0959 26.47 33.1376 22.2034 29.6706C19.69 27.6282 16.0936 27.611 13.5608 29.6293L7.09194 34.7842C4.4755 37.0082 0.45972 35.0961 0.536868 31.663L0.655102 26.4016C0.668583 25.8017 0.767149 25.2067 0.94785 24.6345L1.68856 22.2889L2.08579 24.0102C2.4691 25.6713 3.67867 27.019 5.28874 27.579Z" fill="#62C8F4"/>
<ellipse cx="21.9512" cy="48.6304" rx="3.37711" ry="3.37711" fill="#003C57"/>
<ellipse cx="52.3452" cy="48.6304" rx="3.37711" ry="3.37711" fill="#003C57"/>
<path d="M35.122 54.7092V54.7092C35.9841 56.0024 37.8271 56.1529 38.8875 55.0166L39.1745 54.7092" stroke="#003C57" stroke-width="2" stroke-linecap="round"/>
<path d="M16.7393 7.04552C17.3929 6.81404 18.0903 6.73325 18.7795 6.80919L19.6315 6.90308C20.5976 7.00954 21.4501 7.5829 21.913 8.43754C22.6203 9.74343 22.2519 11.3712 21.0512 12.2453L18.6617 13.9848L15.3445 16.1314C14.5709 16.632 13.6164 16.7673 12.7342 16.5013C10.9569 15.9654 10.0309 14.0118 10.7414 12.2967L11.029 11.6025C11.2079 11.1705 11.4647 10.7751 11.7866 10.4359L12.7766 9.3925C13.6629 8.45847 14.7576 7.74744 15.9714 7.31754L16.7393 7.04552Z" fill="white"/>
<path d="M6.3963 18.0759C6.69799 17.9383 7.03572 17.9006 7.36033 17.9683C7.86545 18.0736 8.28563 18.4222 8.48231 18.8992L8.98742 20.1243C9.47148 21.6667 8.32575 23.2376 6.70921 23.2481L6.1378 23.2518C5.85368 23.2536 5.57279 23.1915 5.31592 23.0701C4.4936 22.6813 4.06358 21.7631 4.29151 20.8825L4.41505 20.4052C4.48333 20.1415 4.59443 19.8907 4.74393 19.6629L5.14711 19.0485C5.39367 18.6729 5.74144 18.3746 6.15028 18.1881L6.3963 18.0759Z" fill="white"/>
<path d="M6.3963 18.0759C6.69799 17.9383 7.03572 17.9006 7.36033 17.9683C7.86545 18.0736 8.28563 18.4222 8.48231 18.8992L8.98742 20.1243C9.47148 21.6667 8.32575 23.2376 6.70921 23.2481L6.1378 23.2518C5.85368 23.2536 5.57279 23.1915 5.31592 23.0701C4.4936 22.6813 4.06358 21.7631 4.29151 20.8825L4.41505 20.4052C4.48333 20.1415 4.59443 19.8907 4.74393 19.6629L5.14711 19.0485C5.39367 18.6729 5.74144 18.3746 6.15028 18.1881L6.3963 18.0759Z" fill="white"/>
<path d="M65.5815 24.3166C66.1338 24.5764 66.7495 24.7116 67.3805 24.7116C68.324 24.7116 69.2238 25.0137 69.9266 25.5665L70.5345 26.0447C70.6809 26.1598 70.8036 26.2982 70.8972 26.4539L71.0311 26.6764C71.328 27.1698 71.2131 27.8018 70.7525 28.2085C70.5736 28.3665 70.3544 28.4792 70.1174 28.5351L69.1355 28.7664C68.3822 28.944 67.6025 28.9614 66.8564 28.8174L66.3839 28.7263C65.4387 28.5439 64.5528 28.1827 63.7807 27.6651L62.9789 27.1275C62.741 26.968 62.5364 26.7705 62.3743 26.5437L62.073 26.1225C61.7798 25.7125 61.7396 25.1834 61.9665 24.7183C62.2814 24.073 63.0331 23.6993 63.7688 23.8224L64.5847 23.9588C64.8277 23.9995 65.0617 24.0721 65.2796 24.1746L65.5815 24.3166Z" fill="white"/>
<path d="M60.0426 21.3539C60.3259 21.8717 60.4387 22.4602 60.3647 23.0348L60.3038 23.5068C60.2624 23.8282 60.1095 24.122 59.871 24.3385C59.6277 24.5594 59.3108 24.6857 58.9762 24.6952L58.4526 24.71C58.1894 24.7174 57.9252 24.6887 57.6677 24.6247L56.6399 24.3691C56.309 24.2868 56.002 24.1233 55.7478 23.8939L55.5866 23.7485C55.203 23.4024 55.0059 22.8992 55.0575 22.3972C55.0844 22.1353 55.1778 21.8864 55.3291 21.6736L55.7427 21.0915C55.9408 20.8127 56.1953 20.5787 56.4909 20.4035L56.9912 20.107C57.942 19.5435 59.199 19.8827 59.7707 20.8571L60.0426 21.3539Z" fill="white"/>
<path d="M14.015 71.5948L18.516 72.6795C21.699 73.4465 24.9497 73.8991 28.2212 74.0307L43.227 74.6342L58.6758 74.0523C62.5474 73.9065 66.3888 73.3112 70.1229 72.2784L75.6473 70.7505L80.2284 69.1386C81.5532 68.6725 82.6668 70.2239 81.8012 71.3299C81.7512 71.3938 81.6958 71.4532 81.6355 71.5075L80.2204 72.7832C77.9959 74.7885 75.2997 76.1975 72.3833 76.8786L70.2816 77.6066C64.6874 79.5443 58.7553 80.3142 52.8518 79.8687L41.3696 79.3621L36.1643 79.8545C31.3301 80.3118 26.455 80.0624 21.6927 79.1143L18.1119 78.4014L15.9065 77.7632C14.5467 77.3697 13.2793 76.7081 12.179 75.8174L10.9738 74.8418C10.5304 74.4828 10.1734 74.0288 9.92917 73.5132C9.42317 72.445 10.2748 71.2328 11.4513 71.3467L14.015 71.5948Z" fill="#66BDEC" fill-opacity="0.2"/>
</svg>
