<svg width="267" height="248" viewBox="0 0 267 248" fill="none" xmlns="http://www.w3.org/2000/svg">
<path d="M17.4097 62.9142C20.9632 48.9841 30.3409 37.2576 43.1487 30.7281L66.0067 19.075C71.2934 16.3799 77.0175 14.6473 82.9114 13.9584L143.388 6.88975C148.433 6.30003 153.539 6.4826 158.529 7.43119L199.775 15.2712C207.483 16.7365 214.739 19.9955 220.955 24.7846L236.804 36.9966C240.253 39.6542 243.34 42.7509 245.987 46.2081L253.54 56.0727C261.819 66.8866 265.329 80.6099 263.258 94.071L261.081 108.221C260.694 110.737 260.5 113.278 260.5 115.824V159.006C260.5 162.988 260.024 166.955 259.083 170.824L253.182 195.084C252.066 199.671 250.306 204.078 247.954 208.172L246.906 209.997C241.147 220.022 232.093 227.741 221.283 231.841L191.432 243.164C183.921 246.013 175.835 247.01 167.857 246.071L135.025 242.209C131.023 241.738 126.979 241.753 122.981 242.252L89.85 246.394C83.9962 247.125 78.0591 246.815 72.3133 245.478L39.5071 237.842C29.2632 235.458 21.0161 227.883 17.7714 217.878L6.5413 183.252C5.51632 180.092 4.80889 176.837 4.4295 173.537L0.990877 143.621C0.335194 137.916 0.667005 132.141 1.97176 126.55L10.5 90L17.4097 62.9142Z" fill="#D5EDFA"/>
<path d="M188.604 48.2932C186.881 46.114 184.796 44.2473 182.44 42.7749L146.87 20.544C140.858 16.7863 142.578 7.60415 149.543 6.27751C150.506 6.09415 151.494 6.09396 152.457 6.27696L199.775 15.2712C207.483 16.7365 214.739 19.9955 220.955 24.7846L236.804 36.9966C240.253 39.6542 243.34 42.7509 245.987 46.2081L253.54 56.0727C261.819 66.8866 265.329 80.6099 263.258 94.071L261.081 108.221C260.694 110.737 260.5 113.278 260.5 115.824V159.353C260.5 161.781 260.323 164.206 259.971 166.609L256.966 187.098C255.678 195.875 252.08 204.151 246.538 211.077L241.599 217.251C235.971 224.286 228.547 229.67 220.112 232.833L197 241.5L206.42 230.694C211.408 224.973 215.028 218.192 217.005 210.864L221.464 194.339C222.152 191.791 222.5 189.163 222.5 186.523V135V112.224C222.5 102.926 219.907 93.8118 215.013 85.906L203 66.5L188.604 48.2932Z" fill="#C4E5F6"/>
<path d="M11.6778 46.4946C17.4672 30.0406 31.4127 17.793 48.4764 14.1764L70.7486 9.45591L127.324 0.930606C131.425 0.312604 135.588 0.207285 139.715 0.617078L194.414 6.04823C200.747 6.67696 206.901 8.50866 212.546 11.445L231.909 21.5162C241.853 26.6883 249.771 35.0515 254.391 45.2634L260.462 58.6804C262.804 63.8556 264.246 69.392 264.728 75.0519L265.899 88.8097C265.966 89.6021 265.975 90.3985 265.924 91.1922L265.343 100.347C264.772 109.338 254.374 114.025 247.259 108.5L241.585 104.417C233.077 98.2941 222.861 95 212.379 95H185.494C176.313 95 167.61 90.9086 161.752 83.8392C150.857 70.689 131.347 68.9003 118.242 79.8499L109.01 87.5629C96.5174 98.0006 78.3807 98.1243 65.7466 87.8579C58.3041 81.8101 47.655 81.7593 40.1551 87.7358L21 103C13.4842 109.329 2 103.986 2 94.1605V77.3125C2 75.12 2.37175 72.9435 3.09943 70.8753L11.6778 46.4946Z" fill="#77CDF2"/>
<path d="M11.6423 46.4021C17.4557 30 31.379 17.8002 48.4027 14.1921L70.7486 9.45591L127.324 0.930606C131.425 0.312604 135.588 0.207285 139.715 0.617078L194.414 6.04823C200.747 6.67696 206.901 8.50866 212.546 11.445L231.224 21.1596C241.586 26.5492 249.734 35.3963 254.255 46.1659L263 67L251.5 52.5L250.566 51.3203C244.96 44.2392 237.541 38.8086 229.096 35.6056L218.179 31.4643C214.737 30.1588 211.161 29.2373 207.517 28.7167L176.235 24.2479C172.755 23.7507 169.232 23.622 165.724 23.8639L127.5 26.5H90.4996C85.895 26.5 81.3523 27.5599 77.2231 29.5977L45 45.5L7 59.5L11.6423 46.4021Z" fill="#86D5F8"/>
<path d="M15.6605 81.6645C18.1729 82.5384 20.8755 82.7134 23.4797 82.1709L44.6667 77.7569C51.8026 76.2703 59.1772 76.3618 66.274 78.0251L73.3521 79.6841C82.5929 81.8499 92.2592 81.3408 101.221 78.2164L122.064 70.9502C134.81 66.5067 148.811 67.4054 160.884 73.442L170.935 78.4677C174.301 80.1505 177.846 81.448 181.503 82.3356L227.5 93.5C242.062 94.9704 255.765 86.37 260.773 72.6169L263 66.5L265.808 88.4932C265.936 89.4954 265.968 90.5075 265.904 91.5158L265.343 100.347C264.772 109.338 254.374 114.025 247.259 108.5L241.585 104.417C233.077 98.294 222.861 94.9999 212.379 94.9999H185.494C176.313 94.9999 167.61 90.9086 161.752 83.8391C150.857 70.6889 131.347 68.9002 118.242 79.8498L109.01 87.5628C96.5174 98.0006 78.3807 98.1243 65.7467 87.8579C58.3041 81.8101 47.655 81.7593 40.1551 87.7357L21 103C13.2524 109.585 1.36127 103.923 1.58971 93.7578L1.93982 78.1781C1.97974 76.4017 2.2716 74.6399 2.80668 72.9455L5 66L6.17623 71.097C7.31127 76.0155 10.893 80.0062 15.6605 81.6645Z" fill="#62C8F4"/>
<circle cx="65" cy="144" r="10" fill="#003C57"/>
<circle cx="155" cy="144" r="10" fill="#003C57"/>
<path d="M104 162V162C106.553 165.829 112.01 166.275 115.15 162.91L116 162" stroke="#003C57" stroke-width="5" stroke-linecap="round"/>
<path d="M49.567 20.8625C51.5023 20.177 53.5674 19.9378 55.6081 20.1627L58.1311 20.4407C60.9918 20.7559 63.5162 22.4537 64.8869 24.9844C66.9813 28.8513 65.8904 33.6713 62.335 36.2596L55.2593 41.4104L45.4366 47.7669C43.146 49.2492 40.3197 49.6497 37.7075 48.862C32.4445 47.2752 29.7027 41.4905 31.8065 36.412L32.658 34.3563C33.1879 33.0771 33.9483 31.9062 34.9013 30.9018L37.833 27.8122C40.4573 25.0464 43.699 22.9409 47.293 21.668L49.567 20.8625Z" fill="white"/>
<path d="M18.9402 53.5248C19.8335 53.1173 20.8336 53.0057 21.7948 53.206C23.2905 53.5178 24.5347 54.5502 25.1171 55.9627L26.6128 59.5902C28.0461 64.1574 24.6535 68.8093 19.8667 68.8401L18.1747 68.851C17.3334 68.8565 16.5017 68.6726 15.741 68.313C13.3061 67.162 12.0327 64.4429 12.7076 61.8355L13.0735 60.4222C13.2757 59.6411 13.6046 58.8985 14.0473 58.224L15.2412 56.4049C15.9713 55.2924 17.0011 54.4092 18.2117 53.857L18.9402 53.5248Z" fill="white"/>
<path d="M18.9402 53.5248C19.8335 53.1173 20.8336 53.0057 21.7948 53.206C23.2905 53.5178 24.5347 54.5502 25.1171 55.9627L26.6128 59.5902C28.0461 64.1574 24.6535 68.8093 19.8667 68.8401L18.1747 68.851C17.3334 68.8565 16.5017 68.6726 15.741 68.313C13.3061 67.162 12.0327 64.4429 12.7076 61.8355L13.0735 60.4222C13.2757 59.6411 13.6046 58.8985 14.0473 58.224L15.2412 56.4049C15.9713 55.2924 17.0011 54.4092 18.2117 53.857L18.9402 53.5248Z" fill="white"/>
<path d="M194.194 72.0042C195.829 72.7734 197.653 73.1737 199.521 73.1737C202.315 73.1737 204.979 74.0684 207.06 75.7054L208.861 77.1214C209.294 77.4623 209.657 77.8721 209.935 78.333L210.331 78.9917C211.21 80.4528 210.87 82.3243 209.506 83.5286C208.976 83.9964 208.327 84.3302 207.626 84.4955L204.718 85.1807C202.487 85.7063 200.179 85.758 197.969 85.3317L196.57 85.0617C193.771 84.5216 191.148 83.4522 188.862 81.9195L186.488 80.3276C185.783 79.8552 185.177 79.2704 184.697 78.599L183.805 77.3517C182.937 76.1376 182.818 74.5708 183.49 73.1938C184.422 71.283 186.648 70.1764 188.827 70.5407L191.242 70.9448C191.962 71.0651 192.655 71.2803 193.3 71.5837L194.194 72.0042Z" fill="white"/>
<path d="M177.793 63.2312C178.632 64.7644 178.966 66.5072 178.746 68.2085L178.566 69.6063C178.444 70.5578 177.991 71.4279 177.285 72.069C176.564 72.7231 175.626 73.0971 174.635 73.1251L173.085 73.1689C172.305 73.191 171.523 73.106 170.76 72.9163L167.717 72.1595C166.737 71.9158 165.828 71.4317 165.075 70.7525L164.598 70.3219C163.462 69.297 162.879 67.8071 163.031 66.3205C163.111 65.5451 163.388 64.8081 163.835 64.1777L165.06 62.4541C165.647 61.6288 166.401 60.9356 167.276 60.417L168.757 59.539C171.573 57.8705 175.295 58.8749 176.988 61.7601L177.793 63.2312Z" fill="white"/>
<path d="M41.5 212L64.2139 217.474C67.3969 218.241 70.6476 218.694 73.9191 218.825L128 221L185.173 218.847C189.045 218.701 192.886 218.106 196.62 217.073L224 209.5L237.565 204.727C241.488 203.347 244.785 207.941 242.223 211.216C242.074 211.405 241.91 211.581 241.732 211.742L237.066 215.948C230.791 221.605 223.185 225.579 214.958 227.5L214.335 227.646L192.793 235.108C186.333 237.345 179.483 238.235 172.665 237.72L156.5 236.5L122.5 235L92.79 237.81C87.9558 238.268 83.0807 238.018 78.3184 237.07L53.6313 232.155L47.101 230.266C43.0744 229.1 39.3216 227.141 36.0635 224.504L32.4947 221.615C31.1817 220.552 30.1245 219.207 29.4014 217.681C27.903 214.518 30.4248 210.928 33.9086 211.265L41.5 212Z" fill="#66BDEC" fill-opacity="0.2"/>
</svg>
