<svg width="200" height="212" viewBox="0 0 200 212" fill="none" xmlns="http://www.w3.org/2000/svg">
<ellipse cx="103.5" cy="178.5" rx="82.5" ry="33.5" fill="black" fill-opacity="0.12"/>
<path d="M11.6704 52.6834C15.224 38.7533 24.6016 27.0268 37.4095 20.4974L47.5414 15.332C52.8281 12.6369 58.5523 10.9043 64.4461 10.2154L105.709 5.39256C110.754 4.80284 115.86 4.98542 120.85 5.934L146.999 10.9044C154.707 12.3697 161.963 15.6287 168.179 20.4178L176.418 26.7658C179.867 29.4234 182.954 32.5201 185.601 35.9774L187.04 37.8569C195.319 48.6708 198.829 62.3942 196.758 75.8553L196.079 80.2733C195.692 82.7891 195.497 85.3308 195.497 87.8762V117.834C195.497 121.815 195.022 125.783 194.081 129.651L190.112 145.967C189.204 149.7 187.772 153.286 185.858 156.617C181.172 164.773 173.805 171.054 165.01 174.39L146.516 181.405C139.006 184.254 130.919 185.251 122.942 184.313L102.835 181.947C98.8334 181.476 94.7894 181.491 90.7913 181.991L69.638 184.635C63.7842 185.367 57.8471 185.057 52.1013 183.719L33.7679 179.452C23.524 177.068 15.2769 169.493 12.0321 159.488L5.29364 138.711C4.26866 135.551 3.56123 132.296 3.18184 128.995L0.990876 109.934C0.335192 104.229 0.667004 98.4547 1.97176 92.8629L7.87992 67.5422L11.6704 52.6834Z" fill="#D5EDFA"/>
<path d="M141.541 36.2425C140.248 34.6071 138.684 33.2063 136.916 32.1012L110.222 15.4177C105.71 12.5976 107.001 5.70668 112.228 4.71108C112.95 4.57347 113.692 4.57333 114.414 4.71066L146.999 10.9044C154.707 12.3697 161.963 15.6287 168.179 20.4178L176.418 26.7658C179.867 29.4234 182.954 32.5201 185.601 35.9774L187.04 37.8569C195.319 48.6708 198.829 62.3942 196.758 75.8553L196.079 80.2733C195.692 82.7891 195.497 85.3308 195.497 87.8762V118.679C195.497 121.108 195.32 123.532 194.968 125.935L193.272 137.499C192.026 145.993 188.543 154.002 183.181 160.705C177.734 167.513 170.55 172.723 162.387 175.784L147.842 181.238L153.021 175.299C158.008 169.577 161.628 162.796 163.605 155.468L165.943 146.804C166.631 144.255 166.979 141.627 166.979 138.988V101.313V87.7697C166.979 78.4717 164.387 69.3578 159.493 61.452L152.345 49.9062L141.541 36.2425Z" fill="#C4E5F6"/>
<path d="M6.43773 41.5039C12.2271 25.05 26.1726 12.8024 43.2363 9.18583L53.0947 7.09637L94.012 0.930606C98.1132 0.312603 102.275 0.207285 106.403 0.617078L143.51 4.30151C149.842 4.93024 155.996 6.76194 161.642 9.69826L170.21 14.1551C180.154 19.3271 188.072 27.6904 192.693 37.9022L194.586 42.0866C196.927 47.2618 198.37 52.7982 198.852 58.4581L199.549 66.6489C199.599 67.2436 199.606 67.8413 199.568 68.4369L199.132 75.3071C198.703 82.0545 190.9 85.5726 185.56 81.4259L184.567 80.7113C176.06 74.5887 165.843 71.2946 155.361 71.2946H139.208C132.318 71.2946 125.786 68.2241 121.39 62.9187C113.213 53.0499 98.5722 51.7075 88.7369 59.9249L81.8089 65.7132C72.4334 73.5465 58.8223 73.6393 49.3409 65.9347C43.7555 61.396 35.7636 61.3578 30.1352 65.843L15.7599 77.2983C10.1195 82.0481 1.50098 78.0385 1.50098 70.6646V58.0206C1.50098 56.3753 1.77996 54.7418 2.32606 53.1897L6.43773 41.5039Z" fill="#77CDF2"/>
<path d="M6.40215 41.4115C12.2156 25.0094 26.1388 12.8096 43.1625 9.20145L53.0946 7.09637L94.0119 0.930606C98.1131 0.312603 102.275 0.207285 106.402 0.617078L143.51 4.30151C149.842 4.93024 155.996 6.76194 161.642 9.69826L169.525 13.7985C179.887 19.188 188.035 28.0352 192.556 38.8048L197.373 50.2814L188.743 39.3996C184.077 33.5061 177.902 28.9863 170.874 26.3204L165.029 24.1032C161.587 22.7976 158.011 21.8761 154.367 21.3556L133.565 18.3839C130.085 17.8867 126.562 17.758 123.054 17.9999L95.6848 19.8874H69.6638C65.0592 19.8874 60.5164 20.9474 56.3873 22.9851L33.7711 34.1463L5.2533 44.6529L6.40215 41.4115Z" fill="#86D5F8"/>
<path d="M11.7528 61.2867C13.6382 61.9425 15.6665 62.0739 17.6208 61.6667L31.2119 58.8352C38.0882 57.4027 45.1944 57.4909 52.033 59.0937C60.9375 61.1807 70.2521 60.6901 78.8881 57.6794L86.6304 54.9803C99.3763 50.5367 113.377 51.4354 125.451 57.472L127.018 58.2557C130.384 59.9385 133.928 61.236 137.585 62.1236L170.732 70.1689C181.66 71.2723 191.944 64.818 195.702 54.4967L197.373 49.9062L199.48 66.4114C199.576 67.1635 199.601 67.9231 199.553 68.6798L199.132 75.3071C198.703 82.0545 190.9 85.5725 185.56 81.4258L184.567 80.7112C176.059 74.5886 165.843 71.2945 155.361 71.2945H139.208C132.318 71.2945 125.786 68.2241 121.39 62.9186C113.213 53.0498 98.5722 51.7075 88.7369 59.9248L81.8088 65.7132C72.4333 73.5464 58.8223 73.6392 49.3408 65.9346C43.7555 61.3959 35.7636 61.3578 30.1352 65.843L15.7599 77.2983C9.94557 82.2404 1.02161 77.9913 1.19305 70.3623L1.45579 58.6703C1.48575 57.3371 1.70479 56.015 2.10634 54.7434L3.75236 49.531L4.63509 53.3561C5.4869 57.0473 8.17484 60.0422 11.7528 61.2867Z" fill="#62C8F4"/>
<circle cx="48.5" cy="108.5" r="7.5" fill="#003C57"/>
<circle cx="116.5" cy="108.5" r="7.5" fill="#003C57"/>
<path d="M78.0488 121.576V121.576C79.9647 124.45 84.0602 124.784 86.4168 122.259L87.0545 121.576" stroke="#003C57" stroke-width="5" stroke-linecap="round"/>
<path d="M37.1985 15.6567C38.6508 15.1422 40.2006 14.9627 41.7321 15.1315L43.6256 15.3401C45.7724 15.5767 47.6669 16.8508 48.6955 18.75C50.2674 21.652 49.4487 25.2693 46.7805 27.2117L41.4704 31.0773L34.0987 35.8476C32.3797 36.96 30.2586 37.2605 28.2983 36.6694C24.3485 35.4785 22.2909 31.1373 23.8697 27.326L24.5088 25.7833C24.9064 24.8233 25.4771 23.9446 26.1923 23.1908L28.3924 20.8722C30.3619 18.7965 32.7947 17.2165 35.4919 16.2611L37.1985 15.6567Z" fill="white"/>
<path d="M14.214 40.1687C14.8844 39.8629 15.6349 39.7791 16.3563 39.9295C17.4788 40.1635 18.4125 40.9382 18.8496 41.9983L19.972 44.7206C21.0477 48.1482 18.5017 51.6392 14.9093 51.6624L13.6395 51.6706C13.0082 51.6746 12.384 51.5367 11.8131 51.2668C9.98575 50.403 9.03015 48.3624 9.53667 46.4056L9.81121 45.345C9.96294 44.7588 10.2098 44.2015 10.5421 43.6953L11.438 42.3301C11.9859 41.4953 12.7587 40.8324 13.6673 40.418L14.214 40.1687Z" fill="white"/>
<path d="M14.214 40.1687C14.8844 39.8629 15.6349 39.7791 16.3563 39.9295C17.4788 40.1635 18.4125 40.9382 18.8496 41.9983L19.972 44.7206C21.0477 48.1482 18.5017 51.6392 14.9093 51.6624L13.6395 51.6706C13.0082 51.6746 12.384 51.5367 11.8131 51.2668C9.98575 50.403 9.03015 48.3624 9.53667 46.4056L9.81121 45.345C9.96294 44.7588 10.2098 44.2015 10.5421 43.6953L11.438 42.3301C11.9859 41.4953 12.7587 40.8324 13.6673 40.418L14.214 40.1687Z" fill="white"/>
<path d="M145.737 54.0369C146.964 54.6142 148.332 54.9146 149.734 54.9146C151.831 54.9146 153.831 55.586 155.392 56.8146L156.743 57.8772C157.069 58.133 157.341 58.4406 157.549 58.7865L157.847 59.2809C158.507 60.3773 158.251 61.7818 157.228 62.6857C156.83 63.0367 156.343 63.2872 155.817 63.4113L153.634 63.9255C151.96 64.32 150.228 64.3587 148.57 64.0388L147.52 63.8362C145.419 63.4309 143.451 62.6283 141.735 61.478L139.953 60.2834C139.424 59.9288 138.97 59.49 138.609 58.9861L137.94 58.05C137.288 57.1389 137.199 55.9631 137.703 54.9297C138.403 53.4957 140.074 52.6652 141.708 52.9386L143.521 53.2418C144.062 53.3322 144.581 53.4936 145.066 53.7214L145.737 54.0369Z" fill="white"/>
<path d="M133.428 47.453C134.058 48.6037 134.308 49.9116 134.144 51.1884L134.008 52.2374C133.916 52.9515 133.576 53.6045 133.047 54.0855C132.506 54.5764 131.802 54.8571 131.058 54.8782L129.895 54.911C129.31 54.9276 128.723 54.8638 128.15 54.7215L125.866 54.1535C125.131 53.9706 124.449 53.6073 123.884 53.0975L123.526 52.7744C122.673 52.0053 122.235 50.8871 122.35 49.7715C122.41 49.1896 122.617 48.6365 122.953 48.1634L123.873 46.8699C124.313 46.2505 124.878 45.7303 125.535 45.3411L126.647 44.6822C128.76 43.43 131.553 44.1838 132.824 46.3491L133.428 47.453Z" fill="white"/>
<path d="M31.1445 159.099L46.9963 162.92C50.1793 163.687 53.43 164.139 56.7015 164.271L96.0601 165.854L137.513 164.292C141.384 164.147 145.226 163.551 148.96 162.519L168.105 157.223L178.285 153.641C181.229 152.605 183.704 156.053 181.781 158.511C181.669 158.653 181.546 158.785 181.412 158.906L178.268 161.741C173.324 166.197 167.333 169.328 160.852 170.841L147.129 175.595C140.669 177.832 133.818 178.721 127.001 178.207L117.448 177.486L91.9325 176.36L71.4551 178.297C66.6209 178.755 61.7458 178.505 56.9835 177.557L40.2487 174.225L35.3479 172.807C32.326 171.933 29.5096 170.462 27.0645 168.483L24.3863 166.315C23.4009 165.517 22.6075 164.508 22.0648 163.363C20.9404 160.989 22.8329 158.295 25.4474 158.548L31.1445 159.099Z" fill="#66BDEC" fill-opacity="0.2"/>
<path d="M153.268 105.83C157.672 98.8133 166.931 96.696 173.947 101.1L181.034 105.549C188.05 109.954 190.167 119.212 185.763 126.228L171.223 149.39C169.755 151.729 166.669 152.435 164.33 150.966L140.305 135.884C137.966 134.416 137.26 131.33 138.728 128.991L153.268 105.83Z" fill="url(#paint0_linear_0_1)"/>
<path d="M153.01 104.704C157.415 97.6879 166.673 95.5705 173.69 99.975L182.159 105.292C189.175 109.696 191.293 118.955 186.888 125.971L181.943 133.849C179.986 136.967 175.445 136.972 173.48 133.86L173.164 133.358C172.527 132.35 171.552 131.603 170.414 131.251L166.649 130.085C165.344 129.681 164.261 128.761 163.652 127.538L161.796 123.814C160.624 121.461 157.831 120.418 155.404 121.426L151.261 123.146C149.416 123.912 147.288 123.395 146 121.868C144.714 120.344 144.561 118.164 145.621 116.475L153.01 104.704Z" fill="url(#paint1_linear_0_1)"/>
<path d="M148.515 141.038L156.811 146.246L150.497 156.306C149.909 157.242 148.675 157.524 147.739 156.937L142.83 153.855C141.895 153.268 141.613 152.034 142.2 151.098L148.515 141.038Z" fill="#966B58"/>
<defs>
<linearGradient id="paint0_linear_0_1" x1="136" y1="133" x2="169" y2="154" gradientUnits="userSpaceOnUse">
<stop offset="0.77" stop-color="#FFF7B4"/>
<stop offset="0.7701" stop-color="#F7EA84"/>
</linearGradient>
<linearGradient id="paint1_linear_0_1" x1="172" y1="106" x2="200.5" y2="123" gradientUnits="userSpaceOnUse">
<stop offset="0.445" stop-color="#FF8D3A"/>
<stop offset="0.4451" stop-color="#FB7A1C"/>
</linearGradient>
</defs>
</svg>
