<svg width="272" height="286" viewBox="0 0 272 286" fill="none" xmlns="http://www.w3.org/2000/svg">
<path d="M69.33 104.554C69.5609 101.976 71.7215 100 74.3101 100H195.606C198.152 100 200.292 101.913 200.575 104.444L211 197.573H61L69.33 104.554Z" fill="#FB5858"/>
<path d="M61 197.573H211V208.592C211 211.354 208.761 213.592 206 213.592H66C63.2386 213.592 61 211.354 61 208.592V197.573Z" fill="#F33B3B"/>
<path d="M74.1068 213.592H91.5825L89.617 229.316C89.4919 230.317 88.6411 231.068 87.6325 231.068H81.3735C80.5127 231.068 79.7484 230.517 79.4762 229.7L74.1068 213.592Z" fill="#005073"/>
<path d="M197.893 213.592H180.417L182.383 229.316C182.508 230.317 183.359 231.068 184.368 231.068H190.626C191.487 231.068 192.252 230.517 192.524 229.7L197.893 213.592Z" fill="#005073"/>
<path d="M117.622 123.862C117.694 122.814 118.566 122 119.617 122H153.383C154.434 122 155.306 122.814 155.378 123.862L158.853 174.237C158.932 175.393 158.016 176.375 156.857 176.375H116.143C114.984 176.375 114.068 175.393 114.147 174.237L117.622 123.862Z" fill="#101010"/>
<path d="M119.212 125.768C119.268 124.707 120.145 123.875 121.209 123.875H151.791C152.855 123.875 153.732 124.707 153.788 125.769L156.075 168.644C156.136 169.788 155.224 170.75 154.078 170.75H118.922C117.776 170.75 116.864 169.788 116.925 168.644L119.212 125.768Z" fill="white"/>
<circle cx="137" cy="219" r="30" fill="#212121"/>
<path d="M120.876 250.244C121.211 248.505 122.97 247.432 124.669 247.932L126.958 248.605C128.983 249.201 131.052 249.632 133.146 249.893L133.536 249.942C136.5 250.313 139.5 250.313 142.464 249.942C144.816 249.648 147.132 249.123 149.381 248.373L150.388 248.037C152.022 247.493 153.756 248.537 154.039 250.235L159.418 282.507C159.723 284.335 158.312 286 156.459 286H117.632C115.748 286 114.33 284.284 114.686 282.433L120.876 250.244Z" fill="#212121"/>
<circle cx="30" cy="131" r="30" fill="#212121"/>
<path d="M13.8762 162.244C14.2106 160.505 15.9701 159.432 17.6688 159.932L19.9581 160.605C21.9827 161.201 24.0522 161.632 26.1462 161.893L26.5361 161.942C29.5005 162.313 32.4995 162.313 35.4639 161.942C37.8155 161.648 40.1324 161.123 42.3807 160.373L43.3882 160.037C45.0221 159.493 46.7561 160.537 47.0392 162.235L52.4178 194.507C52.7226 196.335 51.3124 198 49.4586 198H10.6319C8.74781 198 7.33007 196.284 7.68587 194.433L13.8762 162.244Z" fill="#212121"/>
<rect x="46" y="133" width="5" height="8" rx="2" fill="white"/>
<circle cx="242" cy="132" r="30" fill="#212121"/>
<path d="M225.876 163.244C226.211 161.505 227.97 160.432 229.669 160.932L231.958 161.605C233.983 162.201 236.052 162.632 238.146 162.893L238.536 162.942C241.5 163.313 244.5 163.313 247.464 162.942C249.816 162.648 252.132 162.123 254.381 161.373L255.388 161.037C257.022 160.493 258.756 161.537 259.039 163.235L264.418 195.507C264.723 197.335 263.312 199 261.459 199H222.632C220.748 199 219.33 197.284 219.686 195.433L225.876 163.244Z" fill="#212121"/>
<rect x="219" y="134" width="5" height="8" rx="2" fill="white"/>
<circle cx="137" cy="30" r="30" fill="#212121"/>
<path d="M120.876 61.2435C121.211 59.5049 122.97 58.4324 124.669 58.932L126.958 59.6053C128.983 60.2008 131.052 60.6315 133.146 60.8933L133.536 60.942C136.5 61.3126 139.5 61.3126 142.464 60.942C144.816 60.6481 147.132 60.1225 149.381 59.3731L150.388 59.0373C152.022 58.4926 153.756 59.5366 154.039 61.2355L159.418 93.5068C159.723 95.3354 158.312 97 156.459 97H117.632C115.748 97 114.33 95.2836 114.686 93.4335L120.876 61.2435Z" fill="#212121"/>
<rect x="143" y="36" width="5" height="8" rx="2" fill="white"/>
<rect x="126" y="36" width="5" height="8" rx="2" fill="white"/>
<line x1="136" y1="46.5" x2="139" y2="46.5" stroke="white"/>
<g clip-path="url(#clip0_0_1)">
<path d="M123.956 140.069C124.355 138.504 125.409 137.186 126.848 136.453L129.416 135.143C130.01 134.84 130.654 134.646 131.316 134.568L138.111 133.774C138.678 133.708 139.252 133.728 139.812 133.835L144.447 134.716C145.313 134.881 146.128 135.247 146.826 135.785L148.607 137.157C148.995 137.456 149.342 137.803 149.639 138.192L150.488 139.3C151.418 140.515 151.812 142.057 151.58 143.57L151.335 145.16C151.291 145.442 151.27 145.728 151.27 146.014V150.866C151.27 151.313 151.216 151.759 151.11 152.194L150.447 154.92C150.322 155.435 150.124 155.93 149.86 156.39L149.742 156.595C149.095 157.722 148.078 158.589 146.863 159.05L143.509 160.322C142.665 160.642 141.757 160.754 140.86 160.648L137.171 160.214C136.722 160.162 136.267 160.163 135.818 160.219L132.096 160.685C131.438 160.767 130.771 160.732 130.125 160.582L126.439 159.724C125.288 159.456 124.361 158.605 123.997 157.481L122.735 153.59C122.62 153.235 122.54 152.869 122.498 152.499L122.111 149.137C122.038 148.496 122.075 147.847 122.222 147.219L123.18 143.112L123.956 140.069Z" fill="#D5EDFA"/>
<path d="M143.191 138.426C142.998 138.181 142.764 137.972 142.499 137.806L138.502 135.308C137.827 134.886 138.02 133.854 138.803 133.705C138.911 133.685 139.022 133.685 139.13 133.705L144.447 134.716C145.313 134.881 146.128 135.247 146.826 135.785L148.607 137.157C148.995 137.456 149.342 137.803 149.639 138.192L150.488 139.3C151.418 140.515 151.812 142.057 151.58 143.57L151.335 145.16C151.291 145.442 151.27 145.728 151.27 146.014V150.905C151.27 151.178 151.25 151.45 151.21 151.72L150.873 154.022C150.728 155.008 150.324 155.938 149.701 156.717L149.146 157.41C148.514 158.201 147.679 158.806 146.732 159.161L144.135 160.135L145.193 158.921C145.754 158.278 146.16 157.516 146.383 156.693L146.884 154.836C146.961 154.55 147 154.254 147 153.958V148.169V145.609C147 144.565 146.709 143.541 146.159 142.652L144.809 140.472L143.191 138.426Z" fill="#C4E5F6"/>
<path d="M123.312 138.224C123.963 136.375 125.53 134.999 127.447 134.593L129.949 134.062L136.306 133.105C136.767 133.035 137.235 133.023 137.698 133.069L143.844 133.68C144.556 133.75 145.247 133.956 145.882 134.286L148.057 135.418C149.174 135.999 150.064 136.938 150.583 138.086L151.265 139.593C151.529 140.175 151.691 140.797 151.745 141.433L151.876 142.979C151.884 143.068 151.885 143.157 151.879 143.246L151.814 144.275C151.75 145.285 150.581 145.812 149.782 145.191L149.144 144.732C148.188 144.044 147.041 143.674 145.863 143.674H142.842C141.81 143.674 140.833 143.214 140.174 142.42C138.95 140.943 136.758 140.742 135.286 141.972L134.248 142.839C132.845 144.011 130.807 144.025 129.387 142.872C128.551 142.192 127.354 142.186 126.512 142.858L124.36 144.573C123.515 145.284 122.225 144.684 122.225 143.58V141.687C122.225 141.44 122.266 141.196 122.348 140.964L123.312 138.224Z" fill="#77CDF2"/>
<path d="M123.308 138.214C123.961 136.371 125.526 135 127.439 134.595L129.949 134.062L136.306 133.105C136.767 133.035 137.235 133.023 137.698 133.069L143.844 133.68C144.556 133.75 145.247 133.956 145.882 134.286L147.98 135.377C149.144 135.983 150.06 136.977 150.568 138.187L151.551 140.528L150.258 138.899L150.153 138.766C149.524 137.971 148.69 137.361 147.741 137.001L146.514 136.535C146.128 136.389 145.726 136.285 145.317 136.227L141.802 135.724C141.411 135.669 141.015 135.654 140.621 135.681L136.326 135.978H132.168C131.651 135.978 131.141 136.097 130.677 136.326L127.056 138.112L122.787 139.685L123.308 138.214Z" fill="#86D5F8"/>
<path d="M123.76 142.176C124.042 142.274 124.346 142.294 124.638 142.233L127.019 141.737C127.821 141.57 128.649 141.58 129.447 141.767L130.242 141.953C131.28 142.197 132.366 142.139 133.373 141.788L135.715 140.972C137.147 140.473 138.72 140.574 140.077 141.252L141.206 141.817C141.584 142.006 141.983 142.151 142.394 142.251L147.562 143.506C149.198 143.671 150.738 142.704 151.3 141.159L151.551 140.472L151.866 142.943C151.88 143.056 151.884 143.169 151.877 143.283L151.814 144.275C151.75 145.285 150.581 145.812 149.782 145.191L149.144 144.732C148.188 144.044 147.041 143.674 145.863 143.674H142.842C141.81 143.674 140.833 143.214 140.174 142.42C138.95 140.943 136.758 140.742 135.286 141.972L134.248 142.839C132.845 144.011 130.807 144.025 129.387 142.872C128.551 142.192 127.354 142.186 126.512 142.858L124.36 144.573C123.489 145.313 122.153 144.677 122.179 143.535L122.218 141.784C122.222 141.584 122.255 141.387 122.315 141.196L122.562 140.416L122.694 140.988C122.821 141.541 123.224 141.989 123.76 142.176Z" fill="#62C8F4"/>
<path d="M129.303 150.303C129.924 150.303 130.427 149.8 130.427 149.18C130.427 148.559 129.924 148.056 129.303 148.056C128.683 148.056 128.18 148.559 128.18 149.18C128.18 149.8 128.683 150.303 129.303 150.303Z" fill="#003C57"/>
<path d="M139.416 150.303C140.036 150.303 140.539 149.8 140.539 149.18C140.539 148.559 140.036 148.056 139.416 148.056C138.795 148.056 138.292 148.559 138.292 149.18C138.292 149.8 138.795 150.303 139.416 150.303Z" fill="#003C57"/>
<path d="M133.685 151.202C133.972 151.632 134.585 151.683 134.938 151.304L135.034 151.202" stroke="#003C57" stroke-linecap="round"/>
<path d="M127.569 135.344C127.787 135.267 128.019 135.24 128.248 135.265L128.532 135.297C128.853 135.332 129.137 135.523 129.291 135.807C129.526 136.242 129.403 136.783 129.004 137.074L128.209 137.653L127.105 138.367C126.848 138.534 126.53 138.579 126.237 138.49C125.645 138.312 125.337 137.662 125.574 137.091L125.669 136.86C125.729 136.717 125.814 136.585 125.921 136.472L126.251 136.125C126.546 135.814 126.91 135.578 127.314 135.435L127.569 135.344Z" fill="#FFF6C9"/>
<path d="M124.128 139.014C124.228 138.968 124.341 138.956 124.449 138.978C124.617 139.013 124.757 139.129 124.822 139.288L124.99 139.696C125.151 140.209 124.77 140.731 124.232 140.735L124.042 140.736C123.948 140.737 123.854 140.716 123.769 140.676C123.495 140.546 123.352 140.241 123.428 139.948L123.469 139.789C123.492 139.701 123.529 139.618 123.578 139.542L123.712 139.338C123.795 139.213 123.91 139.113 124.046 139.051L124.128 139.014Z" fill="#FFF6C9"/>
<path d="M124.128 139.014C124.228 138.968 124.341 138.956 124.449 138.978C124.617 139.013 124.757 139.129 124.822 139.288L124.99 139.696C125.151 140.209 124.77 140.731 124.232 140.735L124.042 140.736C123.948 140.737 123.854 140.716 123.769 140.676C123.495 140.546 123.352 140.241 123.428 139.948L123.469 139.789C123.492 139.701 123.529 139.618 123.578 139.542L123.712 139.338C123.795 139.213 123.91 139.113 124.046 139.051L124.128 139.014Z" fill="#FFF6C9"/>
<path d="M143.82 141.09C144.003 141.177 144.208 141.222 144.418 141.222C144.732 141.222 145.031 141.322 145.265 141.506L145.468 141.665C145.516 141.704 145.557 141.75 145.588 141.801L145.633 141.875C145.731 142.04 145.693 142.25 145.54 142.385C145.48 142.438 145.408 142.475 145.329 142.494L145.002 142.571C144.751 142.63 144.492 142.636 144.244 142.588L144.087 142.557C143.772 142.497 143.477 142.377 143.22 142.204L142.954 142.026C142.874 141.972 142.806 141.907 142.752 141.831L142.652 141.691C142.555 141.555 142.541 141.379 142.617 141.224C142.722 141.009 142.972 140.885 143.217 140.926L143.488 140.971C143.569 140.985 143.647 141.009 143.719 141.043L143.82 141.09Z" fill="#FFF6C9"/>
<path d="M141.977 140.105C142.071 140.277 142.109 140.473 142.084 140.664L142.064 140.821C142.05 140.928 141.999 141.026 141.92 141.098C141.839 141.171 141.733 141.213 141.622 141.216L141.448 141.221C141.36 141.224 141.272 141.214 141.187 141.193L140.845 141.108C140.734 141.08 140.632 141.026 140.548 140.95L140.494 140.901C140.367 140.786 140.301 140.619 140.318 140.452C140.327 140.365 140.358 140.282 140.408 140.211L140.546 140.017C140.612 139.925 140.697 139.847 140.795 139.788L140.961 139.69C141.278 139.502 141.696 139.615 141.886 139.939L141.977 140.105Z" fill="#FFF6C9"/>
<path d="M126.663 156.82L129.215 157.435C129.573 157.521 129.938 157.572 130.306 157.587L136.382 157.831L142.806 157.59C143.241 157.573 143.673 157.506 144.092 157.39L147.169 156.539L148.693 156.003C149.133 155.848 149.504 156.364 149.216 156.732C149.199 156.753 149.181 156.773 149.161 156.791L148.637 157.264C147.932 157.899 147.077 158.346 146.153 158.562L146.083 158.578L143.662 159.417C142.936 159.668 142.167 159.768 141.401 159.71L139.584 159.573L135.764 159.404L132.426 159.72C131.883 159.772 131.335 159.744 130.8 159.637L128.026 159.085L127.292 158.873C126.84 158.742 126.418 158.521 126.052 158.225L125.651 157.901C125.504 157.781 125.385 157.63 125.304 157.459C125.135 157.103 125.419 156.7 125.81 156.738L126.663 156.82Z" fill="#66BDEC" fill-opacity="0.2"/>
</g>
<defs>
<clipPath id="clip0_0_1">
<rect width="30" height="27.8652" fill="white" transform="translate(122 133)"/>
</clipPath>
</defs>
</svg>
