<svg width="220" height="123" viewBox="0 0 220 123" fill="none" xmlns="http://www.w3.org/2000/svg">
<path d="M6.16729 44.102C10.9425 29.7914 22.1573 18.5516 36.4572 13.7445L58.261 6.41489C70.841 2.18599 84.1722 0.661463 97.382 1.94109L150.906 7.12594L183.471 11.5843C196.987 13.4347 208.576 22.1618 214.088 34.6402V34.6402C217.902 43.2725 218.481 52.9887 215.721 62.0131L211.641 75.3552C207.695 88.2583 196.892 97.8903 183.623 100.337V100.337C177.936 101.385 172.585 103.782 168.016 107.326L147.812 123V123C147.812 111.699 138.088 102.85 126.838 103.912L91.3904 107.257C85.2485 107.837 79.0651 107.826 72.9252 107.224L44.1654 104.407C28.4825 102.87 14.739 93.2591 7.91431 79.0556V79.0556C2.83855 68.492 2.07457 56.3672 5.78422 45.25L6.16729 44.102Z" fill="white"/>
<path d="M60.2933 46.36C59.0933 46.36 57.9733 46.152 56.9333 45.736C55.8933 45.304 55.0053 44.584 54.2693 43.576C53.9653 43.144 53.8613 42.744 53.9573 42.376C54.0693 42.008 54.3413 41.704 54.7733 41.464C55.1893 41.224 55.5653 41.16 55.9013 41.272C56.2533 41.368 56.5973 41.6 56.9333 41.968C57.3333 42.416 57.8133 42.768 58.3733 43.024C58.9333 43.264 59.6133 43.384 60.4133 43.384C61.5173 43.384 62.2533 43.2 62.6213 42.832C62.9893 42.448 63.1733 41.944 63.1733 41.32C63.1733 40.92 63.0773 40.576 62.8853 40.288C62.7093 40 62.3093 39.728 61.6853 39.472C61.0773 39.2 60.1333 38.912 58.8533 38.608C57.3013 38.24 56.1573 37.648 55.4213 36.832C54.6853 36.016 54.3173 35 54.3173 33.784C54.3173 32.776 54.5573 31.896 55.0373 31.144C55.5173 30.392 56.1893 29.808 57.0533 29.392C57.9333 28.96 58.9653 28.744 60.1493 28.744C61.3973 28.744 62.4773 28.968 63.3893 29.416C64.3173 29.864 65.0773 30.424 65.6693 31.096C65.9893 31.48 66.1093 31.864 66.0293 32.248C65.9493 32.616 65.7093 32.952 65.3093 33.256C64.9093 33.56 64.5333 33.68 64.1813 33.616C63.8293 33.536 63.4773 33.32 63.1253 32.968C62.7733 32.616 62.3573 32.32 61.8773 32.08C61.3973 31.84 60.8053 31.72 60.1013 31.72C59.3493 31.72 58.7333 31.88 58.2533 32.2C57.7893 32.504 57.5573 32.984 57.5573 33.64C57.5573 33.896 57.6213 34.16 57.7493 34.432C57.8933 34.688 58.2133 34.944 58.7093 35.2C59.2213 35.456 60.0293 35.72 61.1333 35.992C63.0053 36.44 64.3573 37.112 65.1893 38.008C66.0373 38.888 66.4613 39.976 66.4613 41.272C66.4613 42.92 65.9013 44.184 64.7813 45.064C63.6773 45.928 62.1813 46.36 60.2933 46.36ZM69.4836 46C68.4436 46 67.9236 45.472 67.9236 44.416V30.784C67.9236 29.728 68.4436 29.2 69.4836 29.2H69.8196C70.6196 29.2 71.2516 29.544 71.7156 30.232L78.5556 40.552V30.784C78.5556 29.728 79.0836 29.2 80.1396 29.2C81.1796 29.2 81.6996 29.728 81.6996 30.784V44.416C81.6996 45.472 81.2036 46 80.2116 46H79.9476C79.1156 46 78.4836 45.656 78.0516 44.968L71.0436 34.264V44.416C71.0436 45.472 70.5236 46 69.4836 46ZM89.9324 46.36C88.7324 46.36 87.6124 46.152 86.5724 45.736C85.5324 45.304 84.6444 44.584 83.9084 43.576C83.6044 43.144 83.5004 42.744 83.5964 42.376C83.7084 42.008 83.9804 41.704 84.4124 41.464C84.8284 41.224 85.2044 41.16 85.5404 41.272C85.8924 41.368 86.2364 41.6 86.5724 41.968C86.9724 42.416 87.4524 42.768 88.0124 43.024C88.5724 43.264 89.2524 43.384 90.0524 43.384C91.1564 43.384 91.8924 43.2 92.2604 42.832C92.6284 42.448 92.8124 41.944 92.8124 41.32C92.8124 40.92 92.7164 40.576 92.5244 40.288C92.3484 40 91.9484 39.728 91.3244 39.472C90.7164 39.2 89.7724 38.912 88.4924 38.608C86.9404 38.24 85.7964 37.648 85.0604 36.832C84.3244 36.016 83.9564 35 83.9564 33.784C83.9564 32.776 84.1964 31.896 84.6764 31.144C85.1564 30.392 85.8284 29.808 86.6924 29.392C87.5724 28.96 88.6044 28.744 89.7884 28.744C91.0364 28.744 92.1164 28.968 93.0284 29.416C93.9564 29.864 94.7164 30.424 95.3084 31.096C95.6284 31.48 95.7484 31.864 95.6684 32.248C95.5884 32.616 95.3484 32.952 94.9484 33.256C94.5484 33.56 94.1724 33.68 93.8204 33.616C93.4684 33.536 93.1164 33.32 92.7644 32.968C92.4124 32.616 91.9964 32.32 91.5164 32.08C91.0364 31.84 90.4444 31.72 89.7404 31.72C88.9884 31.72 88.3724 31.88 87.8924 32.2C87.4284 32.504 87.1964 32.984 87.1964 33.64C87.1964 33.896 87.2604 34.16 87.3884 34.432C87.5324 34.688 87.8524 34.944 88.3484 35.2C88.8604 35.456 89.6684 35.72 90.7724 35.992C92.6444 36.44 93.9964 37.112 94.8284 38.008C95.6764 38.888 96.1004 39.976 96.1004 41.272C96.1004 42.92 95.5404 44.184 94.4204 45.064C93.3164 45.928 91.8204 46.36 89.9324 46.36ZM110.763 46.192C110.283 46.304 109.827 46.24 109.395 46C108.963 45.744 108.683 45.376 108.555 44.896C108.443 44.416 108.515 43.968 108.771 43.552C109.027 43.12 109.387 42.848 109.851 42.736C111.595 42.304 112.827 41.592 113.547 40.6C114.283 39.608 114.651 38.352 114.651 36.832C114.651 35.472 114.219 34.328 113.355 33.4C112.507 32.472 111.299 31.904 109.731 31.696C109.411 34.432 108.891 36.776 108.171 38.728C107.467 40.68 106.635 42.176 105.675 43.216C104.731 44.256 103.739 44.776 102.699 44.776C101.787 44.776 100.955 44.52 100.203 44.008C99.4507 43.496 98.8507 42.76 98.4027 41.8C97.9547 40.824 97.7307 39.64 97.7307 38.248C97.7307 36.904 97.9867 35.64 98.4987 34.456C99.0107 33.256 99.7387 32.2 100.683 31.288C101.627 30.36 102.747 29.64 104.043 29.128C105.355 28.6 106.803 28.336 108.387 28.336C109.811 28.336 111.115 28.544 112.299 28.96C113.499 29.36 114.531 29.936 115.395 30.688C116.275 31.44 116.955 32.336 117.435 33.376C117.915 34.416 118.155 35.568 118.155 36.832C118.155 39.248 117.547 41.264 116.331 42.88C115.115 44.48 113.259 45.584 110.763 46.192ZM102.723 41.128C102.995 41.128 103.363 40.752 103.827 40C104.291 39.232 104.755 38.152 105.219 36.76C105.683 35.368 106.035 33.728 106.275 31.84C105.171 32.112 104.243 32.576 103.491 33.232C102.739 33.872 102.171 34.632 101.787 35.512C101.419 36.376 101.227 37.272 101.211 38.2C101.195 39.224 101.323 39.968 101.595 40.432C101.883 40.896 102.259 41.128 102.723 41.128ZM122.883 38.344C122.419 38.616 121.947 38.704 121.467 38.608C120.987 38.496 120.619 38.216 120.363 37.768C120.139 37.368 120.091 36.96 120.219 36.544C120.347 36.112 120.611 35.784 121.011 35.56C121.891 35.08 122.747 34.536 123.579 33.928C124.427 33.304 125.195 32.624 125.883 31.888C125.899 31.872 125.915 31.864 125.931 31.864C125.947 31.848 125.963 31.832 125.979 31.816H121.371C120.891 31.816 120.515 31.664 120.243 31.36C119.971 31.056 119.835 30.688 119.835 30.256C119.835 29.84 119.971 29.48 120.243 29.176C120.515 28.872 120.891 28.72 121.371 28.72H128.883V27.376C128.883 26.816 129.059 26.376 129.411 26.056C129.779 25.736 130.219 25.576 130.731 25.576C131.243 25.576 131.675 25.736 132.027 26.056C132.395 26.376 132.579 26.816 132.579 27.376V28.72H140.115C140.595 28.72 140.971 28.872 141.243 29.176C141.515 29.48 141.651 29.84 141.651 30.256C141.651 30.688 141.515 31.056 141.243 31.36C140.971 31.664 140.595 31.816 140.115 31.816H135.387C136.155 32.44 137.011 33.032 137.955 33.592C138.899 34.152 139.771 34.608 140.571 34.96C140.987 35.152 141.251 35.472 141.363 35.92C141.475 36.368 141.419 36.8 141.195 37.216C140.955 37.664 140.595 37.952 140.115 38.08C139.651 38.192 139.187 38.136 138.723 37.912C137.795 37.432 136.819 36.856 135.795 36.184C134.787 35.512 133.859 34.808 133.011 34.072C132.691 33.784 132.515 33.416 132.483 32.968C132.467 32.52 132.611 32.136 132.915 31.816H128.331C128.651 32.12 128.819 32.488 128.835 32.92C128.851 33.336 128.691 33.728 128.355 34.096C127.859 34.624 127.291 35.152 126.651 35.68C126.027 36.192 125.387 36.68 124.731 37.144C124.075 37.592 123.459 37.992 122.883 38.344ZM122.691 48.088C122.083 48.248 121.571 48.232 121.155 48.04C120.739 47.864 120.443 47.536 120.267 47.056C120.107 46.592 120.131 46.152 120.339 45.736C120.563 45.32 120.979 45.032 121.587 44.872C122.931 44.552 124.155 44.168 125.259 43.72C126.379 43.256 127.387 42.712 128.283 42.088C127.835 41.528 127.403 40.928 126.987 40.288C126.571 39.632 126.187 38.936 125.835 38.2C125.611 37.736 125.587 37.304 125.763 36.904C125.955 36.488 126.251 36.192 126.651 36.016C127.083 35.824 127.507 35.8 127.923 35.944C128.355 36.088 128.675 36.392 128.883 36.856C129.395 37.96 130.019 38.952 130.755 39.832C131.139 39.384 131.491 38.912 131.811 38.416C132.147 37.904 132.459 37.36 132.747 36.784C132.971 36.32 133.307 36.008 133.755 35.848C134.203 35.672 134.651 35.696 135.099 35.92C135.515 36.128 135.795 36.448 135.939 36.88C136.099 37.296 136.043 37.752 135.771 38.248C135.387 38.984 134.979 39.672 134.547 40.312C134.115 40.936 133.667 41.528 133.203 42.088C134.131 42.728 135.139 43.264 136.227 43.696C137.331 44.128 138.515 44.456 139.779 44.68C140.371 44.792 140.787 45.064 141.027 45.496C141.283 45.912 141.331 46.392 141.171 46.936C141.011 47.496 140.699 47.856 140.235 48.016C139.771 48.192 139.243 48.216 138.651 48.088C137.163 47.752 135.747 47.288 134.403 46.696C133.075 46.104 131.843 45.36 130.707 44.464C129.635 45.28 128.443 45.984 127.131 46.576C125.819 47.168 124.339 47.672 122.691 48.088ZM144.507 48.256C143.931 48.256 143.459 48.112 143.091 47.824C142.723 47.552 142.523 47.152 142.491 46.624C142.459 46.144 142.571 45.736 142.827 45.4C143.083 45.048 143.467 44.824 143.979 44.728C144.283 44.68 144.483 44.608 144.579 44.512C144.675 44.4 144.723 44.208 144.723 43.936V40.432L144.363 40.576C143.819 40.768 143.331 40.76 142.899 40.552C142.483 40.344 142.195 40 142.035 39.52C141.875 39.008 141.899 38.56 142.107 38.176C142.315 37.792 142.699 37.504 143.259 37.312C143.467 37.232 143.691 37.152 143.931 37.072C144.187 36.992 144.451 36.904 144.723 36.808V33.088H143.523C143.091 33.088 142.715 32.936 142.395 32.632C142.091 32.312 141.939 31.936 141.939 31.504C141.939 31.056 142.091 30.68 142.395 30.376C142.715 30.072 143.091 29.92 143.523 29.92H144.723V27.328C144.723 26.816 144.883 26.416 145.203 26.128C145.539 25.824 145.931 25.672 146.379 25.672C146.843 25.672 147.235 25.824 147.555 26.128C147.875 26.416 148.035 26.816 148.035 27.328V29.92H148.611C149.187 29.92 149.627 30.152 149.931 30.616C149.979 30.44 150.075 30.28 150.219 30.136C150.507 29.832 150.851 29.44 151.251 28.96C151.667 28.464 152.067 27.968 152.451 27.472C152.851 26.96 153.155 26.544 153.363 26.224C153.603 25.856 153.923 25.608 154.323 25.48C154.739 25.352 155.139 25.4 155.523 25.624C155.891 25.832 156.123 26.12 156.219 26.488C156.331 26.84 156.291 27.192 156.099 27.544H157.827C158.771 27.544 159.467 27.72 159.915 28.072C160.379 28.424 160.619 28.864 160.635 29.392C160.651 29.92 160.459 30.456 160.059 31C159.995 31.064 159.939 31.136 159.891 31.216C159.843 31.28 159.779 31.352 159.699 31.432C161.091 31.496 162.067 31.832 162.627 32.44C163.203 33.032 163.491 34.04 163.491 35.464V39.496H163.851C164.251 39.496 164.595 39.64 164.883 39.928C165.171 40.2 165.315 40.544 165.315 40.96C165.315 41.36 165.171 41.704 164.883 41.992C164.595 42.28 164.251 42.424 163.851 42.424H159.483C160.715 43.512 162.083 44.304 163.587 44.8C164.115 44.976 164.475 45.28 164.667 45.712C164.875 46.144 164.875 46.592 164.667 47.056C164.459 47.568 164.107 47.88 163.611 47.992C163.131 48.104 162.651 48.064 162.171 47.872C161.099 47.456 160.051 46.856 159.027 46.072C158.019 45.304 157.195 44.48 156.555 43.6C156.011 44.592 155.283 45.456 154.371 46.192C153.459 46.928 152.315 47.528 150.939 47.992C150.459 48.152 150.003 48.16 149.571 48.016C149.139 47.872 148.835 47.584 148.659 47.152C148.483 46.688 148.499 46.248 148.707 45.832C148.915 45.416 149.307 45.12 149.883 44.944C151.547 44.432 152.795 43.592 153.627 42.424H149.763C149.363 42.424 149.019 42.28 148.731 41.992C148.443 41.704 148.299 41.36 148.299 40.96C148.299 40.544 148.443 40.2 148.731 39.928C149.019 39.64 149.363 39.496 149.763 39.496H150.219V37.672C150.075 38.072 149.755 38.384 149.259 38.608C149.083 38.688 148.891 38.776 148.683 38.872C148.475 38.952 148.259 39.04 148.035 39.136V44.608C148.035 45.824 147.731 46.736 147.123 47.344C146.515 47.952 145.643 48.256 144.507 48.256ZM153.243 39.496H154.779C154.795 39.416 154.811 39.336 154.827 39.256C154.843 39.16 154.859 39.064 154.875 38.968C154.939 38.504 155.139 38.152 155.475 37.912C155.811 37.656 156.195 37.56 156.627 37.624C157.075 37.672 157.419 37.848 157.659 38.152C157.899 38.456 157.979 38.84 157.899 39.304C157.899 39.384 157.891 39.448 157.875 39.496H160.443V38.08H160.107C158.987 38.08 158.171 37.904 157.659 37.552C157.163 37.184 156.915 36.528 156.915 35.584V34.12H156.507C156.443 35 156.283 35.792 156.027 36.496C155.787 37.2 155.355 37.856 154.731 38.464C154.523 38.656 154.283 38.776 154.011 38.824C153.739 38.856 153.483 38.824 153.243 38.728V39.496ZM150.219 36.52V35.464C150.219 34.136 150.459 33.176 150.939 32.584C150.699 32.504 150.475 32.376 150.267 32.2C150.203 32.104 150.155 32.04 150.123 32.008C150.011 32.312 149.819 32.568 149.547 32.776C149.275 32.984 148.963 33.088 148.611 33.088H148.035V35.68L148.083 35.656C148.595 35.48 149.043 35.48 149.427 35.656C149.811 35.816 150.075 36.104 150.219 36.52ZM153.075 31.528C153.299 31.496 153.539 31.472 153.795 31.456C154.051 31.44 154.323 31.432 154.611 31.432H156.123C156.219 31.288 156.307 31.152 156.387 31.024C156.467 30.88 156.539 30.768 156.603 30.688C156.763 30.432 156.819 30.256 156.771 30.16C156.723 30.048 156.563 29.992 156.291 29.992H154.347C153.883 30.584 153.459 31.096 153.075 31.528ZM160.179 35.56H160.443V35.464C160.443 35 160.371 34.672 160.227 34.48C160.099 34.272 159.827 34.152 159.411 34.12V34.96C159.411 35.216 159.451 35.384 159.531 35.464C159.627 35.528 159.843 35.56 160.179 35.56ZM153.243 36.328C153.467 36.056 153.643 35.728 153.771 35.344C153.915 34.96 154.019 34.56 154.083 34.144C153.763 34.208 153.539 34.336 153.411 34.528C153.299 34.72 153.243 35.032 153.243 35.464V36.328ZM30.064 82.272C27.984 82.272 26.368 81.768 25.216 80.76C24.08 79.752 23.512 78.136 23.512 75.912V63.192C23.512 62.696 23.68 62.28 24.016 61.944C24.368 61.592 24.792 61.416 25.288 61.416C25.784 61.416 26.208 61.592 26.56 61.944C26.912 62.28 27.088 62.696 27.088 63.192V75.912C27.088 76.952 27.312 77.688 27.76 78.12C28.224 78.536 28.992 78.744 30.064 78.744C30.912 78.744 31.752 78.504 32.584 78.024C33.416 77.544 34.104 76.728 34.648 75.576C34.872 75.128 35.208 74.824 35.656 74.664C36.12 74.504 36.576 74.536 37.024 74.76C37.472 74.968 37.768 75.304 37.912 75.768C38.072 76.216 38.056 76.672 37.864 77.136C37.4 78.208 36.768 79.128 35.968 79.896C35.184 80.664 34.28 81.248 33.256 81.648C32.248 82.064 31.184 82.272 30.064 82.272ZM58.192 82.104C56.24 81.832 54.624 81.264 53.344 80.4C52.064 79.536 51.112 78.504 50.488 77.304C49.88 76.088 49.576 74.808 49.576 73.464C49.576 72.28 49.768 71.192 50.152 70.2C50.536 69.208 51.096 68.312 51.832 67.512C50.792 67.688 49.776 67.864 48.784 68.04C47.792 68.216 46.88 68.376 46.048 68.52C45.232 68.664 44.544 68.784 43.984 68.88C43.488 68.96 43.04 68.856 42.64 68.568C42.256 68.264 42.024 67.872 41.944 67.392C41.88 66.896 41.992 66.448 42.28 66.048C42.568 65.648 42.952 65.416 43.432 65.352C44.12 65.256 44.992 65.128 46.048 64.968C47.12 64.792 48.264 64.608 49.48 64.416C50.712 64.208 51.936 64.008 53.152 63.816C54.368 63.608 55.488 63.416 56.512 63.24C57.536 63.048 58.36 62.888 58.984 62.76C59.448 62.664 59.88 62.76 60.28 63.048C60.68 63.32 60.928 63.688 61.024 64.152C61.12 64.616 61.04 65.064 60.784 65.496C60.544 65.912 60.184 66.152 59.704 66.216C58.648 66.36 57.704 66.664 56.872 67.128C56.056 67.592 55.368 68.16 54.808 68.832C54.248 69.504 53.824 70.224 53.536 70.992C53.248 71.76 53.104 72.52 53.104 73.272C53.104 74.696 53.592 75.872 54.568 76.8C55.544 77.728 56.928 78.32 58.72 78.576C59.2 78.64 59.584 78.872 59.872 79.272C60.176 79.672 60.296 80.112 60.232 80.592C60.168 81.088 59.936 81.48 59.536 81.768C59.136 82.056 58.688 82.168 58.192 82.104ZM74.464 81.816C74.112 81.496 73.912 81.088 73.864 80.592C73.832 80.08 73.992 79.648 74.344 79.296C74.952 78.672 75.52 77.936 76.048 77.088C76.576 76.24 77.04 75.352 77.44 74.424C76.912 74.296 76.392 74.184 75.88 74.088C75.368 73.976 74.864 73.888 74.368 73.824C73.264 76.208 71.904 77.824 70.288 78.672C69.648 79.008 68.976 79.208 68.272 79.272C67.584 79.32 66.936 79.224 66.328 78.984C65.72 78.744 65.224 78.352 64.84 77.808C64.472 77.264 64.288 76.56 64.288 75.696C64.288 74.72 64.56 73.848 65.104 73.08C65.664 72.296 66.512 71.672 67.648 71.208C68.784 70.744 70.232 70.496 71.992 70.464C72.136 70.016 72.28 69.536 72.424 69.024C72.568 68.512 72.704 67.96 72.832 67.368C73.008 66.68 72.96 66.208 72.688 65.952C72.432 65.696 71.952 65.624 71.248 65.736C70.944 65.784 70.56 65.84 70.096 65.904C69.648 65.968 69.264 66.016 68.944 66.048C68.448 66.08 68.016 65.936 67.648 65.616C67.28 65.296 67.08 64.888 67.048 64.392C67.016 63.896 67.152 63.464 67.456 63.096C67.776 62.712 68.184 62.504 68.68 62.472C68.936 62.456 69.232 62.432 69.568 62.4C69.92 62.368 70.264 62.336 70.6 62.304C70.936 62.272 71.2 62.256 71.392 62.256C73.344 62.128 74.736 62.48 75.568 63.312C76.4 64.128 76.656 65.472 76.336 67.344C76.224 67.936 76.104 68.52 75.976 69.096C75.848 69.656 75.712 70.192 75.568 70.704C76.048 70.768 76.528 70.848 77.008 70.944C77.504 71.024 78 71.128 78.496 71.256C78.608 70.792 78.696 70.336 78.76 69.888C78.824 69.424 78.864 68.984 78.88 68.568C78.912 68.072 79.08 67.656 79.384 67.32C79.704 66.968 80.112 66.784 80.608 66.768C81.12 66.768 81.552 66.944 81.904 67.296C82.256 67.632 82.416 68.048 82.384 68.544C82.336 69.696 82.152 70.912 81.832 72.192C82.264 72.336 82.688 72.488 83.104 72.648C83.52 72.792 83.928 72.944 84.328 73.104C84.792 73.296 85.112 73.624 85.288 74.088C85.48 74.536 85.488 74.992 85.312 75.456C85.12 75.904 84.792 76.232 84.328 76.44C83.88 76.632 83.424 76.624 82.96 76.416C82.608 76.24 82.248 76.08 81.88 75.936C81.512 75.776 81.144 75.624 80.776 75.48C80.28 76.76 79.696 77.952 79.024 79.056C78.368 80.144 77.688 81.024 76.984 81.696C76.632 82.048 76.216 82.24 75.736 82.272C75.256 82.304 74.832 82.152 74.464 81.816ZM68.824 75.672C69.112 75.496 69.4 75.256 69.688 74.952C69.992 74.648 70.288 74.248 70.576 73.752C69.648 73.864 68.96 74.064 68.512 74.352C68.064 74.624 67.832 74.936 67.816 75.288C67.8 75.544 67.88 75.72 68.056 75.816C68.232 75.912 68.488 75.864 68.824 75.672ZM88.84 82.104C88.408 81.848 88.128 81.48 88 81C87.888 80.52 87.96 80.072 88.216 79.656C89.064 78.216 89.792 76.584 90.4 74.76C91.008 72.936 91.464 71.088 91.768 69.216C91.336 69.264 90.912 69.304 90.496 69.336C90.096 69.368 89.712 69.392 89.344 69.408C88.848 69.44 88.416 69.304 88.048 69C87.696 68.68 87.504 68.272 87.472 67.776C87.44 67.28 87.584 66.856 87.904 66.504C88.24 66.136 88.656 65.944 89.152 65.928C89.648 65.896 90.152 65.864 90.664 65.832C91.192 65.784 91.704 65.736 92.2 65.688C92.248 64.792 92.272 63.952 92.272 63.168C92.256 62.672 92.4 62.24 92.704 61.872C93.024 61.504 93.432 61.312 93.928 61.296C94.424 61.28 94.856 61.44 95.224 61.776C95.592 62.096 95.784 62.512 95.8 63.024C95.8 63.68 95.776 64.408 95.728 65.208C96.16 65.128 96.568 65.056 96.952 64.992C97.432 64.88 97.88 64.952 98.296 65.208C98.712 65.464 98.968 65.832 99.064 66.312C99.176 66.808 99.096 67.256 98.824 67.656C98.552 68.056 98.176 68.304 97.696 68.4C97.36 68.464 96.992 68.528 96.592 68.592C96.192 68.656 95.768 68.728 95.32 68.808C95.096 70.296 94.792 71.816 94.408 73.368C94.024 74.904 93.568 76.376 93.04 77.784C92.528 79.176 91.944 80.408 91.288 81.48C91.032 81.896 90.664 82.168 90.184 82.296C89.704 82.424 89.256 82.36 88.84 82.104ZM105.592 81.648C103.096 82.24 100.976 82.248 99.232 81.672C97.504 81.096 96.288 80.104 95.584 78.696C95.376 78.248 95.336 77.792 95.464 77.328C95.592 76.848 95.872 76.496 96.304 76.272C96.736 76.032 97.184 75.984 97.648 76.128C98.128 76.256 98.488 76.536 98.728 76.968C99.096 77.624 99.776 78.08 100.768 78.336C101.76 78.592 103.128 78.528 104.872 78.144C105.352 78.032 105.792 78.112 106.192 78.384C106.608 78.656 106.872 79.04 106.984 79.536C107.08 80.016 106.992 80.456 106.72 80.856C106.448 81.256 106.072 81.52 105.592 81.648ZM104.392 72.624C103.896 72.496 103.304 72.416 102.616 72.384C101.944 72.336 101.256 72.328 100.552 72.36C99.848 72.376 99.2 72.432 98.608 72.528C98.128 72.592 97.688 72.496 97.288 72.24C96.904 71.984 96.664 71.624 96.568 71.16C96.488 70.696 96.576 70.264 96.832 69.864C97.104 69.464 97.472 69.216 97.936 69.12C98.688 68.976 99.504 68.888 100.384 68.856C101.264 68.824 102.128 68.84 102.976 68.904C103.824 68.968 104.576 69.08 105.232 69.24C105.696 69.352 106.048 69.616 106.288 70.032C106.544 70.432 106.616 70.864 106.504 71.328C106.392 71.792 106.128 72.152 105.712 72.408C105.296 72.648 104.856 72.72 104.392 72.624ZM118.504 82.272C118.008 82.272 117.584 82.096 117.232 81.744C116.88 81.408 116.696 80.992 116.68 80.496C116.664 80 116.824 79.576 117.16 79.224C117.512 78.872 117.936 78.696 118.432 78.696C120.592 78.664 122.2 78.344 123.256 77.736C124.328 77.128 124.864 76.288 124.864 75.216C124.864 74.512 124.616 73.944 124.12 73.512C123.624 73.064 122.912 72.84 121.984 72.84C121.312 72.84 120.616 72.96 119.896 73.2C119.192 73.44 118.512 73.784 117.856 74.232C117.216 74.664 116.656 75.184 116.176 75.792C115.92 76.096 115.576 76.28 115.144 76.344C114.712 76.408 114.328 76.352 113.992 76.176C113.64 76 113.384 75.736 113.224 75.384C113.08 75.032 113.04 74.664 113.104 74.28C113.216 73.56 113.344 72.776 113.488 71.928C113.648 71.08 113.808 70.256 113.968 69.456C114.144 68.656 114.296 67.984 114.424 67.44C114.552 66.96 114.824 66.592 115.24 66.336C115.672 66.08 116.12 66.016 116.584 66.144C117.064 66.256 117.432 66.528 117.688 66.96C117.944 67.392 118.008 67.848 117.88 68.328C117.688 69.144 117.456 70.024 117.184 70.968C117.984 70.488 118.792 70.12 119.608 69.864C120.424 69.592 121.256 69.456 122.104 69.456C123.4 69.456 124.52 69.696 125.464 70.176C126.408 70.64 127.136 71.304 127.648 72.168C128.16 73.016 128.416 74.032 128.416 75.216C128.416 77.392 127.56 79.104 125.848 80.352C124.152 81.584 121.704 82.224 118.504 82.272ZM122.2 67.104C121.72 66.864 121.16 66.6 120.52 66.312C119.896 66.008 119.256 65.72 118.6 65.448C117.944 65.16 117.336 64.912 116.776 64.704C116.328 64.528 116.024 64.2 115.864 63.72C115.704 63.24 115.728 62.776 115.936 62.328C116.16 61.88 116.496 61.584 116.944 61.44C117.408 61.296 117.872 61.312 118.336 61.488C119.184 61.808 120.064 62.168 120.976 62.568C121.888 62.968 122.76 63.384 123.592 63.816C124.024 64.024 124.336 64.352 124.528 64.8C124.72 65.232 124.72 65.68 124.528 66.144C124.352 66.592 124.032 66.92 123.568 67.128C123.104 67.32 122.648 67.312 122.2 67.104ZM149.032 82.08C144.744 82.672 141.496 82.424 139.288 81.336C137.08 80.264 135.976 78.536 135.976 76.152C135.976 74.744 136.328 73.52 137.032 72.48C137.752 71.424 138.744 70.52 140.008 69.768C139.88 69.176 139.712 68.504 139.504 67.752C139.296 66.984 139.08 66.224 138.856 65.472C138.632 64.704 138.432 64.048 138.256 63.504C138.128 63.04 138.184 62.592 138.424 62.16C138.68 61.712 139.04 61.424 139.504 61.296C140 61.168 140.464 61.232 140.896 61.488C141.344 61.728 141.632 62.08 141.76 62.544C142 63.392 142.24 64.328 142.48 65.352C142.736 66.36 142.96 67.336 143.152 68.28C143.856 68.008 144.608 67.76 145.408 67.536C146.208 67.312 147.048 67.104 147.928 66.912C148.408 66.8 148.848 66.872 149.248 67.128C149.664 67.384 149.928 67.752 150.04 68.232C150.152 68.712 150.072 69.16 149.8 69.576C149.544 69.976 149.176 70.224 148.696 70.32C146.728 70.72 145.128 71.16 143.896 71.64C142.68 72.104 141.752 72.584 141.112 73.08C140.472 73.576 140.032 74.08 139.792 74.592C139.568 75.088 139.456 75.584 139.456 76.08C139.456 76.576 139.6 77.032 139.888 77.448C140.176 77.864 140.664 78.2 141.352 78.456C142.04 78.712 142.968 78.856 144.136 78.888C145.32 78.92 146.8 78.8 148.576 78.528C149.072 78.448 149.512 78.568 149.896 78.888C150.296 79.192 150.528 79.584 150.592 80.064C150.656 80.56 150.536 81 150.232 81.384C149.928 81.768 149.528 82 149.032 82.08ZM155.104 66.096C154.88 66.32 154.592 66.424 154.24 66.408C153.888 66.392 153.6 66.248 153.376 65.976C153.232 65.8 153 65.528 152.68 65.16C152.376 64.792 152.12 64.48 151.912 64.224C151.752 64.048 151.68 63.808 151.696 63.504C151.728 63.2 151.856 62.944 152.08 62.736C152.272 62.56 152.512 62.464 152.8 62.448C153.088 62.432 153.344 62.512 153.568 62.688C153.84 62.896 154.136 63.168 154.456 63.504C154.792 63.824 155.064 64.12 155.272 64.392C155.464 64.664 155.552 64.96 155.536 65.28C155.52 65.584 155.376 65.856 155.104 66.096ZM152.488 68.208C152.232 68.4 151.928 68.472 151.576 68.424C151.24 68.376 150.976 68.208 150.784 67.92C150.656 67.712 150.448 67.416 150.16 67.032C149.888 66.632 149.664 66.296 149.488 66.024C149.36 65.832 149.32 65.592 149.368 65.304C149.416 65 149.568 64.752 149.824 64.56C150.032 64.4 150.272 64.328 150.544 64.344C150.832 64.36 151.08 64.464 151.288 64.656C151.528 64.88 151.8 65.176 152.104 65.544C152.408 65.896 152.648 66.224 152.824 66.528C153 66.816 153.056 67.112 152.992 67.416C152.928 67.72 152.76 67.984 152.488 68.208ZM167.08 82.824C166.696 83.128 166.248 83.272 165.736 83.256C165.224 83.256 164.808 83.08 164.488 82.728C164.168 82.36 164.008 81.928 164.008 81.432C164.024 80.952 164.216 80.552 164.584 80.232C165.848 79.144 166.808 78.008 167.464 76.824C168.12 75.64 168.448 74.264 168.448 72.696C168.448 71.72 168.184 71.032 167.656 70.632C167.144 70.232 166.488 70.032 165.688 70.032C165.016 70.016 164.352 70.168 163.696 70.488C163.04 70.808 162.4 71.264 161.776 71.856C161.424 72.192 160.992 72.344 160.48 72.312C159.984 72.264 159.576 72.056 159.256 71.688C158.92 71.32 158.776 70.896 158.824 70.416C158.888 69.92 159.096 69.504 159.448 69.168C160.376 68.32 161.376 67.696 162.448 67.296C163.52 66.896 164.6 66.696 165.688 66.696C166.888 66.696 167.96 66.912 168.904 67.344C169.848 67.76 170.592 68.416 171.136 69.312C171.68 70.192 171.952 71.32 171.952 72.696C171.952 74.808 171.512 76.72 170.632 78.432C169.752 80.144 168.568 81.608 167.08 82.824ZM168.496 66.216C167.824 66.008 167.096 65.776 166.312 65.52C165.544 65.264 164.792 65 164.056 64.728C163.336 64.44 162.696 64.168 162.136 63.912C161.688 63.704 161.392 63.368 161.248 62.904C161.104 62.424 161.136 61.96 161.344 61.512C161.568 61.08 161.928 60.8 162.424 60.672C162.92 60.544 163.392 60.576 163.84 60.768C164.64 61.12 165.544 61.48 166.552 61.848C167.576 62.216 168.528 62.52 169.408 62.76C169.872 62.888 170.232 63.168 170.488 63.6C170.744 64.016 170.808 64.464 170.68 64.944C170.568 65.408 170.296 65.768 169.864 66.024C169.432 66.28 168.976 66.344 168.496 66.216ZM188.8 76.992C188.4 76.992 188.048 76.864 187.744 76.608C187.456 76.336 187.296 76 187.264 75.6L187.096 73.344C187.032 72.496 187.152 71.792 187.456 71.232C187.76 70.656 188.448 70.168 189.52 69.768C190.176 69.496 190.624 69.168 190.864 68.784C191.12 68.384 191.248 67.88 191.248 67.272C191.248 66.488 191.032 65.856 190.6 65.376C190.184 64.896 189.584 64.656 188.8 64.656C188.208 64.656 187.672 64.832 187.192 65.184C186.728 65.536 186.408 65.984 186.232 66.528C186.072 67.072 185.744 67.48 185.248 67.752C184.768 68.008 184.256 68.056 183.712 67.896C183.168 67.736 182.768 67.424 182.512 66.96C182.256 66.496 182.2 65.992 182.344 65.448C182.584 64.632 183 63.896 183.592 63.24C184.184 62.584 184.92 62.064 185.8 61.68C186.696 61.28 187.696 61.08 188.8 61.08C190.096 61.08 191.24 61.328 192.232 61.824C193.24 62.32 194.024 63.032 194.584 63.96C195.16 64.872 195.448 65.976 195.448 67.272C195.448 68.552 195.072 69.624 194.32 70.488C193.568 71.352 192.6 72 191.416 72.432C191.016 72.576 190.752 72.744 190.624 72.936C190.496 73.112 190.424 73.4 190.408 73.8L190.312 75.6C190.296 76 190.136 76.336 189.832 76.608C189.544 76.864 189.2 76.992 188.8 76.992ZM188.8 82.68C188.16 82.68 187.608 82.448 187.144 81.984C186.68 81.52 186.448 80.968 186.448 80.328C186.448 79.672 186.68 79.12 187.144 78.672C187.608 78.224 188.16 78 188.8 78C189.456 78 190.008 78.224 190.456 78.672C190.92 79.12 191.152 79.672 191.152 80.328C191.152 80.968 190.92 81.52 190.456 81.984C190.008 82.448 189.456 82.68 188.8 82.68Z" fill="#416498"/>
</svg>
