<svg width="313" height="213" viewBox="0 0 313 213" fill="none" xmlns="http://www.w3.org/2000/svg">
<path d="M4.11979 77.3394C11.6098 50.3022 31.2423 28.2828 57.2468 17.7532L76.8927 9.79826C97.6304 1.40128 120.148 -1.64091 142.37 0.952029L215.5 9.48489L254.248 15.8747C279.122 19.9767 299.866 37.1449 308.547 60.814V60.814C313.402 74.0532 314.143 88.4507 310.673 102.118L302.184 135.553C297.472 154.112 282.71 168.435 264.018 172.586V172.586C255.168 174.552 247.006 178.853 240.383 185.043L211 212.5V209.192C211 191.281 195.408 177.361 177.611 179.384L130.496 184.74C120.532 185.873 110.471 185.851 100.512 184.676L70.5707 181.143C41.5648 177.72 16.7603 158.693 5.93856 131.564V131.564C-0.509162 115.401 -1.48471 97.5703 3.16114 80.7999L4.11979 77.3394Z" fill="white"/>
</svg>
