<svg width="168" height="71" viewBox="0 0 168 71" fill="none" xmlns="http://www.w3.org/2000/svg">
<rect width="168" height="71" fill="#F5F5F5"/>
<rect width="360" height="640" transform="translate(-94 -207)" fill="#FFF6C9"/>
<path d="M2.75074 23.4752C5.94757 16.4426 12.1878 11.2604 19.6879 9.40965L45.536 3.03132C53.6752 1.02286 62.079 0.302825 70.4413 0.897446L115.667 4.11335L147.215 7.2838C154.24 7.9898 160.52 11.9679 164.161 18.0174C167.832 24.1181 168.383 31.6013 165.645 38.174L164.553 40.7935C160.728 49.976 152.318 56.4396 142.46 57.7736L140.6 58.0253C136.63 58.5626 132.8 59.8579 129.318 61.8407L113.234 71C113.234 64.424 107.663 59.2248 101.102 59.6793L61.6047 62.4156L24.6895 59.7609C16.6093 59.1798 9.26332 54.8608 4.82657 48.0827L4.61077 47.753C-0.127943 40.5136 -0.82986 31.352 2.75074 23.4752Z" fill="white"/>
<path d="M32.596 40.248C31.78 40.248 31.044 40.112 30.388 39.84C29.732 39.568 29.212 39.136 28.828 38.544C28.444 37.952 28.252 37.176 28.252 36.216C28.252 34.856 28.748 33.624 29.74 32.52C30.748 31.4 32.132 30.528 33.892 29.904V27.024C33.284 27.072 32.684 27.112 32.092 27.144C31.5 27.176 30.948 27.192 30.436 27.192C29.94 27.192 29.516 27.032 29.164 26.712C28.812 26.376 28.636 25.96 28.636 25.464C28.636 24.968 28.804 24.552 29.14 24.216C29.492 23.88 29.916 23.704 30.412 23.688C30.924 23.672 31.476 23.656 32.068 23.64C32.676 23.608 33.284 23.576 33.892 23.544V21.024C33.892 20.528 34.06 20.112 34.396 19.776C34.732 19.424 35.148 19.248 35.644 19.248C36.14 19.248 36.556 19.424 36.892 19.776C37.228 20.112 37.396 20.528 37.396 21.024V23.256C37.652 23.224 37.9 23.192 38.14 23.16C38.38 23.128 38.604 23.096 38.812 23.064C39.308 22.984 39.748 23.08 40.132 23.352C40.532 23.608 40.764 23.976 40.828 24.456C40.908 24.952 40.796 25.376 40.492 25.728C40.204 26.08 39.82 26.296 39.34 26.376C39.052 26.424 38.748 26.472 38.428 26.52C38.108 26.568 37.764 26.608 37.396 26.64V29.112C38.212 29.016 39.06 28.968 39.94 28.968C41.46 28.968 42.78 29.184 43.9 29.616C45.02 30.048 45.884 30.672 46.492 31.488C47.116 32.304 47.428 33.28 47.428 34.416C47.428 35.648 47.148 36.712 46.588 37.608C46.028 38.488 45.228 39.152 44.188 39.6C43.164 40.064 41.94 40.28 40.516 40.248C40.02 40.232 39.596 40.048 39.244 39.696C38.892 39.36 38.724 38.944 38.74 38.448C38.74 37.952 38.916 37.536 39.268 37.2C39.62 36.848 40.044 36.672 40.54 36.672C42.716 36.688 43.804 35.936 43.804 34.416C43.804 33.696 43.468 33.136 42.796 32.736C42.14 32.336 41.164 32.136 39.868 32.136C39.42 32.136 38.988 32.152 38.572 32.184C38.172 32.2 37.78 32.24 37.396 32.304V35.112C37.396 36.872 36.972 38.168 36.124 39C35.292 39.832 34.116 40.248 32.596 40.248ZM45.076 28.488C44.724 28.232 44.308 27.96 43.828 27.672C43.348 27.384 42.924 27.144 42.556 26.952C42.14 26.728 41.836 26.392 41.644 25.944C41.452 25.48 41.46 25.04 41.668 24.624C41.908 24.144 42.26 23.84 42.724 23.712C43.204 23.584 43.652 23.632 44.068 23.856C44.372 24 44.716 24.184 45.1 24.408C45.484 24.632 45.86 24.864 46.228 25.104C46.596 25.328 46.908 25.536 47.164 25.728C47.548 26 47.772 26.376 47.836 26.856C47.9 27.336 47.788 27.768 47.5 28.152C47.212 28.536 46.828 28.76 46.348 28.824C45.884 28.872 45.46 28.76 45.076 28.488ZM32.596 36.912C32.964 36.912 33.268 36.8 33.508 36.576C33.764 36.336 33.892 35.848 33.892 35.112V33.432C33.22 33.8 32.7 34.216 32.332 34.68C31.964 35.144 31.78 35.624 31.78 36.12C31.78 36.376 31.852 36.576 31.996 36.72C32.156 36.848 32.356 36.912 32.596 36.912ZM59.428 38.736C58.932 38.8 58.492 38.688 58.108 38.4C57.724 38.096 57.492 37.696 57.412 37.2C57.348 36.704 57.468 36.264 57.772 35.88C58.076 35.496 58.476 35.272 58.972 35.208C61.804 34.84 63.852 34.128 65.116 33.072C66.396 32.016 66.932 30.76 66.724 29.304C66.564 28.2 66.116 27.408 65.38 26.928C64.66 26.448 63.572 26.264 62.116 26.376C61.428 26.424 60.652 26.512 59.788 26.64C58.94 26.768 58.068 26.928 57.172 27.12C56.276 27.296 55.412 27.48 54.58 27.672C53.764 27.864 53.044 28.048 52.42 28.224C51.956 28.352 51.508 28.288 51.076 28.032C50.644 27.776 50.364 27.416 50.236 26.952C50.108 26.472 50.164 26.008 50.404 25.56C50.644 25.112 51.004 24.824 51.484 24.696C52.156 24.52 52.932 24.344 53.812 24.168C54.692 23.976 55.604 23.8 56.548 23.64C57.508 23.464 58.444 23.32 59.356 23.208C60.284 23.08 61.116 22.984 61.852 22.92C64.284 22.744 66.212 23.16 67.636 24.168C69.076 25.16 69.948 26.704 70.252 28.8C70.476 30.352 70.22 31.824 69.484 33.216C68.764 34.608 67.564 35.8 65.884 36.792C64.22 37.768 62.068 38.416 59.428 38.736ZM80.164 39.912C79.668 39.832 79.268 39.6 78.964 39.216C78.676 38.832 78.564 38.392 78.628 37.896C78.692 37.4 78.916 37.008 79.3 36.72C79.7 36.416 80.14 36.296 80.62 36.36C81.116 36.424 81.54 36.44 81.892 36.408C82.26 36.36 82.564 36.2 82.804 35.928C83.06 35.64 83.276 35.192 83.452 34.584C83.644 33.976 83.812 33.136 83.956 32.064C84.1 31.088 84.116 30.352 84.004 29.856C83.892 29.36 83.636 29.032 83.236 28.872C82.836 28.696 82.268 28.632 81.532 28.68C80.94 30.712 80.196 32.68 79.3 34.584C78.42 36.488 77.436 38.104 76.348 39.432C76.044 39.8 75.644 40.016 75.148 40.08C74.668 40.144 74.236 40.024 73.852 39.72C73.468 39.416 73.244 39.016 73.18 38.52C73.116 38.024 73.236 37.592 73.54 37.224C74.404 36.184 75.204 34.952 75.94 33.528C76.692 32.104 77.34 30.6 77.884 29.016C77.468 29.048 77.052 29.088 76.636 29.136C76.22 29.184 75.828 29.224 75.46 29.256C74.964 29.304 74.524 29.176 74.14 28.872C73.756 28.568 73.54 28.168 73.492 27.672C73.428 27.176 73.548 26.736 73.852 26.352C74.172 25.968 74.58 25.752 75.076 25.704C75.684 25.64 76.308 25.584 76.948 25.536C77.588 25.488 78.228 25.44 78.868 25.392C78.996 24.736 79.108 24.096 79.204 23.472C79.3 22.832 79.364 22.2 79.396 21.576C79.428 21.08 79.628 20.672 79.996 20.352C80.364 20.016 80.796 19.864 81.292 19.896C81.788 19.928 82.204 20.128 82.54 20.496C82.876 20.864 83.02 21.296 82.972 21.792C82.828 22.896 82.636 24.056 82.396 25.272C84.492 25.368 85.932 26 86.716 27.168C87.5 28.32 87.732 30.112 87.412 32.544C87.156 34.608 86.732 36.208 86.14 37.344C85.548 38.48 84.764 39.232 83.788 39.6C82.812 39.984 81.604 40.088 80.164 39.912ZM93.868 32.76C93.436 33 92.98 33.048 92.5 32.904C92.036 32.76 91.684 32.48 91.444 32.064C91.172 31.584 90.828 31.064 90.412 30.504C89.996 29.928 89.564 29.376 89.116 28.848C88.684 28.32 88.284 27.864 87.916 27.48C87.58 27.112 87.396 26.696 87.364 26.232C87.332 25.752 87.484 25.336 87.82 24.984C88.156 24.616 88.572 24.432 89.068 24.432C89.564 24.416 89.988 24.584 90.34 24.936C91.172 25.72 91.956 26.6 92.692 27.576C93.444 28.536 94.068 29.456 94.564 30.336C94.82 30.768 94.876 31.224 94.732 31.704C94.588 32.184 94.3 32.536 93.868 32.76ZM101.644 41.04C101.18 41.04 100.772 40.872 100.42 40.536C100.084 40.2 99.916 39.792 99.916 39.312V35.304C99.74 35.576 99.572 35.832 99.412 36.072C99.268 36.312 99.132 36.536 99.004 36.744C98.748 37.176 98.372 37.448 97.876 37.56C97.396 37.656 96.948 37.568 96.532 37.296C96.132 37.024 95.884 36.648 95.788 36.168C95.708 35.672 95.812 35.224 96.1 34.824C96.596 34.12 97.164 33.304 97.804 32.376C98.46 31.432 99.164 30.48 99.916 29.52V27.072C99.708 27.12 99.444 27.2 99.124 27.312C98.804 27.408 98.5 27.496 98.212 27.576C97.94 27.656 97.748 27.712 97.636 27.744C97.156 27.856 96.708 27.784 96.292 27.528C95.876 27.256 95.612 26.88 95.5 26.4C95.388 25.92 95.468 25.472 95.74 25.056C96.012 24.64 96.388 24.376 96.868 24.264C97.044 24.216 97.292 24.16 97.612 24.096C97.948 24.032 98.284 23.96 98.62 23.88C98.956 23.8 99.228 23.744 99.436 23.712C99.516 23.68 99.596 23.664 99.676 23.664C99.772 23.648 99.852 23.632 99.916 23.616V20.544C99.916 20.064 100.084 19.656 100.42 19.32C100.772 18.984 101.18 18.816 101.644 18.816C102.124 18.816 102.532 18.984 102.868 19.32C103.22 19.656 103.396 20.064 103.396 20.544V24.048C103.684 24.256 103.932 24.528 104.14 24.864C104.172 24.896 104.196 24.928 104.212 24.96C104.228 24.992 104.244 25.024 104.26 25.056C104.948 24.544 105.644 24.136 106.348 23.832C107.052 23.512 107.756 23.352 108.46 23.352C110.316 23.352 111.628 23.952 112.396 25.152C113.18 26.352 113.356 28.192 112.924 30.672C112.732 31.776 112.588 32.648 112.492 33.288C112.412 33.912 112.372 34.384 112.372 34.704C112.372 35.008 112.396 35.216 112.444 35.328C112.508 35.44 112.588 35.52 112.684 35.568C113.004 35.744 113.332 35.76 113.668 35.616C114.02 35.456 114.42 35.176 114.868 34.776C115.236 34.44 115.668 34.312 116.164 34.392C116.676 34.472 117.084 34.696 117.388 35.064C117.708 35.448 117.844 35.888 117.796 36.384C117.748 36.88 117.54 37.296 117.172 37.632C116.052 38.656 114.876 39.256 113.644 39.432C112.412 39.608 111.324 39.416 110.38 38.856C109.5 38.312 108.972 37.488 108.796 36.384C108.636 35.28 108.748 33.76 109.132 31.824C109.42 30.416 109.556 29.36 109.54 28.656C109.54 27.936 109.412 27.448 109.156 27.192C108.916 26.936 108.58 26.808 108.148 26.808C107.732 26.808 107.26 26.976 106.732 27.312C106.22 27.648 105.676 28.096 105.1 28.656C104.54 29.216 103.972 29.84 103.396 30.528V39.312C103.396 39.792 103.22 40.2 102.868 40.536C102.532 40.872 102.124 41.04 101.644 41.04ZM129.1 34.464C128.7 34.464 128.356 34.336 128.068 34.08C127.78 33.808 127.62 33.472 127.588 33.072C127.524 32.224 127.452 31.304 127.372 30.312C127.308 29.304 127.244 28.32 127.18 27.36C127.116 26.384 127.06 25.504 127.012 24.72C126.98 23.92 126.964 23.304 126.964 22.872V21.096C126.964 20.536 127.164 20.056 127.564 19.656C127.964 19.24 128.476 19.032 129.1 19.032C129.724 19.032 130.236 19.24 130.636 19.656C131.036 20.056 131.236 20.536 131.236 21.096V22.872C131.236 23.304 131.212 23.92 131.164 24.72C131.132 25.504 131.084 26.384 131.02 27.36C130.956 28.32 130.884 29.304 130.804 30.312C130.74 31.304 130.676 32.224 130.612 33.072C130.58 33.472 130.42 33.808 130.132 34.08C129.844 34.336 129.5 34.464 129.1 34.464ZM129.1 40.68C128.46 40.68 127.908 40.448 127.444 39.984C126.98 39.52 126.748 38.968 126.748 38.328C126.748 37.672 126.98 37.12 127.444 36.672C127.908 36.224 128.46 36 129.1 36C129.756 36 130.308 36.224 130.756 36.672C131.22 37.12 131.452 37.672 131.452 38.328C131.452 38.968 131.22 39.52 130.756 39.984C130.308 40.448 129.756 40.68 129.1 40.68Z" fill="#416498"/>
</svg>
