<svg width="360" height="190" viewBox="0 0 360 190" fill="none" xmlns="http://www.w3.org/2000/svg">
<path d="M0 8H360V186.265L336.399 181.85C328.495 180.371 320.794 177.957 313.459 174.66L308.766 172.549C303.282 170.084 298.169 166.866 293.574 162.988L292.01 161.668C278.376 150.162 260.347 145.284 242.771 148.346V148.346C234.353 149.813 225.72 149.473 217.443 147.351L191.743 140.76C176.705 136.904 160.799 138.328 146.686 144.796L137.669 148.929C126.698 153.956 114.154 154.304 102.922 149.892L97.0101 147.57C78.6826 140.37 57.9055 148.536 49.3837 166.287V166.287C42.5484 180.526 27.5408 188.972 11.8225 187.427L0 186.265V8Z" fill="#BEE4F7"/>
<path d="M0 0H360V178.265L336.399 173.85C328.495 172.371 320.794 169.957 313.459 166.66L308.766 164.549C303.282 162.084 298.169 158.866 293.574 154.988L292.01 153.668C278.376 142.162 260.347 137.284 242.771 140.346V140.346C234.353 141.813 225.72 141.473 217.443 139.351L191.743 132.76C176.705 128.904 160.799 130.328 146.686 136.796L137.669 140.929C126.698 145.956 114.154 146.304 102.922 141.892L97.0101 139.57C78.6826 132.37 57.9055 140.536 49.3837 158.287V158.287C42.5484 172.526 27.5408 180.972 11.8225 179.427L0 178.265V0Z" fill="#E2F5FF"/>
<mask id="mask0_66_631" style="mask-type:alpha" maskUnits="userSpaceOnUse" x="0" y="0" width="360" height="180">
<path d="M0 0.5H360V178.265L336.399 173.85C328.495 172.371 320.794 169.957 313.459 166.66L308.766 164.549C303.282 162.084 298.169 158.866 293.574 154.988L292.01 153.668C278.376 142.162 260.347 137.284 242.771 140.346V140.346C234.353 141.813 225.72 141.473 217.443 139.351L191.743 132.76C176.705 128.904 160.799 130.328 146.686 136.796L137.669 140.929C126.698 145.956 114.154 146.304 102.922 141.892L97.0101 139.57C78.6826 132.37 57.9055 140.536 49.3837 158.287V158.287C42.5484 172.526 27.5408 180.972 11.8225 179.427L0 178.265V0.5Z" fill="#E2F5FF"/>
</mask>
<g mask="url(#mask0_66_631)">
<path d="M7.41713 124.213C4.57529 123.366 1.71401 123.895 -0.566257 125.698C-4.41052 128.736 -4.09817 135.534 0.0215171 138.464C3.47842 140.922 8.90464 140.007 11.3632 136.55C13.3874 133.704 13.1748 129.462 10.8737 126.534C10.0727 125.515 8.69336 124.592 7.41713 124.213Z" fill="#BEE4F7"/>
<path d="M24.0518 136.044C21.21 135.197 18.3487 135.725 16.0684 137.528C12.2242 140.567 12.5365 147.365 16.6562 150.295C20.1131 152.753 25.5393 151.837 27.9979 148.38C30.0221 145.534 29.8095 141.293 27.5085 138.365C26.7074 137.345 25.3281 136.423 24.0518 136.044Z" fill="#BEE4F7"/>
<path d="M40.6865 147.874C37.8447 147.027 34.9834 147.556 32.7032 149.359C28.8589 152.398 29.1712 159.195 33.2909 162.125C36.7478 164.584 42.1741 163.668 44.6326 160.211C46.6568 157.365 46.4442 153.124 44.1432 150.196C43.3421 149.176 41.9628 148.254 40.6865 147.874Z" fill="#BEE4F7"/>
<path d="M57.3212 159.705C54.4794 158.858 51.6181 159.387 49.3379 161.19C45.4936 164.229 45.8059 171.026 49.9256 173.956C53.3825 176.415 58.8088 175.499 61.2673 172.042C63.2915 169.196 63.0789 164.955 60.7779 162.027C59.9768 161.007 58.5975 160.084 57.3212 159.705Z" fill="#BEE4F7"/>
<path d="M73.9559 171.536C71.1141 170.689 68.2528 171.218 65.9726 173.02C62.1283 176.059 62.4406 182.857 66.5603 185.787C70.0172 188.245 75.4435 187.33 77.902 183.873C79.9262 181.027 79.7136 176.785 77.4126 173.857C76.6115 172.837 75.2322 171.915 73.9559 171.536Z" fill="#BEE4F7"/>
<path d="M90.5906 183.367C87.7488 182.52 84.8875 183.048 82.6073 184.851C79.3571 187.412 78.975 192.737 81.7704 196.291C84.3317 199.541 89.6567 199.923 93.2104 197.128C95.2686 195.5 96.2952 192.571 95.8036 189.657C95.2894 186.611 93.2618 184.151 90.5906 183.367Z" fill="#BEE4F7"/>
<path d="M-4.41362 140.848C-7.25546 140.001 -10.1167 140.529 -12.397 142.332C-16.2413 145.371 -15.9289 152.169 -11.8092 155.099C-8.35233 157.557 -2.92611 156.641 -0.467533 153.184C1.55663 150.338 1.34405 146.097 -0.957001 143.169C-1.75809 142.149 -3.13739 141.227 -4.41362 140.848Z" fill="#BEE4F7"/>
<path d="M12.221 152.678C9.37919 151.831 6.51791 152.36 4.23764 154.163C0.393378 157.202 0.705722 163.999 4.82541 166.929C8.28231 169.388 13.7085 168.472 16.1671 165.015C18.1913 162.169 17.9787 157.928 15.6776 155C14.8765 153.98 13.4973 153.058 12.221 152.678Z" fill="#BEE4F7"/>
<path d="M28.8558 164.509C26.014 163.662 23.1527 164.191 20.8724 165.994C17.0281 169.033 17.3405 175.83 21.4602 178.76C24.9171 181.219 30.3433 180.303 32.8019 176.846C34.826 174 34.6135 169.759 32.3124 166.831C31.5113 165.811 30.132 164.888 28.8558 164.509Z" fill="#BEE4F7"/>
<path d="M45.4905 176.34C42.6487 175.493 39.7874 176.022 37.5071 177.824C33.6628 180.863 33.9752 187.661 38.0949 190.591C41.5518 193.049 46.978 192.134 49.4366 188.677C51.4607 185.831 51.2482 181.589 48.9471 178.661C48.146 177.641 46.7667 176.719 45.4905 176.34Z" fill="#BEE4F7"/>
<path d="M0.390335 169.313C-2.4515 168.466 -5.31278 168.995 -7.59305 170.798C-11.4373 173.837 -11.125 180.634 -7.00528 183.564C-3.54838 186.023 1.87785 185.107 4.33642 181.65C5.51025 179.999 5.97105 177.783 5.60324 175.604C5.08907 172.557 3.06149 170.097 0.390335 169.313Z" fill="#BEE4F7"/>
<path d="M17.025 181.144C14.1832 180.297 11.3219 180.826 9.04165 182.628C5.19739 185.667 5.50974 192.465 9.62943 195.395C13.0863 197.853 18.5126 196.938 20.9711 193.481C22.145 191.83 22.6058 189.614 22.2379 187.434C21.7238 184.388 19.6962 181.928 17.025 181.144Z" fill="#BEE4F7"/>
<path d="M372.077 -13.5999C369.164 -14.1548 366.371 -13.3393 364.285 -11.3148C360.768 -7.90235 361.767 -1.17143 366.162 1.32644C369.85 3.42245 375.156 1.9621 377.252 -1.72592C378.252 -3.48675 378.486 -5.73831 377.9 -7.86926C377.08 -10.8483 374.814 -13.09 372.077 -13.5999Z" fill="#BEE4F7"/>
<path d="M326.497 -16.025C323.584 -16.58 320.791 -15.7644 318.705 -13.74C315.188 -10.3275 316.187 -3.5966 320.582 -1.09873C324.27 0.997275 329.576 -0.463072 331.672 -4.15109C333.397 -7.18747 332.757 -11.3854 330.171 -14.0655C329.271 -14.999 327.805 -15.7769 326.497 -16.025Z" fill="#BEE4F7"/>
<path d="M344.244 -5.93901C341.331 -6.49395 338.538 -5.6784 336.452 -3.65393C333.478 -0.776829 333.637 4.55956 336.777 7.81202C340.19 11.3289 346.921 10.3301 349.419 5.93494C351.144 2.89856 350.503 -1.29933 347.918 -3.97946C347.018 -4.91296 345.552 -5.69086 344.244 -5.93901Z" fill="#BEE4F7"/>
<path d="M361.991 4.14702C359.078 3.59207 356.285 4.40763 354.199 6.4321C351.225 9.3092 351.383 14.6456 354.524 17.8981C357.937 21.4149 364.668 20.4161 367.166 16.021C368.891 12.9846 368.25 8.7867 365.665 6.10657C364.765 5.17307 363.299 4.39517 361.991 4.14702Z" fill="#BEE4F7"/>
<path d="M298.664 -8.36421C295.751 -8.91916 292.958 -8.1036 290.872 -6.07914C287.355 -2.66669 288.354 4.06423 292.749 6.5621C296.437 8.6581 301.743 7.19776 303.839 3.50973C305.565 0.473354 304.924 -3.72453 302.338 -6.40466C301.438 -7.33817 299.972 -8.11606 298.664 -8.36421Z" fill="#BEE4F7"/>
<path d="M316.411 1.72182C313.498 1.16687 310.705 1.98243 308.619 4.00689C305.102 7.41934 306.101 14.1503 310.496 16.6481C314.184 18.7441 319.49 17.2838 321.586 13.5958C323.311 10.5594 322.671 6.3615 320.085 3.68137C319.185 2.74786 317.719 1.96996 316.411 1.72182Z" fill="#BEE4F7"/>
<path d="M334.158 11.8078C331.245 11.2529 328.452 12.0685 326.366 14.0929C323.392 16.97 323.551 22.3064 326.691 25.5589C330.104 29.0758 336.835 28.0769 339.333 23.6818C341.058 20.6454 340.417 16.4475 337.832 13.7674C336.932 12.8339 335.466 12.056 334.158 11.8078Z" fill="#BEE4F7"/>
<path d="M351.905 21.8939C348.992 21.3389 346.199 22.1545 344.113 24.179C341.139 27.0561 341.297 32.3924 344.438 35.6449C347.851 39.1618 354.582 38.1629 357.079 33.7678C358.805 30.7314 358.164 26.5336 355.579 23.8534C354.678 22.9199 353.213 22.142 351.905 21.8939Z" fill="#BEE4F7"/>
<path d="M369.652 31.9799C366.739 31.425 363.946 32.2405 361.86 34.265C358.885 37.1421 359.044 42.4785 362.185 45.731C365.598 49.2479 372.329 48.249 374.826 43.8539C376.552 40.8175 375.911 36.6196 373.326 33.9395C372.425 33.006 370.96 32.2281 369.652 31.9799Z" fill="#BEE4F7"/>
<path d="M253.084 -10.7894C250.171 -11.3444 247.378 -10.5288 245.292 -8.50434C241.775 -5.09189 242.774 1.63903 247.169 4.1369C250.857 6.2329 256.163 4.77255 258.259 1.08453C259.26 -0.676291 259.494 -2.92785 258.907 -5.05881C258.087 -8.0378 255.821 -10.2796 253.084 -10.7894Z" fill="#BEE4F7"/>
<path d="M270.831 -0.703383C267.918 -1.25833 265.125 -0.442771 263.039 1.58169C260.065 4.4588 260.224 9.79518 263.365 13.0476C266.777 16.5645 273.508 15.5657 276.006 11.1706C277.732 8.13419 277.091 3.9363 274.505 1.25617C273.605 0.322663 272.139 -0.455233 270.831 -0.703383Z" fill="#BEE4F7"/>
<path d="M288.578 9.38264C285.665 8.8277 282.872 9.64326 280.786 11.6677C277.269 15.0802 278.268 21.8111 282.663 24.309C286.351 26.405 291.657 24.9446 293.753 21.2566C295.478 18.2202 294.838 14.0223 292.252 11.3422C291.352 10.4087 289.886 9.63079 288.578 9.38264Z" fill="#BEE4F7"/>
<path d="M306.325 19.4687C303.412 18.9138 300.619 19.7293 298.533 21.7538C295.016 25.1662 296.015 31.8971 300.41 34.395C304.098 36.491 309.404 35.0307 311.5 31.3426C313.225 28.3063 312.585 24.1084 309.999 21.4283C309.099 20.4947 307.633 19.7169 306.325 19.4687Z" fill="#BEE4F7"/>
<path d="M324.072 29.5547C321.159 28.9998 318.366 29.8153 316.28 31.8398C313.306 34.7169 313.465 40.0533 316.605 43.3058C320.018 46.8227 326.749 45.8238 329.247 41.4287C330.972 38.3923 330.331 34.1944 327.746 31.5143C326.846 30.5808 325.38 29.8029 324.072 29.5547Z" fill="#BEE4F7"/>
<path d="M341.819 39.6408C338.906 39.0858 336.113 39.9014 334.027 41.9258C331.052 44.8029 331.211 50.1393 334.352 53.3918C337.765 56.9087 344.496 55.9098 346.993 51.5147C348.719 48.4783 348.078 44.2804 345.493 41.6003C344.592 40.6668 343.127 39.8889 341.819 39.6408Z" fill="#BEE4F7"/>
<path d="M359.566 49.7268C356.653 49.1719 353.86 49.9874 351.774 52.0119C348.799 54.889 348.958 60.2254 352.099 63.4779C355.512 66.9947 362.242 65.9959 364.74 61.6008C366.466 58.5644 365.825 54.3665 363.24 51.6864C362.339 50.7529 360.874 49.975 359.566 49.7268Z" fill="#BEE4F7"/>
<path d="M242.998 6.95744C240.085 6.4025 237.292 7.21805 235.206 9.24252C231.689 12.655 232.688 19.3859 237.083 21.8838C240.771 23.9798 246.077 22.5194 248.173 18.8314C249.899 15.795 249.258 11.5971 246.672 8.91699C245.772 7.98349 244.306 7.20559 242.998 6.95744Z" fill="#BEE4F7"/>
<path d="M260.745 17.0435C257.832 16.4886 255.039 17.3041 252.953 19.3286C249.979 22.2057 250.138 27.5421 253.279 30.7945C256.691 34.3114 263.422 33.3126 265.92 28.9175C267.646 25.8811 267.005 21.6832 264.419 19.0031C263.519 18.0696 262.053 17.2917 260.745 17.0435Z" fill="#BEE4F7"/>
<path d="M278.492 27.1295C275.579 26.5746 272.786 27.3901 270.7 29.4146C267.726 32.2917 267.885 37.6281 271.026 40.8806C273.903 43.8547 279.239 43.6959 282.491 40.555C285.466 37.6779 285.307 32.3415 282.166 29.0891C281.266 28.1556 279.8 27.3777 278.492 27.1295Z" fill="#BEE4F7"/>
<path d="M296.239 37.2155C293.326 36.6606 290.533 37.4762 288.447 39.5006C285.473 42.3777 285.632 47.7141 288.772 50.9666C291.65 53.9408 296.986 53.7819 300.238 50.6411C303.213 47.764 303.054 42.4276 299.913 39.1751C299.013 38.2416 297.547 37.4637 296.239 37.2155Z" fill="#BEE4F7"/>
<path d="M313.986 47.3016C311.073 46.7466 308.28 47.5622 306.194 49.5867C302.677 52.9991 303.676 59.73 308.071 62.2279C311.759 64.3239 317.065 62.8636 319.161 59.1755C320.886 56.1392 320.245 51.9413 317.66 49.2611C316.76 48.3276 315.294 47.5497 313.986 47.3016Z" fill="#BEE4F7"/>
<path d="M331.733 57.3876C328.82 56.8327 326.027 57.6483 323.941 59.6727C320.424 63.0852 321.423 69.8161 325.818 72.314C329.506 74.41 334.811 72.9496 336.907 69.2616C338.633 66.2252 337.992 62.0273 335.407 59.3472C334.506 58.4137 333.041 57.6358 331.733 57.3876Z" fill="#BEE4F7"/>
<path d="M349.48 67.4737C346.567 66.9187 343.774 67.7343 341.688 69.7588C338.171 73.1712 339.169 79.9021 343.565 82.4C347.253 84.496 352.558 83.0356 354.654 79.3476C356.38 76.3112 355.739 72.1134 353.153 69.4332C352.253 68.4997 350.788 67.7218 349.48 67.4737Z" fill="#BEE4F7"/>
<path d="M367.226 77.5597C364.314 77.0048 361.52 77.8203 359.434 79.8448C355.918 83.2572 356.916 89.9881 361.311 92.486C365 94.582 370.305 93.1217 372.401 89.4337C374.127 86.3973 373.486 82.1994 370.9 79.5193C370 78.5858 368.535 77.8079 367.226 77.5597Z" fill="#BEE4F7"/>
</g>
<mask id="mask1_66_631" style="mask-type:alpha" maskUnits="userSpaceOnUse" x="0" y="1" width="360" height="179">
<path d="M0 1H360V178.265L336.399 173.85C328.495 172.371 320.794 169.957 313.459 166.66L308.766 164.549C303.282 162.084 298.169 158.866 293.574 154.988L292.01 153.668C278.376 142.162 260.347 137.284 242.771 140.346V140.346C234.353 141.813 225.72 141.473 217.443 139.351L191.743 132.76C176.705 128.904 160.799 130.328 146.686 136.796L137.669 140.929C126.698 145.956 114.154 146.304 102.922 141.892L97.0101 139.57C78.6826 132.37 57.9055 140.536 49.3837 158.287V158.287C42.5484 172.526 27.5408 180.972 11.8225 179.427L0 178.265V1Z" fill="#E2F5FF"/>
</mask>
<g mask="url(#mask1_66_631)">
<path d="M7.41713 124.213C4.57529 123.366 1.71401 123.895 -0.566257 125.698C-4.41052 128.736 -4.09817 135.534 0.0215171 138.464C3.47842 140.922 8.90464 140.007 11.3632 136.55C13.3874 133.704 13.1748 129.462 10.8737 126.534C10.0727 125.515 8.69336 124.592 7.41713 124.213Z" fill="#BEE4F7"/>
<path d="M24.0518 136.044C21.21 135.197 18.3487 135.725 16.0684 137.528C12.2242 140.567 12.5365 147.365 16.6562 150.295C20.1131 152.753 25.5393 151.837 27.9979 148.38C30.0221 145.534 29.8095 141.293 27.5085 138.365C26.7074 137.345 25.3281 136.423 24.0518 136.044Z" fill="#BEE4F7"/>
<path d="M40.6865 147.874C37.8447 147.027 34.9834 147.556 32.7032 149.359C28.8589 152.398 29.1712 159.195 33.2909 162.125C36.7478 164.584 42.1741 163.668 44.6326 160.211C46.6568 157.365 46.4442 153.124 44.1432 150.196C43.3421 149.176 41.9628 148.254 40.6865 147.874Z" fill="#BEE4F7"/>
<path d="M57.3212 159.705C54.4794 158.858 51.6181 159.387 49.3379 161.19C45.4936 164.229 45.8059 171.026 49.9256 173.956C53.3825 176.415 58.8088 175.499 61.2673 172.042C63.2915 169.196 63.0789 164.955 60.7779 162.027C59.9768 161.007 58.5975 160.084 57.3212 159.705Z" fill="#BEE4F7"/>
<path d="M73.9559 171.536C71.1141 170.689 68.2528 171.218 65.9726 173.02C62.1283 176.059 62.4406 182.857 66.5603 185.787C70.0172 188.245 75.4435 187.33 77.902 183.873C79.9262 181.027 79.7136 176.785 77.4126 173.857C76.6115 172.837 75.2322 171.915 73.9559 171.536Z" fill="#BEE4F7"/>
<path d="M90.5906 183.367C87.7488 182.52 84.8875 183.048 82.6073 184.851C79.3571 187.412 78.975 192.737 81.7704 196.291C84.3317 199.541 89.6567 199.923 93.2104 197.128C95.2686 195.5 96.2952 192.571 95.8036 189.657C95.2894 186.611 93.2618 184.151 90.5906 183.367Z" fill="#BEE4F7"/>
<path d="M-4.41362 140.848C-7.25546 140.001 -10.1167 140.529 -12.397 142.332C-16.2413 145.371 -15.9289 152.169 -11.8092 155.099C-8.35233 157.557 -2.92611 156.641 -0.467533 153.184C1.55663 150.338 1.34405 146.097 -0.957001 143.169C-1.75809 142.149 -3.13739 141.227 -4.41362 140.848Z" fill="#BEE4F7"/>
<path d="M12.221 152.678C9.37919 151.831 6.51791 152.36 4.23764 154.163C0.393378 157.202 0.705722 163.999 4.82541 166.929C8.28231 169.388 13.7085 168.472 16.1671 165.015C18.1913 162.169 17.9787 157.928 15.6776 155C14.8765 153.98 13.4973 153.058 12.221 152.678Z" fill="#BEE4F7"/>
<path d="M28.8558 164.509C26.014 163.662 23.1527 164.191 20.8724 165.994C17.0281 169.033 17.3405 175.83 21.4602 178.76C24.9171 181.219 30.3433 180.303 32.8019 176.846C34.826 174 34.6135 169.759 32.3124 166.831C31.5113 165.811 30.132 164.888 28.8558 164.509Z" fill="#BEE4F7"/>
<path d="M45.4905 176.34C42.6487 175.493 39.7874 176.022 37.5071 177.824C33.6628 180.863 33.9752 187.661 38.0949 190.591C41.5518 193.049 46.978 192.134 49.4366 188.677C51.4607 185.831 51.2482 181.589 48.9471 178.661C48.146 177.641 46.7667 176.719 45.4905 176.34Z" fill="#BEE4F7"/>
<path d="M0.390335 169.313C-2.4515 168.466 -5.31278 168.995 -7.59305 170.798C-11.4373 173.837 -11.125 180.634 -7.00528 183.564C-3.54838 186.023 1.87785 185.107 4.33642 181.65C5.51025 179.999 5.97105 177.783 5.60324 175.604C5.08907 172.557 3.06149 170.097 0.390335 169.313Z" fill="#BEE4F7"/>
<path d="M17.025 181.144C14.1832 180.297 11.3219 180.826 9.04165 182.628C5.19739 185.667 5.50974 192.465 9.62943 195.395C13.0863 197.853 18.5126 196.938 20.9711 193.481C22.145 191.83 22.6058 189.614 22.2379 187.434C21.7238 184.388 19.6962 181.928 17.025 181.144Z" fill="#BEE4F7"/>
<path d="M372.077 -13.5999C369.164 -14.1548 366.371 -13.3393 364.285 -11.3148C360.768 -7.90235 361.767 -1.17143 366.162 1.32644C369.85 3.42245 375.156 1.9621 377.252 -1.72592C378.252 -3.48675 378.486 -5.73831 377.9 -7.86926C377.08 -10.8483 374.814 -13.09 372.077 -13.5999Z" fill="#BEE4F7"/>
<path d="M326.497 -16.025C323.584 -16.58 320.791 -15.7644 318.705 -13.74C315.188 -10.3275 316.187 -3.5966 320.582 -1.09873C324.27 0.997275 329.576 -0.463072 331.672 -4.15109C333.397 -7.18747 332.757 -11.3854 330.171 -14.0655C329.271 -14.999 327.805 -15.7769 326.497 -16.025Z" fill="#BEE4F7"/>
<path d="M344.244 -5.93901C341.331 -6.49395 338.538 -5.6784 336.452 -3.65393C333.478 -0.776829 333.637 4.55956 336.777 7.81202C340.19 11.3289 346.921 10.3301 349.419 5.93494C351.144 2.89856 350.503 -1.29933 347.918 -3.97946C347.018 -4.91296 345.552 -5.69086 344.244 -5.93901Z" fill="#BEE4F7"/>
<path d="M361.991 4.14702C359.078 3.59207 356.285 4.40763 354.199 6.4321C351.225 9.3092 351.383 14.6456 354.524 17.8981C357.937 21.4149 364.668 20.4161 367.166 16.021C368.891 12.9846 368.25 8.7867 365.665 6.10657C364.765 5.17307 363.299 4.39517 361.991 4.14702Z" fill="#BEE4F7"/>
<path d="M298.664 -8.36421C295.751 -8.91916 292.958 -8.1036 290.872 -6.07914C287.355 -2.66669 288.354 4.06423 292.749 6.5621C296.437 8.6581 301.743 7.19776 303.839 3.50973C305.565 0.473354 304.924 -3.72453 302.338 -6.40466C301.438 -7.33817 299.972 -8.11606 298.664 -8.36421Z" fill="#BEE4F7"/>
<path d="M316.411 1.72182C313.498 1.16687 310.705 1.98243 308.619 4.00689C305.102 7.41934 306.101 14.1503 310.496 16.6481C314.184 18.7441 319.49 17.2838 321.586 13.5958C323.311 10.5594 322.671 6.3615 320.085 3.68137C319.185 2.74786 317.719 1.96996 316.411 1.72182Z" fill="#BEE4F7"/>
<path d="M334.158 11.8078C331.245 11.2529 328.452 12.0685 326.366 14.0929C323.392 16.97 323.551 22.3064 326.691 25.5589C330.104 29.0758 336.835 28.0769 339.333 23.6818C341.058 20.6454 340.417 16.4475 337.832 13.7674C336.932 12.8339 335.466 12.056 334.158 11.8078Z" fill="#BEE4F7"/>
<path d="M351.905 21.8939C348.992 21.3389 346.199 22.1545 344.113 24.179C341.139 27.0561 341.297 32.3924 344.438 35.6449C347.851 39.1618 354.582 38.1629 357.079 33.7678C358.805 30.7314 358.164 26.5336 355.579 23.8534C354.678 22.9199 353.213 22.142 351.905 21.8939Z" fill="#BEE4F7"/>
<path d="M369.652 31.9799C366.739 31.425 363.946 32.2405 361.86 34.265C358.885 37.1421 359.044 42.4785 362.185 45.731C365.598 49.2479 372.329 48.249 374.826 43.8539C376.552 40.8175 375.911 36.6196 373.326 33.9395C372.425 33.006 370.96 32.2281 369.652 31.9799Z" fill="#BEE4F7"/>
<path d="M253.084 -10.7894C250.171 -11.3444 247.378 -10.5288 245.292 -8.50434C241.775 -5.09189 242.774 1.63903 247.169 4.1369C250.857 6.2329 256.163 4.77255 258.259 1.08453C259.26 -0.676291 259.494 -2.92785 258.907 -5.05881C258.087 -8.0378 255.821 -10.2796 253.084 -10.7894Z" fill="#BEE4F7"/>
<path d="M270.831 -0.703383C267.918 -1.25833 265.125 -0.442771 263.039 1.58169C260.065 4.4588 260.224 9.79518 263.365 13.0476C266.777 16.5645 273.508 15.5657 276.006 11.1706C277.732 8.13419 277.091 3.9363 274.505 1.25617C273.605 0.322663 272.139 -0.455233 270.831 -0.703383Z" fill="#BEE4F7"/>
<path d="M288.578 9.38264C285.665 8.8277 282.872 9.64326 280.786 11.6677C277.269 15.0802 278.268 21.8111 282.663 24.309C286.351 26.405 291.657 24.9446 293.753 21.2566C295.478 18.2202 294.838 14.0223 292.252 11.3422C291.352 10.4087 289.886 9.63079 288.578 9.38264Z" fill="#BEE4F7"/>
<path d="M306.325 19.4687C303.412 18.9138 300.619 19.7293 298.533 21.7538C295.016 25.1662 296.015 31.8971 300.41 34.395C304.098 36.491 309.404 35.0307 311.5 31.3426C313.225 28.3063 312.585 24.1084 309.999 21.4283C309.099 20.4947 307.633 19.7169 306.325 19.4687Z" fill="#BEE4F7"/>
<path d="M324.072 29.5547C321.159 28.9998 318.366 29.8153 316.28 31.8398C313.306 34.7169 313.465 40.0533 316.605 43.3058C320.018 46.8227 326.749 45.8238 329.247 41.4287C330.972 38.3923 330.331 34.1944 327.746 31.5143C326.846 30.5808 325.38 29.8029 324.072 29.5547Z" fill="#BEE4F7"/>
<path d="M341.819 39.6408C338.906 39.0858 336.113 39.9014 334.027 41.9258C331.052 44.8029 331.211 50.1393 334.352 53.3918C337.765 56.9087 344.496 55.9098 346.993 51.5147C348.719 48.4783 348.078 44.2804 345.493 41.6003C344.592 40.6668 343.127 39.8889 341.819 39.6408Z" fill="#BEE4F7"/>
<path d="M359.566 49.7268C356.653 49.1719 353.86 49.9874 351.774 52.0119C348.799 54.889 348.958 60.2254 352.099 63.4779C355.512 66.9947 362.242 65.9959 364.74 61.6008C366.466 58.5644 365.825 54.3665 363.24 51.6864C362.339 50.7529 360.874 49.975 359.566 49.7268Z" fill="#BEE4F7"/>
<path d="M242.998 6.95744C240.085 6.4025 237.292 7.21805 235.206 9.24252C231.689 12.655 232.688 19.3859 237.083 21.8838C240.771 23.9798 246.077 22.5194 248.173 18.8314C249.899 15.795 249.258 11.5971 246.672 8.91699C245.772 7.98349 244.306 7.20559 242.998 6.95744Z" fill="#BEE4F7"/>
<path d="M260.745 17.0435C257.832 16.4886 255.039 17.3041 252.953 19.3286C249.979 22.2057 250.138 27.5421 253.279 30.7945C256.691 34.3114 263.422 33.3126 265.92 28.9175C267.646 25.8811 267.005 21.6832 264.419 19.0031C263.519 18.0696 262.053 17.2917 260.745 17.0435Z" fill="#BEE4F7"/>
<path d="M278.492 27.1295C275.579 26.5746 272.786 27.3901 270.7 29.4146C267.726 32.2917 267.885 37.6281 271.026 40.8806C273.903 43.8547 279.239 43.6959 282.491 40.555C285.466 37.6779 285.307 32.3415 282.166 29.0891C281.266 28.1556 279.8 27.3777 278.492 27.1295Z" fill="#BEE4F7"/>
<path d="M296.239 37.2155C293.326 36.6606 290.533 37.4762 288.447 39.5006C285.473 42.3777 285.632 47.7141 288.772 50.9666C291.65 53.9408 296.986 53.7819 300.238 50.6411C303.213 47.764 303.054 42.4276 299.913 39.1751C299.013 38.2416 297.547 37.4637 296.239 37.2155Z" fill="#BEE4F7"/>
<path d="M313.986 47.3016C311.073 46.7466 308.28 47.5622 306.194 49.5867C302.677 52.9991 303.676 59.73 308.071 62.2279C311.759 64.3239 317.065 62.8636 319.161 59.1755C320.886 56.1392 320.245 51.9413 317.66 49.2611C316.76 48.3276 315.294 47.5497 313.986 47.3016Z" fill="#BEE4F7"/>
<path d="M331.733 57.3876C328.82 56.8327 326.027 57.6483 323.941 59.6727C320.424 63.0852 321.423 69.8161 325.818 72.314C329.506 74.41 334.811 72.9496 336.907 69.2616C338.633 66.2252 337.992 62.0273 335.407 59.3472C334.506 58.4137 333.041 57.6358 331.733 57.3876Z" fill="#BEE4F7"/>
<path d="M349.48 67.4737C346.567 66.9187 343.774 67.7343 341.688 69.7588C338.171 73.1712 339.169 79.9021 343.565 82.4C347.253 84.496 352.558 83.0356 354.654 79.3476C356.38 76.3112 355.739 72.1134 353.153 69.4332C352.253 68.4997 350.788 67.7218 349.48 67.4737Z" fill="#BEE4F7"/>
<path d="M367.226 77.5597C364.314 77.0048 361.52 77.8203 359.434 79.8448C355.918 83.2572 356.916 89.9881 361.311 92.486C365 94.582 370.305 93.1217 372.401 89.4337C374.127 86.3973 373.486 82.1994 370.9 79.5193C370 78.5858 368.535 77.8079 367.226 77.5597Z" fill="#BEE4F7"/>
</g>
</svg>
