<svg width="360" height="151" viewBox="0 0 360 151" fill="none" xmlns="http://www.w3.org/2000/svg">
<g filter="url(#filter0_d_0_1)">
<path d="M0 0H360V145.265L336.399 140.85C328.495 139.371 320.794 136.957 313.459 133.66L308.766 131.549C303.282 129.084 298.169 125.866 293.574 121.988L292.01 120.668C278.376 109.162 260.347 104.284 242.771 107.346C234.353 108.813 225.72 108.473 217.443 106.351L191.743 99.7601C176.705 95.9037 160.799 97.3285 146.686 103.796L137.669 107.929C126.698 112.956 114.154 113.304 102.922 108.892L97.0101 106.57C78.6826 99.3705 57.9055 107.536 49.3837 125.287C42.5484 139.526 27.5408 147.972 11.8225 146.427L0 145.265V0Z" fill="#E2F5FF"/>
</g>
<mask id="mask0_0_1" style="mask-type:alpha" maskUnits="userSpaceOnUse" x="0" y="0" width="360" height="147">
<path d="M0 0H360V145.265L336.399 140.85C328.495 139.371 320.794 136.957 313.459 133.66L308.766 131.549C303.282 129.084 298.169 125.866 293.574 121.988L292.01 120.668C278.376 109.162 260.347 104.284 242.771 107.346C234.353 108.813 225.72 108.473 217.443 106.351L191.743 99.7601C176.705 95.9037 160.799 97.3285 146.686 103.796L137.669 107.929C126.698 112.956 114.154 113.304 102.922 108.892L97.0101 106.57C78.6826 99.3705 57.9055 107.536 49.3837 125.287C42.5484 139.526 27.5408 147.972 11.8225 146.427L0 145.265V0Z" fill="#E2F5FF"/>
</mask>
<g mask="url(#mask0_0_1)">
<path d="M7.4171 91.213C4.57526 90.366 1.71398 90.8946 -0.566288 92.6975C-4.41055 95.7364 -4.0982 102.534 0.0214868 105.464C3.47839 107.922 8.90461 107.007 11.3632 103.55C13.3874 100.704 13.1748 96.4625 10.8737 93.5344C10.0726 92.5145 8.69333 91.5923 7.4171 91.213Z" fill="#BEE4F7"/>
<path d="M24.0518 103.044C21.21 102.197 18.3487 102.725 16.0684 104.528C12.2242 107.567 12.5365 114.365 16.6562 117.295C20.1131 119.753 25.5393 118.837 27.9979 115.38C30.0221 112.534 29.8095 108.293 27.5084 105.365C26.7073 104.345 25.328 103.423 24.0518 103.044Z" fill="#BEE4F7"/>
<path d="M40.6865 114.874C37.8447 114.027 34.9834 114.556 32.7031 116.359C28.8589 119.398 29.1712 126.195 33.2909 129.125C36.7478 131.584 42.174 130.668 44.6326 127.211C46.6568 124.365 46.4442 120.124 44.1431 117.196C43.342 116.176 41.9627 115.254 40.6865 114.874Z" fill="#BEE4F7"/>
<path d="M57.3212 126.705C54.4794 125.858 51.6181 126.387 49.3378 128.19C45.4936 131.229 45.8059 138.026 49.9256 140.956C53.3825 143.415 58.8087 142.499 61.2673 139.042C63.2915 136.196 63.0789 131.955 60.7778 129.027C59.9767 128.007 58.5974 127.084 57.3212 126.705Z" fill="#BEE4F7"/>
<path d="M73.9559 138.536C71.1141 137.689 68.2528 138.218 65.9725 140.02C62.1283 143.059 62.4406 149.857 66.5603 152.787C70.0172 155.245 75.4434 154.33 77.902 150.873C79.9262 148.027 79.7136 143.785 77.4125 140.857C76.6114 139.837 75.2321 138.915 73.9559 138.536Z" fill="#BEE4F7"/>
<path d="M90.5906 150.367C87.7488 149.52 84.8875 150.048 82.6072 151.851C79.3571 154.412 78.9749 159.737 81.7704 163.291C84.3316 166.541 89.6567 166.923 93.2104 164.128C95.2686 162.5 96.2952 159.571 95.8035 156.657C95.2894 153.611 93.2618 151.151 90.5906 150.367Z" fill="#BEE4F7"/>
<path d="M-4.41362 107.848C-7.25546 107.001 -10.1167 107.529 -12.397 109.332C-16.2413 112.371 -15.9289 119.169 -11.8092 122.099C-8.35233 124.557 -2.92611 123.641 -0.467533 120.184C1.55663 117.338 1.34405 113.097 -0.957001 110.169C-1.75809 109.149 -3.13739 108.227 -4.41362 107.848Z" fill="#BEE4F7"/>
<path d="M12.2211 119.678C9.37922 118.831 6.51794 119.36 4.23767 121.163C0.393408 124.202 0.705753 130.999 4.82544 133.929C8.28234 136.388 13.7086 135.472 16.1671 132.015C18.1913 129.169 17.9787 124.928 15.6777 122C14.8766 120.98 13.4973 120.058 12.2211 119.678Z" fill="#BEE4F7"/>
<path d="M28.8558 131.509C26.0139 130.662 23.1526 131.191 20.8724 132.994C17.0281 136.033 17.3405 142.83 21.4601 145.76C24.917 148.219 30.3433 147.303 32.8018 143.846C34.826 141 34.6134 136.759 32.3124 133.831C31.5113 132.811 30.132 131.888 28.8558 131.509Z" fill="#BEE4F7"/>
<path d="M45.4905 143.34C42.6487 142.493 39.7874 143.022 37.5071 144.824C33.6628 147.863 33.9752 154.661 38.0949 157.591C41.5518 160.049 46.978 159.134 49.4366 155.677C51.4607 152.831 51.2482 148.589 48.9471 145.661C48.146 144.641 46.7667 143.719 45.4905 143.34Z" fill="#BEE4F7"/>
<path d="M0.390335 136.313C-2.4515 135.466 -5.31278 135.995 -7.59305 137.798C-11.4373 140.837 -11.125 147.634 -7.00528 150.564C-3.54838 153.023 1.87785 152.107 4.33642 148.65C5.51025 146.999 5.97105 144.783 5.60324 142.604C5.08907 139.557 3.06149 137.097 0.390335 136.313Z" fill="#BEE4F7"/>
<path d="M17.025 148.144C14.1832 147.297 11.3219 147.826 9.04165 149.628C5.19739 152.667 5.50974 159.465 9.62943 162.395C13.0863 164.853 18.5126 163.938 20.9711 160.481C22.145 158.83 22.6058 156.614 22.2379 154.434C21.7238 151.388 19.6962 148.928 17.025 148.144Z" fill="#BEE4F7"/>
<path d="M351.905 -11.1061C348.992 -11.6611 346.199 -10.8455 344.113 -8.82105C341.139 -5.94394 341.297 -0.607556 344.438 2.64491C347.851 6.16179 354.582 5.16295 357.079 0.767824C358.805 -2.26856 358.164 -6.46644 355.579 -9.14657C354.678 -10.0801 353.213 -10.858 351.905 -11.1061Z" fill="#BEE4F7"/>
<path d="M369.652 -1.02006C366.739 -1.57501 363.946 -0.759452 361.86 1.26501C358.885 4.14212 359.044 9.4785 362.185 12.731C365.598 16.2479 372.329 15.249 374.826 10.8539C376.552 7.8175 375.911 3.61962 373.326 0.939489C372.425 0.00598232 370.96 -0.771914 369.652 -1.02006Z" fill="#BEE4F7"/>
<path d="M306.325 -13.5313C303.412 -14.0862 300.619 -13.2707 298.533 -11.2462C295.016 -7.83378 296.015 -1.10286 300.41 1.39501C304.098 3.49102 309.404 2.03067 311.5 -1.65735C313.225 -4.69373 312.585 -8.89161 309.999 -11.5717C309.099 -12.5053 307.633 -13.2831 306.325 -13.5313Z" fill="#BEE4F7"/>
<path d="M324.072 -3.44527C321.159 -4.00021 318.366 -3.18465 316.28 -1.16019C313.306 1.71691 313.465 7.0533 316.605 10.3058C320.018 13.8226 326.749 12.8238 329.247 8.42868C330.972 5.3923 330.331 1.19442 327.746 -1.48571C326.846 -2.41922 325.38 -3.19712 324.072 -3.44527Z" fill="#BEE4F7"/>
<path d="M341.819 6.64076C338.906 6.08582 336.113 6.90138 334.027 8.92584C331.053 11.8029 331.211 17.1393 334.352 20.3918C337.765 23.9087 344.496 22.9098 346.993 18.5147C348.719 15.4783 348.078 11.2804 345.493 8.60032C344.592 7.66681 343.127 6.88891 341.819 6.64076Z" fill="#BEE4F7"/>
<path d="M359.566 16.7268C356.653 16.1719 353.86 16.9874 351.774 19.0119C348.799 21.889 348.958 27.2254 352.099 30.4779C355.512 33.9947 362.242 32.9959 364.74 28.6008C366.466 25.5644 365.825 21.3665 363.24 18.6864C362.339 17.7529 360.874 16.975 359.566 16.7268Z" fill="#BEE4F7"/>
<path d="M260.745 -15.9565C257.832 -16.5114 255.039 -15.6959 252.953 -13.6714C249.979 -10.7943 250.138 -5.45793 253.279 -2.20547C256.691 1.31142 263.422 0.312576 265.92 -4.08255C267.646 -7.11893 267.005 -11.3168 264.419 -13.9969C263.519 -14.9304 262.053 -15.7083 260.745 -15.9565Z" fill="#BEE4F7"/>
<path d="M278.492 -5.87048C275.579 -6.42543 272.786 -5.60987 270.7 -3.5854C267.726 -0.7083 267.885 4.62809 271.026 7.88055C273.903 10.8547 279.239 10.6959 282.492 7.55503C285.466 4.67792 285.307 -0.658465 282.166 -3.91093C281.266 -4.84444 279.8 -5.62233 278.492 -5.87048Z" fill="#BEE4F7"/>
<path d="M296.239 4.21555C293.326 3.6606 290.533 4.47616 288.447 6.50063C285.473 9.37773 285.632 14.7141 288.772 17.9666C291.65 20.9408 296.986 20.7819 300.238 17.6411C303.213 14.764 303.054 9.42756 299.913 6.1751C299.013 5.24159 297.547 4.4637 296.239 4.21555Z" fill="#BEE4F7"/>
<path d="M313.986 14.3016C311.073 13.7466 308.28 14.5622 306.194 16.5867C302.677 19.9991 303.676 26.73 308.071 29.2279C311.759 31.3239 317.065 29.8636 319.161 26.1755C320.886 23.1392 320.245 18.9413 317.66 16.2611C316.76 15.3276 315.294 14.5497 313.986 14.3016Z" fill="#BEE4F7"/>
<path d="M331.733 24.3876C328.82 23.8327 326.027 24.6483 323.941 26.6727C320.424 30.0852 321.423 36.8161 325.818 39.314C329.506 41.41 334.811 39.9496 336.907 36.2616C338.633 33.2252 337.992 29.0273 335.407 26.3472C334.506 25.4137 333.041 24.6358 331.733 24.3876Z" fill="#BEE4F7"/>
<path d="M349.48 34.4737C346.567 33.9187 343.774 34.7343 341.688 36.7588C338.171 40.1712 339.169 46.9021 343.565 49.4C347.253 51.496 352.558 50.0356 354.654 46.3476C356.38 43.3112 355.739 39.1134 353.153 36.4332C352.253 35.4997 350.788 34.7218 349.48 34.4737Z" fill="#BEE4F7"/>
<path d="M367.226 44.5597C364.314 44.0048 361.52 44.8203 359.434 46.8448C355.918 50.2572 356.916 56.9881 361.311 59.486C364.999 61.582 370.305 60.1217 372.401 56.4337C374.127 53.3973 373.486 49.1994 370.9 46.5193C370 45.5858 368.535 44.8079 367.226 44.5597Z" fill="#BEE4F7"/>
</g>
<defs>
<filter id="filter0_d_0_1" x="0" y="0" width="360" height="150.608" filterUnits="userSpaceOnUse" color-interpolation-filters="sRGB">
<feFlood flood-opacity="0" result="BackgroundImageFix"/>
<feColorMatrix in="SourceAlpha" type="matrix" values="0 0 0 0 0 0 0 0 0 0 0 0 0 0 0 0 0 0 127 0" result="hardAlpha"/>
<feOffset dy="4"/>
<feComposite in2="hardAlpha" operator="out"/>
<feColorMatrix type="matrix" values="0 0 0 0 0.745098 0 0 0 0 0.894118 0 0 0 0 0.968627 0 0 0 1 0"/>
<feBlend mode="normal" in2="BackgroundImageFix" result="effect1_dropShadow_0_1"/>
<feBlend mode="normal" in="SourceGraphic" in2="effect1_dropShadow_0_1" result="shape"/>
</filter>
</defs>
</svg>
